<?xml version="1.0" encoding="utf-8"?>
<!-- Generator: Adobe Illustrator 17.0.0, SVG Export Plug-In . SVG Version: 6.00 Build 0)  -->
<!DOCTYPE svg PUBLIC "-//W3C//DTD SVG 1.1//EN" "http://www.w3.org/Graphics/SVG/1.1/DTD/svg11.dtd">
<svg version="1.1" id="Calque_1" xmlns="http://www.w3.org/2000/svg" xmlns:xlink="http://www.w3.org/1999/xlink" x="0px" y="0px"
	 width="721px" height="103px" viewBox="0 0 721 103" enable-background="new 0 0 721 103" xml:space="preserve">
<g>
	<g>
		<path stroke="#000000" stroke-width="0.25" stroke-miterlimit="10" d="M105.983,40.423l-2.081-11.251l-3.826,11.491h-0.598
			l-3.934-11.491l-2.033,11.251H91.24l3.276-17.517h1.088l4.173,12.782l3.851-12.782h1.076l3.551,17.517H105.983z"/>
		<path stroke="#000000" stroke-width="0.25" stroke-miterlimit="10" d="M111.088,40.423V29.53h-1.758v-1.913h4.03v12.806H111.088z
			 M112.332,22.774c0.39,0,0.723,0.138,0.998,0.413c0.275,0.275,0.413,0.604,0.413,0.986c0,0.391-0.137,0.724-0.413,0.999
			c-0.275,0.275-0.608,0.413-0.998,0.413c-0.383,0-0.711-0.138-0.987-0.413c-0.275-0.275-0.413-0.607-0.413-0.999
			c0-0.39,0.136-0.721,0.407-0.992S111.941,22.774,112.332,22.774z"/>
		<path stroke="#000000" stroke-width="0.25" stroke-miterlimit="10" d="M124.852,40.423v-7.449c0-1.363-0.206-2.318-0.616-2.864
			c-0.411-0.546-1.099-0.819-2.063-0.819c-0.518,0-1.06,0.156-1.626,0.466c-0.566,0.311-1,0.694-1.303,1.148v9.518h-2.272V27.617
			h1.554l0.718,1.65c0.749-1.259,1.973-1.889,3.671-1.889c2.806,0,4.208,1.706,4.208,5.118v7.928H124.852z"/>
		<path stroke="#000000" stroke-width="0.25" stroke-miterlimit="10" d="M131.452,40.423V29.53h-1.758v-1.913h4.03v12.806H131.452z
			 M132.695,22.774c0.39,0,0.723,0.138,0.998,0.413c0.275,0.275,0.413,0.604,0.413,0.986c0,0.391-0.137,0.724-0.413,0.999
			c-0.275,0.275-0.608,0.413-0.998,0.413c-0.383,0-0.711-0.138-0.987-0.413c-0.275-0.275-0.413-0.607-0.413-0.999
			c0-0.39,0.136-0.721,0.407-0.992S132.305,22.774,132.695,22.774z"/>
		<path stroke="#000000" stroke-width="0.25" stroke-miterlimit="10" d="M136.498,39.658l0.801-2.152
			c1.268,0.829,2.288,1.244,3.061,1.244c1.403,0,2.104-0.59,2.104-1.77c0-0.845-0.677-1.57-2.033-2.176
			c-1.044-0.479-1.748-0.841-2.11-1.088s-0.678-0.528-0.944-0.843c-0.268-0.315-0.466-0.65-0.598-1.004
			c-0.131-0.355-0.197-0.735-0.197-1.142c0-1.052,0.383-1.873,1.148-2.463c0.765-0.589,1.766-0.885,3.001-0.885
			c0.933,0,2.108,0.295,3.527,0.885l-0.646,2.104c-0.901-0.717-1.805-1.076-2.714-1.076c-0.542,0-0.998,0.128-1.369,0.383
			c-0.371,0.255-0.556,0.578-0.556,0.969c0,0.821,0.466,1.443,1.399,1.865l1.626,0.741c0.997,0.455,1.722,0.973,2.176,1.555
			c0.455,0.582,0.682,1.311,0.682,2.188c0,1.148-0.403,2.047-1.208,2.696c-0.805,0.65-1.921,0.975-3.348,0.975
			C138.953,40.662,137.685,40.327,136.498,39.658z"/>
		<path stroke="#000000" stroke-width="0.25" stroke-miterlimit="10" d="M148.06,29.41h-1.482v-1.793h1.482v-2.678l2.272-0.873
			v3.551h3.515v1.793h-3.515v6.361c0,1.076,0.181,1.841,0.544,2.296c0.363,0.454,0.946,0.682,1.752,0.682
			c0.582,0,1.184-0.147,1.805-0.442l0.335,1.997c-0.941,0.239-1.973,0.359-3.097,0.359c-1.013,0-1.868-0.377-2.565-1.13
			c-0.698-0.753-1.046-1.704-1.046-2.852V29.41z"/>
		<path stroke="#000000" stroke-width="0.25" stroke-miterlimit="10" d="M167.741,34.241h-9.231c0,1.499,0.411,2.65,1.232,3.456
			c0.725,0.701,1.658,1.052,2.798,1.052c1.299,0,2.383-0.379,3.252-1.136l0.957,1.638c-0.351,0.351-0.889,0.654-1.614,0.909
			c-0.909,0.335-1.921,0.502-3.037,0.502c-1.61,0-2.978-0.546-4.102-1.638c-1.251-1.204-1.877-2.822-1.877-4.854
			c0-2.112,0.642-3.807,1.925-5.082c1.148-1.14,2.507-1.71,4.078-1.71c1.825,0,3.256,0.514,4.292,1.542
			c1.004,0.989,1.507,2.3,1.507,3.934C167.921,33.356,167.861,33.818,167.741,34.241z M162.229,29.291
			c-1.012,0-1.861,0.327-2.547,0.98c-0.654,0.622-1.024,1.396-1.112,2.32h7.09c0-0.917-0.287-1.682-0.861-2.296
			C164.17,29.625,163.313,29.291,162.229,29.291z M165.194,21.076l-2.702,3.982h-1.674l2.021-3.982H165.194z"/>
		<path stroke="#000000" stroke-width="0.25" stroke-miterlimit="10" d="M177.271,29.805c-0.494-0.342-0.992-0.514-1.495-0.514
			c-0.805,0-1.509,0.371-2.11,1.112c-0.602,0.741-0.903,1.634-0.903,2.678v7.342h-2.272V27.617h2.272v2.045
			c0.829-1.522,2.061-2.284,3.695-2.284c0.406,0,0.992,0.072,1.758,0.215L177.271,29.805z"/>
		<path stroke="#000000" stroke-width="0.25" stroke-miterlimit="10" d="M190.615,34.241h-9.231c0,1.499,0.411,2.65,1.232,3.456
			c0.725,0.701,1.658,1.052,2.798,1.052c1.299,0,2.383-0.379,3.252-1.136l0.957,1.638c-0.351,0.351-0.889,0.654-1.614,0.909
			c-0.909,0.335-1.921,0.502-3.037,0.502c-1.61,0-2.978-0.546-4.102-1.638c-1.251-1.204-1.877-2.822-1.877-4.854
			c0-2.112,0.642-3.807,1.925-5.082c1.148-1.14,2.507-1.71,4.078-1.71c1.825,0,3.256,0.514,4.292,1.542
			c1.004,0.989,1.507,2.3,1.507,3.934C190.795,33.356,190.735,33.818,190.615,34.241z M185.103,29.291
			c-1.012,0-1.861,0.327-2.547,0.98c-0.654,0.622-1.024,1.396-1.112,2.32h7.09c0-0.917-0.287-1.682-0.861-2.296
			C187.044,29.625,186.187,29.291,185.103,29.291z"/>
		<path stroke="#000000" stroke-width="0.25" stroke-miterlimit="10" d="M208.683,40.411v-0.945
			c-0.789,0.789-1.937,1.184-3.443,1.184c-1.603,0-2.902-0.574-3.898-1.722c-0.997-1.148-1.495-2.678-1.495-4.592
			c0-1.921,0.574-3.561,1.722-4.92c1.148-1.359,2.515-2.039,4.101-2.039c1.323,0,2.328,0.311,3.013,0.933v-5.942h2.272v18.043
			H208.683z M208.683,30.582c-0.574-0.861-1.359-1.292-2.355-1.292c-1.22,0-2.206,0.455-2.959,1.363
			c-0.753,0.909-1.13,2.065-1.13,3.468c0,3.085,1.403,4.627,4.209,4.627c0.359,0,0.789-0.114,1.292-0.341
			c0.502-0.228,0.817-0.468,0.944-0.724V30.582z"/>
		<path stroke="#000000" stroke-width="0.25" stroke-miterlimit="10" d="M216.359,27.617v8.167c0,1.977,0.857,2.965,2.571,2.965
			c0.749,0,1.435-0.215,2.057-0.646c0.622-0.43,1.032-0.928,1.231-1.495v-8.992h2.272v12.806h-2.272v-1.77
			c-0.255,0.502-0.767,0.962-1.537,1.381c-0.769,0.418-1.521,0.628-2.254,0.628c-1.403,0-2.477-0.402-3.222-1.208
			c-0.746-0.805-1.118-1.949-1.118-3.432v-8.406H216.359z"/>
		<path stroke="#000000" stroke-width="0.25" stroke-miterlimit="10" d="M241.086,25.058v15.365h-2.392V25.058h-5.572v-2.152h13.787
			v2.152H241.086z"/>
		<path stroke="#000000" stroke-width="0.25" stroke-miterlimit="10" d="M253.008,29.805c-0.494-0.342-0.992-0.514-1.495-0.514
			c-0.805,0-1.509,0.371-2.11,1.112c-0.602,0.741-0.903,1.634-0.903,2.678v7.342h-2.272V27.617h2.272v2.045
			c0.829-1.522,2.061-2.284,3.695-2.284c0.406,0,0.992,0.072,1.758,0.215L253.008,29.805z"/>
		<path stroke="#000000" stroke-width="0.25" stroke-miterlimit="10" d="M262.801,38.952c-0.909,1.14-2.3,1.71-4.173,1.71
			c-1.004,0-1.875-0.365-2.613-1.094s-1.106-1.636-1.106-2.72c0-1.299,0.568-2.397,1.704-3.294c1.136-0.897,2.584-1.345,4.346-1.345
			c0.479,0,1.021,0.104,1.626,0.311c0-2.072-0.925-3.109-2.774-3.109c-1.419,0-2.511,0.383-3.276,1.148l-0.957-1.901
			c0.431-0.351,1.026-0.652,1.788-0.903c0.761-0.251,1.489-0.377,2.182-0.377c1.857,0,3.207,0.423,4.048,1.268
			c0.841,0.845,1.261,2.188,1.261,4.03v4.591c0,1.124,0.335,1.874,1.004,2.248v1.136c-0.925,0-1.616-0.131-2.074-0.395
			C263.329,39.992,263,39.558,262.801,38.952z M262.586,34.133c-0.718-0.159-1.22-0.239-1.507-0.239
			c-1.148,0-2.084,0.295-2.81,0.885c-0.725,0.59-1.088,1.287-1.088,2.092c0,1.332,0.785,1.997,2.355,1.997
			c1.148,0,2.164-0.546,3.049-1.638V34.133z"/>
		<path stroke="#000000" stroke-width="0.25" stroke-miterlimit="10" d="M273.048,40.662h-0.598l-5.488-13.081h2.487l3.384,8.968
			l3.456-8.968h2.379L273.048,40.662z"/>
		<path stroke="#000000" stroke-width="0.25" stroke-miterlimit="10" d="M287.66,38.952c-0.909,1.14-2.3,1.71-4.173,1.71
			c-1.004,0-1.875-0.365-2.613-1.094s-1.106-1.636-1.106-2.72c0-1.299,0.568-2.397,1.704-3.294c1.136-0.897,2.584-1.345,4.346-1.345
			c0.479,0,1.021,0.104,1.626,0.311c0-2.072-0.925-3.109-2.774-3.109c-1.419,0-2.511,0.383-3.276,1.148l-0.957-1.901
			c0.431-0.351,1.026-0.652,1.788-0.903c0.761-0.251,1.489-0.377,2.182-0.377c1.857,0,3.207,0.423,4.048,1.268
			c0.841,0.845,1.261,2.188,1.261,4.03v4.591c0,1.124,0.335,1.874,1.004,2.248v1.136c-0.925,0-1.616-0.131-2.074-0.395
			C288.188,39.992,287.859,39.558,287.66,38.952z M287.445,34.133c-0.718-0.159-1.22-0.239-1.507-0.239
			c-1.148,0-2.084,0.295-2.81,0.885c-0.725,0.59-1.088,1.287-1.088,2.092c0,1.332,0.785,1.997,2.355,1.997
			c1.148,0,2.164-0.546,3.049-1.638V34.133z"/>
		<path stroke="#000000" stroke-width="0.25" stroke-miterlimit="10" d="M294.392,40.423V29.53h-1.758v-1.913h4.03v12.806H294.392z
			 M295.635,22.774c0.39,0,0.723,0.138,0.998,0.413c0.275,0.275,0.413,0.604,0.413,0.986c0,0.391-0.137,0.724-0.413,0.999
			c-0.275,0.275-0.608,0.413-0.998,0.413c-0.383,0-0.711-0.138-0.987-0.413c-0.275-0.275-0.413-0.607-0.413-0.999
			c0-0.39,0.136-0.721,0.407-0.992S295.245,22.774,295.635,22.774z"/>
		<path stroke="#000000" stroke-width="0.25" stroke-miterlimit="10" d="M300.454,36.8V22.368h2.272v14.049
			c0,0.686,0.197,1.226,0.592,1.621c0.395,0.395,0.911,0.592,1.548,0.592v2.033C301.924,40.662,300.454,39.375,300.454,36.8z"/>
		<path stroke="#000000" stroke-width="0.25" stroke-miterlimit="10" d="M322.993,40.411v-0.945
			c-0.789,0.789-1.937,1.184-3.443,1.184c-1.603,0-2.902-0.574-3.898-1.722c-0.997-1.148-1.495-2.678-1.495-4.592
			c0-1.921,0.574-3.561,1.722-4.92c1.148-1.359,2.515-2.039,4.101-2.039c1.323,0,2.328,0.311,3.013,0.933v-5.942h2.272v18.043
			H322.993z M322.993,30.582c-0.574-0.861-1.359-1.292-2.355-1.292c-1.22,0-2.206,0.455-2.959,1.363
			c-0.753,0.909-1.13,2.065-1.13,3.468c0,3.085,1.403,4.627,4.209,4.627c0.359,0,0.789-0.114,1.292-0.341
			c0.502-0.228,0.817-0.468,0.944-0.724V30.582z"/>
		<path stroke="#000000" stroke-width="0.25" stroke-miterlimit="10" d="M339.302,34.241h-9.231c0,1.499,0.411,2.65,1.232,3.456
			c0.725,0.701,1.658,1.052,2.798,1.052c1.299,0,2.383-0.379,3.252-1.136l0.957,1.638c-0.351,0.351-0.889,0.654-1.614,0.909
			c-0.909,0.335-1.921,0.502-3.037,0.502c-1.61,0-2.978-0.546-4.102-1.638c-1.251-1.204-1.877-2.822-1.877-4.854
			c0-2.112,0.642-3.807,1.925-5.082c1.148-1.14,2.507-1.71,4.078-1.71c1.825,0,3.256,0.514,4.292,1.542
			c1.004,0.989,1.507,2.3,1.507,3.934C339.482,33.356,339.422,33.818,339.302,34.241z M333.79,29.291
			c-1.012,0-1.861,0.327-2.547,0.98c-0.654,0.622-1.024,1.396-1.112,2.32h7.09c0-0.917-0.287-1.682-0.861-2.296
			C335.731,29.625,334.874,29.291,333.79,29.291z"/>
		<path stroke="#000000" stroke-width="0.25" stroke-miterlimit="10" d="M349.43,36.8V22.368h2.272v14.049
			c0,0.686,0.197,1.226,0.592,1.621c0.395,0.395,0.911,0.592,1.549,0.592v2.033C350.901,40.662,349.43,39.375,349.43,36.8z"/>
		<path stroke="#000000" stroke-width="0.25" stroke-miterlimit="10" d="M361.208,24.484c0,2.113-1.057,3.834-3.169,5.166
			l-0.801-1.064l0.896-0.766c0.438-0.375,0.657-0.833,0.657-1.375c0-0.327-0.195-0.706-0.586-1.136
			c-0.391-0.431-0.586-0.825-0.586-1.184c0-1.172,0.578-1.758,1.734-1.758C360.59,22.368,361.208,23.073,361.208,24.484z"/>
		<path stroke="#000000" stroke-width="0.25" stroke-miterlimit="10" d="M368.035,25.058v4.866h5.788v2.033h-5.788v6.313h7.94v2.152
			h-10.331V22.906h10.462v2.152H368.035z"/>
		<path stroke="#000000" stroke-width="0.25" stroke-miterlimit="10" d="M393.409,40.423v-8.107c0-2.017-0.873-3.025-2.619-3.025
			c-0.55,0-1.064,0.169-1.542,0.508c-0.479,0.339-0.806,0.724-0.98,1.154v9.47h-2.272v-9.1c0-0.629-0.237-1.125-0.711-1.488
			c-0.475-0.363-1.103-0.544-1.884-0.544c-0.454,0-0.938,0.176-1.452,0.526c-0.515,0.351-0.879,0.737-1.095,1.16v9.446h-2.271
			V27.617h1.482l0.754,1.483c0.876-1.148,1.973-1.722,3.288-1.722c1.833,0,3.116,0.57,3.85,1.71c0.255-0.486,0.729-0.893,1.423-1.22
			c0.694-0.327,1.407-0.49,2.141-0.49c1.323,0,2.348,0.393,3.073,1.178c0.726,0.786,1.088,1.888,1.088,3.306v8.562H393.409z"/>
		<path stroke="#000000" stroke-width="0.25" stroke-miterlimit="10" d="M401.181,39.717v5.728h-2.271V27.617h2.271v1.052
			c0.861-0.861,1.901-1.292,3.121-1.292c1.817,0,3.232,0.566,4.245,1.698c1.012,1.132,1.519,2.79,1.519,4.974
			c0,1.945-0.511,3.533-1.531,4.765c-1.02,1.232-2.495,1.848-4.424,1.848c-0.542,0-1.122-0.096-1.739-0.287
			C401.753,40.184,401.356,39.964,401.181,39.717z M401.181,30.379v7.461c0.144,0.215,0.446,0.42,0.909,0.616
			c0.462,0.195,0.912,0.293,1.351,0.293c2.822,0,4.233-1.594,4.233-4.783c0-1.618-0.335-2.802-1.005-3.551
			c-0.669-0.749-1.741-1.124-3.216-1.124c-0.319,0-0.71,0.112-1.172,0.335C401.818,29.849,401.452,30.1,401.181,30.379z"/>
		<path stroke="#000000" stroke-width="0.25" stroke-miterlimit="10" d="M412.731,36.8V22.368h2.271v14.049
			c0,0.686,0.197,1.226,0.592,1.621c0.395,0.395,0.911,0.592,1.549,0.592v2.033C414.202,40.662,412.731,39.375,412.731,36.8z"/>
		<path stroke="#000000" stroke-width="0.25" stroke-miterlimit="10" d="M418.938,33.99c0-1.977,0.532-3.573,1.596-4.789
			c1.064-1.216,2.466-1.824,4.203-1.824c1.834,0,3.257,0.584,4.269,1.752c1.013,1.168,1.519,2.788,1.519,4.86
			c0,2.065-0.518,3.693-1.554,4.885c-1.037,1.192-2.447,1.788-4.233,1.788c-1.825,0-3.248-0.602-4.269-1.806
			S418.938,36.031,418.938,33.99z M421.329,33.99c0,3.213,1.136,4.819,3.407,4.819c1.061,0,1.892-0.43,2.493-1.292
			c0.602-0.861,0.903-2.037,0.903-3.527c0-3.172-1.133-4.759-3.396-4.759c-1.036,0-1.863,0.423-2.48,1.268
			C421.638,31.343,421.329,32.507,421.329,33.99z"/>
		<path stroke="#000000" stroke-width="0.25" stroke-miterlimit="10" d="M434.015,40.423V29.53h-1.757v-1.913h4.029v12.806H434.015z
			 M435.259,22.774c0.391,0,0.724,0.138,0.998,0.413c0.275,0.275,0.413,0.604,0.413,0.986c0,0.391-0.138,0.724-0.413,0.999
			c-0.274,0.275-0.607,0.413-0.998,0.413c-0.383,0-0.712-0.138-0.986-0.413c-0.275-0.275-0.413-0.607-0.413-0.999
			c0-0.39,0.136-0.721,0.407-0.992C434.537,22.91,434.868,22.774,435.259,22.774z"/>
		<path stroke="#000000" stroke-width="0.25" stroke-miterlimit="10" d="M458.061,34.241h-9.23c0,1.499,0.41,2.65,1.231,3.456
			c0.726,0.701,1.658,1.052,2.798,1.052c1.299,0,2.384-0.379,3.252-1.136l0.957,1.638c-0.351,0.351-0.889,0.654-1.614,0.909
			c-0.909,0.335-1.921,0.502-3.037,0.502c-1.61,0-2.978-0.546-4.102-1.638c-1.251-1.204-1.877-2.822-1.877-4.854
			c0-2.112,0.642-3.807,1.925-5.082c1.148-1.14,2.507-1.71,4.077-1.71c1.826,0,3.257,0.514,4.293,1.542
			c1.005,0.989,1.507,2.3,1.507,3.934C458.24,33.356,458.181,33.818,458.061,34.241z M452.549,29.291
			c-1.013,0-1.861,0.327-2.547,0.98c-0.654,0.622-1.024,1.396-1.112,2.32h7.091c0-0.917-0.287-1.682-0.861-2.296
			C454.489,29.625,453.633,29.291,452.549,29.291z"/>
		<path stroke="#000000" stroke-width="0.25" stroke-miterlimit="10" d="M461.445,29.41h-1.483v-1.793h1.483v-2.678l2.271-0.873
			v3.551h3.516v1.793h-3.516v6.361c0,1.076,0.182,1.841,0.544,2.296c0.362,0.454,0.946,0.682,1.752,0.682
			c0.582,0,1.184-0.147,1.806-0.442l0.335,1.997c-0.941,0.239-1.974,0.359-3.098,0.359c-1.012,0-1.867-0.377-2.564-1.13
			c-0.697-0.753-1.046-1.704-1.046-2.852V29.41z"/>
		<path stroke="#000000" stroke-width="0.25" stroke-miterlimit="10" d="M485.838,40.411v-0.945
			c-0.789,0.789-1.938,1.184-3.444,1.184c-1.602,0-2.901-0.574-3.897-1.722c-0.997-1.148-1.495-2.678-1.495-4.592
			c0-1.921,0.574-3.561,1.722-4.92c1.148-1.359,2.516-2.039,4.102-2.039c1.323,0,2.328,0.311,3.014,0.933v-5.942h2.271v18.043
			H485.838z M485.838,30.582c-0.574-0.861-1.359-1.292-2.355-1.292c-1.22,0-2.206,0.455-2.96,1.363
			c-0.753,0.909-1.13,2.065-1.13,3.468c0,3.085,1.403,4.627,4.209,4.627c0.358,0,0.789-0.114,1.291-0.341
			c0.503-0.228,0.817-0.468,0.945-0.724V30.582z"/>
		<path stroke="#000000" stroke-width="0.25" stroke-miterlimit="10" d="M502.146,34.241h-9.23c0,1.499,0.41,2.65,1.231,3.456
			c0.726,0.701,1.658,1.052,2.798,1.052c1.299,0,2.384-0.379,3.252-1.136l0.957,1.638c-0.351,0.351-0.889,0.654-1.614,0.909
			c-0.909,0.335-1.921,0.502-3.037,0.502c-1.61,0-2.978-0.546-4.102-1.638c-1.251-1.204-1.877-2.822-1.877-4.854
			c0-2.112,0.642-3.807,1.925-5.082c1.148-1.14,2.507-1.71,4.077-1.71c1.826,0,3.257,0.514,4.293,1.542
			c1.005,0.989,1.507,2.3,1.507,3.934C502.326,33.356,502.267,33.818,502.146,34.241z M496.635,29.291
			c-1.013,0-1.861,0.327-2.547,0.98c-0.654,0.622-1.024,1.396-1.112,2.32h7.091c0-0.917-0.287-1.682-0.861-2.296
			C498.575,29.625,497.719,29.291,496.635,29.291z"/>
		<path stroke="#000000" stroke-width="0.25" stroke-miterlimit="10" d="M512.275,36.8V22.368h2.271v14.049
			c0,0.686,0.197,1.226,0.592,1.621c0.395,0.395,0.911,0.592,1.549,0.592v2.033C513.746,40.662,512.275,39.375,512.275,36.8z"/>
		<path stroke="#000000" stroke-width="0.25" stroke-miterlimit="10" d="M526.552,38.952c-0.909,1.14-2.3,1.71-4.174,1.71
			c-1.004,0-1.875-0.365-2.612-1.094s-1.105-1.636-1.105-2.72c0-1.299,0.567-2.397,1.703-3.294c1.137-0.897,2.585-1.345,4.347-1.345
			c0.479,0,1.021,0.104,1.626,0.311c0-2.072-0.925-3.109-2.773-3.109c-1.419,0-2.512,0.383-3.276,1.148l-0.957-1.901
			c0.431-0.351,1.026-0.652,1.788-0.903c0.761-0.251,1.488-0.377,2.182-0.377c1.857,0,3.207,0.423,4.048,1.268
			c0.841,0.845,1.262,2.188,1.262,4.03v4.591c0,1.124,0.334,1.874,1.004,2.248v1.136c-0.925,0-1.616-0.131-2.074-0.395
			C527.079,39.992,526.751,39.558,526.552,38.952z M526.336,34.133c-0.717-0.159-1.22-0.239-1.507-0.239
			c-1.147,0-2.084,0.295-2.81,0.885s-1.088,1.287-1.088,2.092c0,1.332,0.785,1.997,2.355,1.997c1.147,0,2.164-0.546,3.049-1.638
			V34.133z"/>
		<path stroke="#000000" stroke-width="0.25" stroke-miterlimit="10" d="M538.951,39.622l0.872-2.2
			c0.446,0.327,1.003,0.6,1.668,0.819c0.666,0.219,1.262,0.329,1.788,0.329c0.933,0,1.682-0.255,2.248-0.765
			c0.565-0.51,0.849-1.16,0.849-1.949c0-0.589-0.157-1.138-0.473-1.644c-0.314-0.506-1.105-1.058-2.373-1.656l-1.411-0.658
			c-1.195-0.558-2.03-1.22-2.505-1.985s-0.711-1.686-0.711-2.762c0-1.307,0.462-2.392,1.387-3.252s2.112-1.291,3.563-1.291
			c1.937,0,3.284,0.315,4.041,0.944l-0.705,2.081c-0.319-0.231-0.806-0.455-1.459-0.669c-0.653-0.215-1.26-0.323-1.817-0.323
			c-0.813,0-1.453,0.231-1.919,0.693c-0.467,0.462-0.7,1.056-0.7,1.782c0,0.446,0.084,0.853,0.251,1.219
			c0.168,0.367,0.401,0.674,0.7,0.921s0.91,0.594,1.835,1.04l1.436,0.682c1.195,0.566,2.034,1.242,2.517,2.027
			s0.724,1.784,0.724,2.995c0,1.315-0.528,2.432-1.585,3.348c-1.056,0.917-2.469,1.375-4.238,1.375
			C541.378,40.722,540.051,40.355,538.951,39.622z"/>
		<path stroke="#000000" stroke-width="0.25" stroke-miterlimit="10" d="M562.124,34.241h-9.23c0,1.499,0.41,2.65,1.231,3.456
			c0.726,0.701,1.658,1.052,2.798,1.052c1.299,0,2.384-0.379,3.252-1.136l0.957,1.638c-0.351,0.351-0.889,0.654-1.614,0.909
			c-0.909,0.335-1.921,0.502-3.037,0.502c-1.61,0-2.978-0.546-4.102-1.638c-1.251-1.204-1.877-2.822-1.877-4.854
			c0-2.112,0.642-3.807,1.925-5.082c1.148-1.14,2.507-1.71,4.077-1.71c1.826,0,3.257,0.514,4.293,1.542
			c1.005,0.989,1.507,2.3,1.507,3.934C562.304,33.356,562.244,33.818,562.124,34.241z M556.612,29.291
			c-1.013,0-1.861,0.327-2.547,0.98c-0.654,0.622-1.024,1.396-1.112,2.32h7.091c0-0.917-0.287-1.682-0.861-2.296
			C558.553,29.625,557.696,29.291,556.612,29.291z M559.577,21.076l-2.702,3.982h-1.674l2.021-3.982H559.577z"/>
		<path stroke="#000000" stroke-width="0.25" stroke-miterlimit="10" d="M574.356,28.657l-1.124,1.602
			c-0.231-0.231-0.64-0.45-1.226-0.658c-0.586-0.207-1.162-0.311-1.728-0.311c-1.235,0-2.216,0.433-2.941,1.297
			c-0.726,0.865-1.088,2.051-1.088,3.558c0,1.499,0.37,2.641,1.111,3.426c0.742,0.785,1.771,1.178,3.085,1.178
			c1.021,0,2.049-0.395,3.085-1.184l0.897,1.913c-1.22,0.79-2.73,1.184-4.532,1.184c-1.745,0-3.188-0.586-4.328-1.758
			c-1.141-1.172-1.71-2.758-1.71-4.759c0-2.041,0.592-3.679,1.775-4.915c1.184-1.235,2.804-1.854,4.86-1.854
			c0.662,0,1.379,0.14,2.152,0.418C573.42,28.075,573.99,28.362,574.356,28.657z"/>
		<path stroke="#000000" stroke-width="0.25" stroke-miterlimit="10" d="M578.972,27.617v8.167c0,1.977,0.856,2.965,2.57,2.965
			c0.75,0,1.436-0.215,2.057-0.646c0.622-0.43,1.032-0.928,1.232-1.495v-8.992h2.271v12.806h-2.271v-1.77
			c-0.256,0.502-0.768,0.962-1.537,1.381s-1.521,0.628-2.254,0.628c-1.403,0-2.478-0.402-3.223-1.208
			c-0.745-0.805-1.117-1.949-1.117-3.432v-8.406H578.972z"/>
		<path stroke="#000000" stroke-width="0.25" stroke-miterlimit="10" d="M597.158,29.805c-0.494-0.342-0.992-0.514-1.494-0.514
			c-0.806,0-1.509,0.371-2.111,1.112c-0.602,0.741-0.902,1.634-0.902,2.678v7.342h-2.271V27.617h2.271v2.045
			c0.829-1.522,2.061-2.284,3.694-2.284c0.407,0,0.993,0.072,1.758,0.215L597.158,29.805z"/>
		<path stroke="#000000" stroke-width="0.25" stroke-miterlimit="10" d="M600.817,40.423V29.53h-1.757v-1.913h4.029v12.806H600.817z
			 M602.062,22.774c0.391,0,0.724,0.138,0.998,0.413c0.275,0.275,0.413,0.604,0.413,0.986c0,0.391-0.138,0.724-0.413,0.999
			c-0.274,0.275-0.607,0.413-0.998,0.413c-0.383,0-0.712-0.138-0.986-0.413c-0.275-0.275-0.413-0.607-0.413-0.999
			c0-0.39,0.136-0.721,0.407-0.992C601.34,22.91,601.671,22.774,602.062,22.774z"/>
		<path stroke="#000000" stroke-width="0.25" stroke-miterlimit="10" d="M607.514,29.41h-1.483v-1.793h1.483v-2.678l2.271-0.873
			v3.551h3.516v1.793h-3.516v6.361c0,1.076,0.182,1.841,0.544,2.296c0.362,0.454,0.946,0.682,1.752,0.682
			c0.582,0,1.184-0.147,1.806-0.442l0.335,1.997c-0.941,0.239-1.974,0.359-3.098,0.359c-1.012,0-1.867-0.377-2.564-1.13
			c-0.697-0.753-1.046-1.704-1.046-2.852V29.41z"/>
		<path stroke="#000000" stroke-width="0.25" stroke-miterlimit="10" d="M627.194,34.241h-9.23c0,1.499,0.41,2.65,1.231,3.456
			c0.726,0.701,1.658,1.052,2.798,1.052c1.299,0,2.384-0.379,3.252-1.136l0.957,1.638c-0.351,0.351-0.889,0.654-1.614,0.909
			c-0.909,0.335-1.921,0.502-3.037,0.502c-1.61,0-2.978-0.546-4.102-1.638c-1.251-1.204-1.877-2.822-1.877-4.854
			c0-2.112,0.642-3.807,1.925-5.082c1.148-1.14,2.507-1.71,4.077-1.71c1.826,0,3.257,0.514,4.293,1.542
			c1.005,0.989,1.507,2.3,1.507,3.934C627.374,33.356,627.314,33.818,627.194,34.241z M621.683,29.291
			c-1.013,0-1.861,0.327-2.547,0.98c-0.654,0.622-1.024,1.396-1.112,2.32h7.091c0-0.917-0.287-1.682-0.861-2.296
			C623.623,29.625,622.767,29.291,621.683,29.291z M624.647,21.076l-2.702,3.982h-1.674l2.021-3.982H624.647z"/>
		<path stroke="#000000" stroke-width="0.25" stroke-miterlimit="10" d="M636.534,39.622l0.872-2.2
			c0.446,0.327,1.003,0.6,1.668,0.819c0.666,0.219,1.262,0.329,1.788,0.329c0.933,0,1.682-0.255,2.248-0.765
			c0.565-0.51,0.849-1.16,0.849-1.949c0-0.589-0.157-1.138-0.473-1.644c-0.314-0.506-1.105-1.058-2.373-1.656l-1.411-0.658
			c-1.195-0.558-2.03-1.22-2.505-1.985s-0.711-1.686-0.711-2.762c0-1.307,0.462-2.392,1.387-3.252s2.112-1.291,3.563-1.291
			c1.937,0,3.284,0.315,4.041,0.944l-0.705,2.081c-0.319-0.231-0.806-0.455-1.459-0.669c-0.653-0.215-1.26-0.323-1.817-0.323
			c-0.813,0-1.453,0.231-1.919,0.693c-0.467,0.462-0.7,1.056-0.7,1.782c0,0.446,0.084,0.853,0.251,1.219
			c0.168,0.367,0.401,0.674,0.7,0.921s0.91,0.594,1.835,1.04l1.436,0.682c1.195,0.566,2.034,1.242,2.517,2.027
			s0.724,1.784,0.724,2.995c0,1.315-0.528,2.432-1.585,3.348c-1.056,0.917-2.469,1.375-4.238,1.375
			C638.961,40.722,637.634,40.355,636.534,39.622z"/>
		<path stroke="#000000" stroke-width="0.25" stroke-miterlimit="10" d="M648.084,33.99c0-1.977,0.532-3.573,1.596-4.789
			c1.064-1.216,2.466-1.824,4.203-1.824c1.834,0,3.257,0.584,4.269,1.752c1.013,1.168,1.519,2.788,1.519,4.86
			c0,2.065-0.518,3.693-1.554,4.885c-1.037,1.192-2.447,1.788-4.233,1.788c-1.825,0-3.248-0.602-4.269-1.806
			S648.084,36.031,648.084,33.99z M650.476,33.99c0,3.213,1.136,4.819,3.407,4.819c1.061,0,1.892-0.43,2.493-1.292
			c0.602-0.861,0.903-2.037,0.903-3.527c0-3.172-1.133-4.759-3.396-4.759c-1.036,0-1.863,0.423-2.48,1.268
			C650.784,31.343,650.476,32.507,650.476,33.99z"/>
		<path stroke="#000000" stroke-width="0.25" stroke-miterlimit="10" d="M671.724,28.657l-1.124,1.602
			c-0.231-0.231-0.64-0.45-1.226-0.658c-0.586-0.207-1.162-0.311-1.728-0.311c-1.235,0-2.216,0.433-2.941,1.297
			c-0.726,0.865-1.088,2.051-1.088,3.558c0,1.499,0.37,2.641,1.111,3.426c0.742,0.785,1.771,1.178,3.085,1.178
			c1.021,0,2.049-0.395,3.085-1.184l0.897,1.913c-1.22,0.79-2.73,1.184-4.532,1.184c-1.745,0-3.188-0.586-4.328-1.758
			c-1.141-1.172-1.71-2.758-1.71-4.759c0-2.041,0.592-3.679,1.775-4.915c1.184-1.235,2.804-1.854,4.86-1.854
			c0.662,0,1.379,0.14,2.152,0.418C670.787,28.075,671.357,28.362,671.724,28.657z"/>
		<path stroke="#000000" stroke-width="0.25" stroke-miterlimit="10" d="M675.286,40.423V29.53h-1.757v-1.913h4.029v12.806H675.286z
			 M676.53,22.774c0.391,0,0.724,0.138,0.998,0.413c0.275,0.275,0.413,0.604,0.413,0.986c0,0.391-0.138,0.724-0.413,0.999
			c-0.274,0.275-0.607,0.413-0.998,0.413c-0.383,0-0.712-0.138-0.986-0.413c-0.275-0.275-0.413-0.607-0.413-0.999
			c0-0.39,0.136-0.721,0.407-0.992C675.809,22.91,676.14,22.774,676.53,22.774z"/>
		<path stroke="#000000" stroke-width="0.25" stroke-miterlimit="10" d="M688.404,38.952c-0.909,1.14-2.3,1.71-4.174,1.71
			c-1.004,0-1.875-0.365-2.612-1.094s-1.105-1.636-1.105-2.72c0-1.299,0.567-2.397,1.703-3.294c1.137-0.897,2.585-1.345,4.347-1.345
			c0.479,0,1.021,0.104,1.626,0.311c0-2.072-0.925-3.109-2.773-3.109c-1.419,0-2.512,0.383-3.276,1.148l-0.957-1.901
			c0.431-0.351,1.026-0.652,1.788-0.903c0.761-0.251,1.488-0.377,2.182-0.377c1.857,0,3.207,0.423,4.048,1.268
			c0.841,0.845,1.262,2.188,1.262,4.03v4.591c0,1.124,0.334,1.874,1.004,2.248v1.136c-0.925,0-1.616-0.131-2.074-0.395
			C688.932,39.992,688.604,39.558,688.404,38.952z M688.188,34.133c-0.717-0.159-1.22-0.239-1.507-0.239
			c-1.147,0-2.084,0.295-2.81,0.885s-1.088,1.287-1.088,2.092c0,1.332,0.785,1.997,2.355,1.997c1.147,0,2.164-0.546,3.049-1.638
			V34.133z"/>
		<path stroke="#000000" stroke-width="0.25" stroke-miterlimit="10" d="M694.215,36.8V22.368h2.271v14.049
			c0,0.686,0.197,1.226,0.592,1.621c0.395,0.395,0.911,0.592,1.549,0.592v2.033C695.686,40.662,694.215,39.375,694.215,36.8z"/>
		<path stroke="#000000" stroke-width="0.25" stroke-miterlimit="10" d="M712.043,34.241h-9.23c0,1.499,0.41,2.65,1.231,3.456
			c0.726,0.701,1.658,1.052,2.798,1.052c1.299,0,2.384-0.379,3.252-1.136l0.957,1.638c-0.351,0.351-0.889,0.654-1.614,0.909
			c-0.909,0.335-1.921,0.502-3.037,0.502c-1.61,0-2.978-0.546-4.102-1.638c-1.251-1.204-1.877-2.822-1.877-4.854
			c0-2.112,0.642-3.807,1.925-5.082c1.148-1.14,2.507-1.71,4.077-1.71c1.826,0,3.257,0.514,4.293,1.542
			c1.005,0.989,1.507,2.3,1.507,3.934C712.223,33.356,712.163,33.818,712.043,34.241z M706.531,29.291
			c-1.013,0-1.861,0.327-2.547,0.98c-0.654,0.622-1.024,1.396-1.112,2.32h7.091c0-0.917-0.287-1.682-0.861-2.296
			C708.472,29.625,707.615,29.291,706.531,29.291z"/>
		<path stroke="#000000" stroke-width="0.25" stroke-miterlimit="10" d="M201.724,60.283l-0.801,2.045
			c-0.765-0.558-1.969-0.837-3.611-0.837c-1.539,0-2.772,0.662-3.701,1.984c-0.929,1.324-1.393,3.03-1.393,5.118
			c0,1.993,0.476,3.609,1.429,4.849c0.953,1.24,2.182,1.859,3.689,1.859c1.642,0,2.905-0.582,3.79-1.745l1.315,1.829
			c-1.387,1.379-3.173,2.068-5.357,2.068c-2.288,0-4.089-0.825-5.404-2.475c-1.315-1.65-1.973-3.827-1.973-6.529
			c0-2.614,0.701-4.787,2.104-6.517c1.403-1.729,3.216-2.595,5.44-2.595C199.157,59.339,200.647,59.654,201.724,60.283z"/>
		<path stroke="#000000" stroke-width="0.25" stroke-miterlimit="10" d="M212.246,75.685c-0.909,1.14-2.3,1.71-4.173,1.71
			c-1.004,0-1.875-0.365-2.613-1.094c-0.737-0.729-1.106-1.637-1.106-2.721c0-1.299,0.568-2.397,1.704-3.294
			c1.136-0.897,2.584-1.346,4.346-1.346c0.479,0,1.021,0.104,1.626,0.312c0-2.073-0.925-3.109-2.774-3.109
			c-1.419,0-2.511,0.383-3.276,1.148l-0.957-1.901c0.431-0.352,1.026-0.652,1.788-0.903s1.489-0.377,2.182-0.377
			c1.857,0,3.207,0.423,4.048,1.268c0.841,0.846,1.261,2.188,1.261,4.03v4.592c0,1.123,0.335,1.873,1.004,2.247v1.137
			c-0.925,0-1.616-0.132-2.074-0.395C212.774,76.725,212.445,76.29,212.246,75.685z M212.031,70.866
			c-0.718-0.16-1.22-0.239-1.507-0.239c-1.148,0-2.084,0.295-2.81,0.885c-0.725,0.59-1.088,1.287-1.088,2.092
			c0,1.332,0.785,1.997,2.355,1.997c1.148,0,2.164-0.546,3.049-1.638V70.866z"/>
		<path stroke="#000000" stroke-width="0.25" stroke-miterlimit="10" d="M218.978,77.155V66.263h-1.758v-1.914h4.03v12.807H218.978z
			 M220.221,59.506c0.39,0,0.723,0.138,0.998,0.413c0.275,0.274,0.413,0.604,0.413,0.986c0,0.391-0.137,0.724-0.413,0.998
			c-0.275,0.275-0.608,0.413-0.998,0.413c-0.383,0-0.711-0.138-0.987-0.413c-0.275-0.274-0.413-0.607-0.413-0.998
			s0.136-0.722,0.407-0.992C219.5,59.642,219.831,59.506,220.221,59.506z"/>
		<path stroke="#000000" stroke-width="0.25" stroke-miterlimit="10" d="M224.024,76.39l0.801-2.152
			c1.268,0.829,2.288,1.244,3.061,1.244c1.403,0,2.104-0.59,2.104-1.77c0-0.845-0.677-1.57-2.033-2.177
			c-1.044-0.479-1.748-0.841-2.11-1.088s-0.678-0.528-0.944-0.843c-0.268-0.315-0.466-0.649-0.598-1.005
			c-0.131-0.354-0.197-0.735-0.197-1.142c0-1.052,0.383-1.873,1.148-2.464c0.765-0.589,1.766-0.885,3.001-0.885
			c0.933,0,2.108,0.296,3.527,0.885l-0.646,2.105c-0.901-0.718-1.805-1.076-2.714-1.076c-0.542,0-0.998,0.127-1.369,0.383
			c-0.371,0.255-0.556,0.577-0.556,0.968c0,0.821,0.466,1.443,1.399,1.865l1.626,0.742c0.997,0.454,1.722,0.973,2.176,1.554
			c0.455,0.582,0.682,1.312,0.682,2.188c0,1.147-0.403,2.047-1.208,2.696c-0.805,0.649-1.921,0.975-3.348,0.975
			C226.479,77.395,225.211,77.06,224.024,76.39z"/>
		<path stroke="#000000" stroke-width="0.25" stroke-miterlimit="10" d="M233.936,76.39l0.801-2.152
			c1.268,0.829,2.288,1.244,3.061,1.244c1.403,0,2.104-0.59,2.104-1.77c0-0.845-0.677-1.57-2.033-2.177
			c-1.044-0.479-1.748-0.841-2.11-1.088s-0.678-0.528-0.944-0.843c-0.268-0.315-0.466-0.649-0.598-1.005
			c-0.131-0.354-0.197-0.735-0.197-1.142c0-1.052,0.383-1.873,1.148-2.464c0.765-0.589,1.766-0.885,3.001-0.885
			c0.933,0,2.108,0.296,3.527,0.885L241.05,67.1c-0.901-0.718-1.805-1.076-2.714-1.076c-0.542,0-0.998,0.127-1.369,0.383
			c-0.371,0.255-0.556,0.577-0.556,0.968c0,0.821,0.466,1.443,1.399,1.865l1.626,0.742c0.997,0.454,1.722,0.973,2.176,1.554
			c0.455,0.582,0.682,1.312,0.682,2.188c0,1.147-0.403,2.047-1.208,2.696c-0.805,0.649-1.921,0.975-3.348,0.975
			C236.391,77.395,235.124,77.06,233.936,76.39z"/>
		<path stroke="#000000" stroke-width="0.25" stroke-miterlimit="10" d="M255.471,70.974h-9.231c0,1.499,0.411,2.65,1.232,3.455
			c0.725,0.702,1.658,1.053,2.798,1.053c1.299,0,2.383-0.379,3.252-1.136l0.957,1.638c-0.351,0.351-0.889,0.653-1.614,0.909
			c-0.909,0.334-1.921,0.502-3.037,0.502c-1.61,0-2.978-0.546-4.102-1.639c-1.251-1.203-1.877-2.821-1.877-4.854
			c0-2.112,0.642-3.806,1.925-5.081c1.148-1.141,2.507-1.711,4.078-1.711c1.825,0,3.256,0.515,4.292,1.543
			c1.004,0.988,1.507,2.3,1.507,3.934C255.65,70.089,255.59,70.551,255.471,70.974z M249.958,66.023
			c-1.012,0-1.861,0.327-2.547,0.98c-0.654,0.621-1.024,1.395-1.112,2.319h7.09c0-0.916-0.287-1.682-0.861-2.296
			C251.899,66.358,251.042,66.023,249.958,66.023z"/>
		<path stroke="#000000" stroke-width="0.25" stroke-miterlimit="10" d="M276.922,77.395l-9.052-12.807v12.567h-2.272V59.638h0.957
			l8.813,12.113V59.638h2.272v17.757H276.922z"/>
		<path stroke="#000000" stroke-width="0.25" stroke-miterlimit="10" d="M288.281,75.685c-0.909,1.14-2.3,1.71-4.173,1.71
			c-1.004,0-1.875-0.365-2.613-1.094c-0.737-0.729-1.106-1.637-1.106-2.721c0-1.299,0.568-2.397,1.704-3.294
			c1.136-0.897,2.584-1.346,4.346-1.346c0.479,0,1.021,0.104,1.626,0.312c0-2.073-0.925-3.109-2.774-3.109
			c-1.419,0-2.511,0.383-3.276,1.148l-0.957-1.901c0.431-0.352,1.026-0.652,1.788-0.903s1.489-0.377,2.182-0.377
			c1.857,0,3.207,0.423,4.048,1.268c0.841,0.846,1.261,2.188,1.261,4.03v4.592c0,1.123,0.335,1.873,1.004,2.247v1.137
			c-0.925,0-1.616-0.132-2.074-0.395C288.81,76.725,288.48,76.29,288.281,75.685z M288.066,70.866
			c-0.718-0.16-1.22-0.239-1.507-0.239c-1.148,0-2.084,0.295-2.81,0.885c-0.725,0.59-1.088,1.287-1.088,2.092
			c0,1.332,0.785,1.997,2.355,1.997c1.148,0,2.164-0.546,3.049-1.638V70.866z"/>
		<path stroke="#000000" stroke-width="0.25" stroke-miterlimit="10" d="M294.726,66.143h-1.482v-1.794h1.482v-2.678l2.272-0.873
			v3.551h3.515v1.794h-3.515v6.361c0,1.076,0.181,1.842,0.544,2.296s0.946,0.682,1.752,0.682c0.582,0,1.184-0.147,1.805-0.442
			l0.335,1.997c-0.941,0.238-1.973,0.358-3.097,0.358c-1.013,0-1.868-0.377-2.565-1.13c-0.698-0.754-1.046-1.704-1.046-2.852V66.143
			z"/>
		<path stroke="#000000" stroke-width="0.25" stroke-miterlimit="10" d="M304.723,77.155V66.263h-1.758v-1.914h4.03v12.807H304.723z
			 M305.966,59.506c0.39,0,0.723,0.138,0.998,0.413c0.275,0.274,0.413,0.604,0.413,0.986c0,0.391-0.137,0.724-0.413,0.998
			c-0.275,0.275-0.608,0.413-0.998,0.413c-0.383,0-0.711-0.138-0.987-0.413c-0.275-0.274-0.413-0.607-0.413-0.998
			s0.136-0.722,0.407-0.992C305.245,59.642,305.576,59.506,305.966,59.506z"/>
		<path stroke="#000000" stroke-width="0.25" stroke-miterlimit="10" d="M309.769,70.723c0-1.978,0.532-3.573,1.596-4.789
			c1.064-1.216,2.465-1.824,4.203-1.824c1.833,0,3.256,0.584,4.269,1.752c1.012,1.168,1.519,2.788,1.519,4.861
			c0,2.064-0.519,3.692-1.555,4.884c-1.036,1.192-2.447,1.788-4.232,1.788c-1.826,0-3.249-0.602-4.269-1.806
			C310.278,74.386,309.769,72.763,309.769,70.723z M312.16,70.723c0,3.212,1.136,4.818,3.408,4.818c1.06,0,1.891-0.431,2.493-1.291
			c0.602-0.861,0.903-2.037,0.903-3.527c0-3.173-1.132-4.76-3.396-4.76c-1.037,0-1.864,0.423-2.481,1.268
			C312.469,68.076,312.16,69.239,312.16,70.723z"/>
		<path stroke="#000000" stroke-width="0.25" stroke-miterlimit="10" d="M331.626,77.155v-7.449c0-1.363-0.206-2.317-0.616-2.864
			c-0.411-0.546-1.099-0.818-2.063-0.818c-0.518,0-1.06,0.155-1.626,0.466c-0.566,0.312-1,0.693-1.303,1.148v9.518h-2.272V64.349
			h1.554l0.718,1.65c0.749-1.26,1.973-1.89,3.671-1.89c2.806,0,4.208,1.707,4.208,5.118v7.928H331.626z"/>
		<path stroke="#000000" stroke-width="0.25" stroke-miterlimit="10" d="M344.36,75.685c-0.909,1.14-2.3,1.71-4.173,1.71
			c-1.004,0-1.875-0.365-2.613-1.094c-0.737-0.729-1.106-1.637-1.106-2.721c0-1.299,0.568-2.397,1.704-3.294
			c1.136-0.897,2.584-1.346,4.346-1.346c0.479,0,1.021,0.104,1.626,0.312c0-2.073-0.925-3.109-2.774-3.109
			c-1.419,0-2.511,0.383-3.276,1.148l-0.957-1.901c0.431-0.352,1.026-0.652,1.788-0.903s1.489-0.377,2.182-0.377
			c1.857,0,3.207,0.423,4.048,1.268c0.841,0.846,1.261,2.188,1.261,4.03v4.592c0,1.123,0.335,1.873,1.004,2.247v1.137
			c-0.925,0-1.616-0.132-2.074-0.395C344.889,76.725,344.56,76.29,344.36,75.685z M344.146,70.866
			c-0.718-0.16-1.22-0.239-1.507-0.239c-1.148,0-2.084,0.295-2.81,0.885c-0.725,0.59-1.088,1.287-1.088,2.092
			c0,1.332,0.785,1.997,2.355,1.997c1.148,0,2.164-0.546,3.049-1.638V70.866z"/>
		<path stroke="#000000" stroke-width="0.25" stroke-miterlimit="10" d="M350.171,73.532V59.1h2.272v14.05
			c0,0.686,0.197,1.226,0.592,1.62s0.911,0.592,1.549,0.592v2.033C351.642,77.395,350.171,76.107,350.171,73.532z"/>
		<path stroke="#000000" stroke-width="0.25" stroke-miterlimit="10" d="M367.999,70.974h-9.23c0,1.499,0.41,2.65,1.231,3.455
			c0.726,0.702,1.658,1.053,2.798,1.053c1.299,0,2.384-0.379,3.252-1.136l0.957,1.638c-0.351,0.351-0.889,0.653-1.614,0.909
			c-0.909,0.334-1.921,0.502-3.037,0.502c-1.61,0-2.978-0.546-4.102-1.639c-1.251-1.203-1.877-2.821-1.877-4.854
			c0-2.112,0.642-3.806,1.925-5.081c1.148-1.141,2.507-1.711,4.077-1.711c1.826,0,3.257,0.515,4.293,1.543
			c1.005,0.988,1.507,2.3,1.507,3.934C368.179,70.089,368.119,70.551,367.999,70.974z M362.487,66.023
			c-1.013,0-1.861,0.327-2.547,0.98c-0.654,0.621-1.024,1.395-1.112,2.319h7.091c0-0.916-0.287-1.682-0.861-2.296
			C364.428,66.358,363.571,66.023,362.487,66.023z"/>
		<path stroke="#000000" stroke-width="0.25" stroke-miterlimit="10" d="M386.067,77.144v-0.945
			c-0.789,0.79-1.938,1.185-3.444,1.185c-1.602,0-2.901-0.574-3.897-1.723c-0.997-1.147-1.495-2.678-1.495-4.591
			c0-1.921,0.574-3.562,1.722-4.921c1.148-1.359,2.516-2.039,4.102-2.039c1.323,0,2.328,0.312,3.014,0.933V59.1h2.271v18.044
			H386.067z M386.067,67.314c-0.574-0.86-1.359-1.291-2.355-1.291c-1.22,0-2.206,0.454-2.96,1.363
			c-0.753,0.908-1.13,2.064-1.13,3.467c0,3.085,1.403,4.628,4.209,4.628c0.358,0,0.789-0.113,1.291-0.341
			c0.503-0.228,0.817-0.469,0.945-0.724V67.314z"/>
		<path stroke="#000000" stroke-width="0.25" stroke-miterlimit="10" d="M396.326,61.216c0,2.113-1.057,3.835-3.169,5.166
			l-0.801-1.063l0.896-0.767c0.438-0.374,0.657-0.832,0.657-1.375c0-0.326-0.195-0.705-0.586-1.136s-0.586-0.825-0.586-1.184
			c0-1.172,0.578-1.758,1.734-1.758C395.708,59.1,396.326,59.806,396.326,61.216z"/>
		<path stroke="#000000" stroke-width="0.25" stroke-miterlimit="10" d="M410.711,77.155l-1.208-3.694h-6.517l-1.291,3.694h-2.679
			l7.114-17.757h0.634l6.601,17.757H410.711z M406.334,63.99l-2.714,7.713h5.201L406.334,63.99z"/>
		<path stroke="#000000" stroke-width="0.25" stroke-miterlimit="10" d="M414.19,76.39l0.801-2.152
			c1.268,0.829,2.288,1.244,3.062,1.244c1.402,0,2.104-0.59,2.104-1.77c0-0.845-0.678-1.57-2.033-2.177
			c-1.044-0.479-1.748-0.841-2.11-1.088s-0.678-0.528-0.944-0.843c-0.268-0.315-0.467-0.649-0.598-1.005
			c-0.132-0.354-0.197-0.735-0.197-1.142c0-1.052,0.382-1.873,1.147-2.464c0.766-0.589,1.766-0.885,3.001-0.885
			c0.933,0,2.108,0.296,3.527,0.885l-0.646,2.105c-0.9-0.718-1.806-1.076-2.714-1.076c-0.542,0-0.999,0.127-1.369,0.383
			c-0.371,0.255-0.557,0.577-0.557,0.968c0,0.821,0.467,1.443,1.399,1.865l1.626,0.742c0.996,0.454,1.722,0.973,2.177,1.554
			c0.454,0.582,0.682,1.312,0.682,2.188c0,1.147-0.403,2.047-1.208,2.696c-0.806,0.649-1.921,0.975-3.349,0.975
			C416.646,77.395,415.378,77.06,414.19,76.39z"/>
		<path stroke="#000000" stroke-width="0.25" stroke-miterlimit="10" d="M424.103,76.39l0.801-2.152
			c1.268,0.829,2.288,1.244,3.062,1.244c1.402,0,2.104-0.59,2.104-1.77c0-0.845-0.678-1.57-2.033-2.177
			c-1.044-0.479-1.748-0.841-2.11-1.088s-0.678-0.528-0.944-0.843c-0.268-0.315-0.467-0.649-0.598-1.005
			c-0.132-0.354-0.197-0.735-0.197-1.142c0-1.052,0.382-1.873,1.147-2.464c0.766-0.589,1.766-0.885,3.001-0.885
			c0.933,0,2.108,0.296,3.527,0.885l-0.646,2.105c-0.9-0.718-1.806-1.076-2.714-1.076c-0.542,0-0.999,0.127-1.369,0.383
			c-0.371,0.255-0.557,0.577-0.557,0.968c0,0.821,0.467,1.443,1.399,1.865l1.626,0.742c0.996,0.454,1.722,0.973,2.177,1.554
			c0.454,0.582,0.682,1.312,0.682,2.188c0,1.147-0.403,2.047-1.208,2.696c-0.806,0.649-1.921,0.975-3.349,0.975
			C426.558,77.395,425.29,77.06,424.103,76.39z"/>
		<path stroke="#000000" stroke-width="0.25" stroke-miterlimit="10" d="M437.005,64.349v8.167c0,1.978,0.856,2.966,2.57,2.966
			c0.75,0,1.436-0.216,2.057-0.646c0.622-0.431,1.032-0.929,1.232-1.495v-8.992h2.271v12.807h-2.271v-1.77
			c-0.256,0.502-0.768,0.963-1.537,1.381c-0.77,0.419-1.521,0.628-2.254,0.628c-1.403,0-2.478-0.402-3.223-1.208
			c-0.745-0.805-1.117-1.949-1.117-3.432v-8.406H437.005z"/>
		<path stroke="#000000" stroke-width="0.25" stroke-miterlimit="10" d="M455.191,66.537c-0.494-0.343-0.992-0.514-1.494-0.514
			c-0.806,0-1.509,0.37-2.111,1.111c-0.602,0.742-0.902,1.635-0.902,2.679v7.342h-2.271V64.349h2.271v2.045
			c0.829-1.522,2.061-2.284,3.694-2.284c0.407,0,0.993,0.072,1.758,0.216L455.191,66.537z"/>
		<path stroke="#000000" stroke-width="0.25" stroke-miterlimit="10" d="M464.984,75.685c-0.909,1.14-2.3,1.71-4.174,1.71
			c-1.004,0-1.875-0.365-2.612-1.094c-0.737-0.729-1.105-1.637-1.105-2.721c0-1.299,0.567-2.397,1.703-3.294
			c1.137-0.897,2.585-1.346,4.347-1.346c0.479,0,1.021,0.104,1.626,0.312c0-2.073-0.925-3.109-2.773-3.109
			c-1.419,0-2.512,0.383-3.276,1.148l-0.957-1.901c0.431-0.352,1.026-0.652,1.788-0.903c0.761-0.251,1.488-0.377,2.182-0.377
			c1.857,0,3.207,0.423,4.048,1.268c0.841,0.846,1.262,2.188,1.262,4.03v4.592c0,1.123,0.334,1.873,1.004,2.247v1.137
			c-0.925,0-1.616-0.132-2.074-0.395C465.512,76.725,465.184,76.29,464.984,75.685z M464.769,70.866
			c-0.717-0.16-1.22-0.239-1.507-0.239c-1.147,0-2.084,0.295-2.81,0.885s-1.088,1.287-1.088,2.092c0,1.332,0.785,1.997,2.355,1.997
			c1.147,0,2.164-0.546,3.049-1.638V70.866z"/>
		<path stroke="#000000" stroke-width="0.25" stroke-miterlimit="10" d="M478.496,77.155v-7.449c0-1.363-0.205-2.317-0.616-2.864
			c-0.41-0.546-1.098-0.818-2.063-0.818c-0.519,0-1.061,0.155-1.626,0.466c-0.566,0.312-1.001,0.693-1.304,1.148v9.518h-2.271
			V64.349h1.555l0.717,1.65c0.75-1.26,1.974-1.89,3.671-1.89c2.806,0,4.209,1.707,4.209,5.118v7.928H478.496z"/>
		<path stroke="#000000" stroke-width="0.25" stroke-miterlimit="10" d="M493.657,65.39l-1.124,1.602
			c-0.231-0.23-0.64-0.45-1.226-0.657s-1.162-0.311-1.728-0.311c-1.235,0-2.216,0.433-2.941,1.297
			c-0.726,0.865-1.088,2.051-1.088,3.558c0,1.499,0.37,2.641,1.111,3.426c0.742,0.785,1.771,1.178,3.085,1.178
			c1.021,0,2.049-0.395,3.085-1.184l0.897,1.913c-1.22,0.789-2.73,1.184-4.532,1.184c-1.745,0-3.188-0.586-4.328-1.758
			c-1.141-1.172-1.71-2.758-1.71-4.759c0-2.041,0.592-3.679,1.775-4.915c1.184-1.235,2.804-1.854,4.86-1.854
			c0.662,0,1.379,0.14,2.152,0.419S493.291,65.095,493.657,65.39z"/>
		<path stroke="#000000" stroke-width="0.25" stroke-miterlimit="10" d="M506.905,70.974h-9.23c0,1.499,0.41,2.65,1.231,3.455
			c0.726,0.702,1.658,1.053,2.798,1.053c1.299,0,2.384-0.379,3.252-1.136l0.957,1.638c-0.351,0.351-0.889,0.653-1.614,0.909
			c-0.909,0.334-1.921,0.502-3.037,0.502c-1.61,0-2.978-0.546-4.102-1.639c-1.251-1.203-1.877-2.821-1.877-4.854
			c0-2.112,0.642-3.806,1.925-5.081c1.148-1.141,2.507-1.711,4.077-1.711c1.826,0,3.257,0.515,4.293,1.543
			c1.005,0.988,1.507,2.3,1.507,3.934C507.085,70.089,507.025,70.551,506.905,70.974z M501.394,66.023
			c-1.013,0-1.861,0.327-2.547,0.98c-0.654,0.621-1.024,1.395-1.112,2.319h7.091c0-0.916-0.287-1.682-0.861-2.296
			C503.334,66.358,502.478,66.023,501.394,66.023z"/>
		<path stroke="#000000" stroke-width="0.25" stroke-miterlimit="10" d="M528.214,60.283l-0.801,2.045
			c-0.766-0.558-1.97-0.837-3.611-0.837c-1.539,0-2.772,0.662-3.701,1.984c-0.929,1.324-1.393,3.03-1.393,5.118
			c0,1.993,0.476,3.609,1.429,4.849c0.952,1.24,2.183,1.859,3.688,1.859c1.643,0,2.906-0.582,3.791-1.745l1.315,1.829
			c-1.388,1.379-3.173,2.068-5.357,2.068c-2.288,0-4.089-0.825-5.404-2.475c-1.315-1.65-1.973-3.827-1.973-6.529
			c0-2.614,0.701-4.787,2.104-6.517c1.403-1.729,3.217-2.595,5.441-2.595C525.646,59.339,527.138,59.654,528.214,60.283z"/>
		<path stroke="#000000" stroke-width="0.25" stroke-miterlimit="10" d="M539.394,77.155v-8.047c0-0.957-0.235-1.71-0.705-2.26
			c-0.471-0.551-1.133-0.825-1.985-0.825c-0.55,0-1.102,0.161-1.656,0.484c-0.554,0.322-0.979,0.699-1.273,1.13v9.518h-2.271V59.1
			h2.271v6.66c0.303-0.47,0.791-0.862,1.465-1.178c0.674-0.314,1.369-0.473,2.087-0.473c1.354,0,2.417,0.447,3.187,1.34
			s1.153,2.112,1.153,3.659v8.047H539.394z"/>
		<path stroke="#000000" stroke-width="0.25" stroke-miterlimit="10" d="M544.045,70.723c0-1.978,0.532-3.573,1.596-4.789
			c1.064-1.216,2.466-1.824,4.203-1.824c1.834,0,3.257,0.584,4.269,1.752c1.013,1.168,1.519,2.788,1.519,4.861
			c0,2.064-0.518,3.692-1.554,4.884c-1.037,1.192-2.447,1.788-4.233,1.788c-1.825,0-3.248-0.602-4.269-1.806
			C544.555,74.386,544.045,72.763,544.045,70.723z M546.437,70.723c0,3.212,1.136,4.818,3.407,4.818
			c1.061,0,1.892-0.431,2.493-1.291c0.602-0.861,0.903-2.037,0.903-3.527c0-3.173-1.133-4.76-3.396-4.76
			c-1.036,0-1.863,0.423-2.48,1.268C546.745,68.076,546.437,69.239,546.437,70.723z"/>
		<path stroke="#000000" stroke-width="0.25" stroke-miterlimit="10" d="M572.85,77.155v-8.107c0-2.017-0.873-3.024-2.619-3.024
			c-0.55,0-1.064,0.169-1.542,0.508c-0.479,0.339-0.806,0.724-0.98,1.154v9.47h-2.272v-9.1c0-0.63-0.237-1.126-0.711-1.488
			c-0.475-0.363-1.103-0.544-1.884-0.544c-0.454,0-0.938,0.175-1.452,0.525c-0.515,0.352-0.879,0.738-1.095,1.16v9.446h-2.271
			V64.349h1.482l0.754,1.483c0.876-1.148,1.973-1.723,3.288-1.723c1.833,0,3.116,0.57,3.85,1.711
			c0.255-0.486,0.729-0.894,1.423-1.221c0.694-0.326,1.407-0.49,2.141-0.49c1.323,0,2.348,0.394,3.073,1.178
			c0.726,0.786,1.088,1.888,1.088,3.307v8.562H572.85z"/>
		<path stroke="#000000" stroke-width="0.25" stroke-miterlimit="10" d="M585.584,75.685c-0.909,1.14-2.3,1.71-4.174,1.71
			c-1.004,0-1.875-0.365-2.612-1.094c-0.737-0.729-1.105-1.637-1.105-2.721c0-1.299,0.567-2.397,1.703-3.294
			c1.137-0.897,2.585-1.346,4.347-1.346c0.479,0,1.021,0.104,1.626,0.312c0-2.073-0.925-3.109-2.773-3.109
			c-1.419,0-2.512,0.383-3.276,1.148l-0.957-1.901c0.431-0.352,1.026-0.652,1.788-0.903c0.761-0.251,1.488-0.377,2.182-0.377
			c1.857,0,3.207,0.423,4.048,1.268c0.841,0.846,1.262,2.188,1.262,4.03v4.592c0,1.123,0.334,1.873,1.004,2.247v1.137
			c-0.925,0-1.616-0.132-2.074-0.395C586.111,76.725,585.783,76.29,585.584,75.685z M585.368,70.866
			c-0.717-0.16-1.22-0.239-1.507-0.239c-1.147,0-2.084,0.295-2.81,0.885s-1.088,1.287-1.088,2.092c0,1.332,0.785,1.997,2.355,1.997
			c1.147,0,2.164-0.546,3.049-1.638V70.866z"/>
		<path stroke="#000000" stroke-width="0.25" stroke-miterlimit="10" d="M590.749,80.659l1.232-1.818
			c1.322,0.885,2.542,1.328,3.658,1.328c1.028,0,1.84-0.178,2.434-0.532c0.594-0.355,0.891-0.796,0.891-1.321
			c0-1.037-0.749-1.555-2.248-1.555c-0.255,0-0.717,0.063-1.387,0.191s-1.191,0.191-1.566,0.191c-1.817,0-2.727-0.686-2.727-2.057
			c0-0.423,0.214-0.806,0.64-1.148c0.427-0.343,0.955-0.59,1.585-0.741c-1.802-0.845-2.702-2.312-2.702-4.4
			c0-1.339,0.466-2.455,1.398-3.348s2.085-1.34,3.456-1.34c1.259,0,2.243,0.26,2.953,0.777l1.136-1.363l1.482,1.399l-1.362,1.028
			c0.581,0.758,0.872,1.746,0.872,2.966c0,1.291-0.402,2.375-1.207,3.252c-0.806,0.877-1.861,1.379-3.169,1.507l-1.877,0.191
			c-0.224,0.023-0.522,0.109-0.897,0.257c-0.374,0.147-0.562,0.341-0.562,0.58c0,0.327,0.391,0.49,1.172,0.49
			c0.343,0,0.877-0.062,1.603-0.186c0.725-0.123,1.263-0.186,1.614-0.186c1.259,0,2.241,0.302,2.947,0.903
			c0.705,0.602,1.058,1.437,1.058,2.505c0,1.18-0.528,2.132-1.584,2.857c-1.057,0.726-2.394,1.089-4.012,1.089
			c-0.829,0-1.702-0.148-2.618-0.443C592.045,81.439,591.308,81.081,590.749,80.659z M595.568,65.939
			c-0.789,0-1.434,0.279-1.932,0.837c-0.498,0.559-0.747,1.235-0.747,2.033c0,0.893,0.241,1.632,0.724,2.218
			s1.134,0.879,1.955,0.879c0.805,0,1.435-0.285,1.889-0.855c0.455-0.569,0.682-1.316,0.682-2.241c0-0.798-0.245-1.475-0.735-2.033
			C596.913,66.219,596.302,65.939,595.568,65.939z"/>
		<path stroke="#000000" stroke-width="0.25" stroke-miterlimit="10" d="M614.293,70.974h-9.23c0,1.499,0.41,2.65,1.231,3.455
			c0.726,0.702,1.658,1.053,2.798,1.053c1.299,0,2.384-0.379,3.252-1.136l0.957,1.638c-0.351,0.351-0.889,0.653-1.614,0.909
			c-0.909,0.334-1.921,0.502-3.037,0.502c-1.61,0-2.978-0.546-4.102-1.639c-1.251-1.203-1.877-2.821-1.877-4.854
			c0-2.112,0.642-3.806,1.925-5.081c1.148-1.141,2.507-1.711,4.077-1.711c1.826,0,3.257,0.515,4.293,1.543
			c1.005,0.988,1.507,2.3,1.507,3.934C614.473,70.089,614.413,70.551,614.293,70.974z M608.781,66.023
			c-1.013,0-1.861,0.327-2.547,0.98c-0.654,0.621-1.024,1.395-1.112,2.319h7.091c0-0.916-0.287-1.682-0.861-2.296
			C610.722,66.358,609.865,66.023,608.781,66.023z"/>
	</g>
</g>
<g>
	<g>
		<defs>
			<path id="SVGID_1_" d="M49.546,16.682c6.089,24.391-6.715,59.954-19.569,78.592l11.143,0.031
				c17.136-23.752,25.371-59.771,18.6-87.528L49.546,16.682z"/>
		</defs>
		<clipPath id="SVGID_2_">
			<use xlink:href="#SVGID_1_"  overflow="visible"/>
		</clipPath>
		
			<linearGradient id="SVGID_3_" gradientUnits="userSpaceOnUse" x1="172.5193" y1="350.6716" x2="172.7089" y2="350.6716" gradientTransform="matrix(158.339 -479.8666 -297.5331 -98.1754 77054.2266 117307.1953)">
			<stop  offset="0" style="stop-color:#3A97CC"/>
			<stop  offset="0.42" style="stop-color:#3188C9"/>
			<stop  offset="1" style="stop-color:#FFFFFF"/>
		</linearGradient>
		<polygon clip-path="url(#SVGID_2_)" fill="url(#SVGID_3_)" points="3.932,86.711 33.562,-3.088 92.536,16.371 62.906,106.17 		"/>
	</g>
	<g>
		<defs>
			<path id="SVGID_4_" d="M35.904,28.027c3.34,16.639-0.555,35.007-9.574,52.702c-2.194,3.768-4.681,8.835-9.801,14.553
				l12.527-0.044c14.467-23.273,24.609-54.348,19.628-78.037L35.904,28.027z"/>
		</defs>
		<clipPath id="SVGID_5_">
			<use xlink:href="#SVGID_4_"  overflow="visible"/>
		</clipPath>
		
			<linearGradient id="SVGID_6_" gradientUnits="userSpaceOnUse" x1="172.6345" y1="350.6157" x2="172.824" y2="350.6157" gradientTransform="matrix(75.6668 -421.6719 -297.3687 -53.3613 91228.1328 91596.2578)">
			<stop  offset="0" style="stop-color:#3A97CC"/>
			<stop  offset="0.42" style="stop-color:#3188C9"/>
			<stop  offset="1" style="stop-color:#FFFFFF"/>
		</linearGradient>
		<polygon clip-path="url(#SVGID_5_)" fill="url(#SVGID_6_)" points="2.955,92.845 17.688,10.743 67.24,19.635 52.508,101.737 		"/>
	</g>
	<g>
		<defs>
			<path id="SVGID_7_" d="M17.087,43.992c-1.339,15.317,0.787,35.851,5.136,43.76c1.698-2.657,4.017-6.683,5.376-9.607
				c-2.256-11.985-2.585-31.683-0.108-42.995L17.087,43.992z"/>
		</defs>
		<clipPath id="SVGID_8_">
			<use xlink:href="#SVGID_7_"  overflow="visible"/>
		</clipPath>
		
			<linearGradient id="SVGID_9_" gradientUnits="userSpaceOnUse" x1="172.7404" y1="346.2031" x2="172.9299" y2="346.2031" gradientTransform="matrix(32.3453 253.1616 87.6732 -11.2016 -35920.918 -39811.4492)">
			<stop  offset="0" style="stop-color:#3A97CC"/>
			<stop  offset="0.42" style="stop-color:#3188C9"/>
			<stop  offset="1" style="stop-color:#FFFFFF"/>
		</linearGradient>
		<polygon clip-path="url(#SVGID_8_)" fill="url(#SVGID_9_)" points="27.41,33.66 34.213,86.907 15.939,89.242 9.136,35.995 		"/>
	</g>
	<g>
		<defs>
			<path id="SVGID_10_" d="M7.283,52.337c0.016,15.55,3.497,28.718,9.247,42.944c1.989-2.242,3.358-4.03,5.17-6.699
				c-5.871-12.305-6.121-36.466-5.31-43.982L7.283,52.337z"/>
		</defs>
		<clipPath id="SVGID_11_">
			<use xlink:href="#SVGID_10_"  overflow="visible"/>
		</clipPath>
		
			<linearGradient id="SVGID_12_" gradientUnits="userSpaceOnUse" x1="172.532" y1="347.1871" x2="172.7215" y2="347.1871" gradientTransform="matrix(50.9226 239.8129 106.2701 -22.5657 -45670.9883 -33490.2148)">
			<stop  offset="0" style="stop-color:#3A97CC"/>
			<stop  offset="0.42" style="stop-color:#3188C9"/>
			<stop  offset="1" style="stop-color:#FFFFFF"/>
		</linearGradient>
		<polygon clip-path="url(#SVGID_11_)" fill="url(#SVGID_12_)" points="21.077,41.67 31.997,93.094 7.905,98.21 -3.014,46.786 		"/>
	</g>
</g>
</svg>
