<?xml version="1.0" encoding="utf-8"?>
<!-- Generator: Adobe Illustrator 22.0.1, SVG Export Plug-In . SVG Version: 6.00 Build 0)  -->
<svg version="1.1" id="Capa_1" xmlns="http://www.w3.org/2000/svg" xmlns:xlink="http://www.w3.org/1999/xlink" x="0px" y="0px"
	 viewBox="0 0 728.5 1168.5" style="enable-background:new 0 0 728.5 1168.5;" xml:space="preserve">
<g>
	<path d="M584.5,206.7c-19.7-21-47.1-47.6-84.8-67.3c-36.4-19.1-72.8-28.8-121.7-32.7c-8.2-0.6-16.5-1-24.6-1
		c-101.2,0-171.5,49-212.6,90.1c-46,46-99.1,123.7-91.3,232.8c5.8,80.6,52,144,89.1,194.9l1.6,2.2c6.6,9.1,13.5,18,20.8,27.4
		c22.9,29.6,46.7,60.3,63.7,99.2l2,4.5c7,15.8,15.6,35.4,14.6,45.6c-0.7,7.2-3.9,10.8-7.5,14.9c-5,5.7-11.3,12.8-7.2,27.9
		c5.2,19.7,30,19.7,58.7,19.7l149.5,0c0,0,0,0,0,0c23.7,0,48.1,0,53.3-19.7c3.9-14.8-2.9-23.1-8.4-29.8c-3.1-3.8-5.8-7-6.4-11.1
		c-2.8-19.8,18.5-64.6,39.5-97.9c13.3-21,27.5-39.3,41.3-57c6.4-8.2,12.4-15.9,18.1-23.6c3-4.1,6.1-8.2,9.1-12.2
		c38.2-51.2,77.6-104.1,83.7-182.7C673.5,319.6,618.2,242.6,584.5,206.7z M527.5,586.1c-2.7,3.6-5.5,7.2-8.2,10.8
		c-4.7,6.3-9.5,12.5-14.3,18.8c-42.8,56-83.3,109-92.8,189.5h-110c-11.8-85.2-53.1-139.5-96.8-196.9c-3.4-4.5-6.8-9-10.2-13.5
		l-5.8-7.7c-34-44.9-72.6-95.7-78.1-155.2c-8.7-93.9,34.7-157.9,72.6-195c48.5-47.5,107.1-71.6,174-71.6c7.6,0,15.5,0.3,23.3,1
		c118.1,9.7,213.6,106,222,224.1C609.5,478,567.8,533,527.5,586.1z"/>
	<path d="M418.7,510.1l-0.6,0c-14.9,0-30.8,17.5-43.5,31.5c-2.9,3.2-5.6,6.2-7.8,8.4c-3.2,3.2-5.9,6.6-8,9.3c-0.3,0.4-0.7,0.8-1,1.3
		c-1.9-2-4.1-4.6-5.5-6.2c-1.7-1.9-3-3.4-4-4.4c-1.6-1.6-3.8-4-6.4-6.8c-17-18.1-31.9-33.2-42.6-33.2c0,0-0.2,0-0.2,0
		c-7.8,0.1-16.9,5-19.2,14c-4,15.7,14,31,24.7,40.2c1.9,1.6,3.6,3.1,4.5,4c5,5,8.8,8.7,12.2,12.1c5.6,5.5,10.5,10.2,18.7,18.8v60.4
		c0,3-0.2,6.6-0.3,10.4c-0.9,19.5-2.1,46.3,16.9,47.2c0.3,0,0.6,0,0.8,0c4.3,0,8.1-1.6,11-4.7c8-8.4,7.9-25.1,6.9-44.5
		c-0.2-3.3-0.3-6.2-0.3-8.3c0-5.3-0.4-11.7-0.9-18.5c-0.9-14-2.1-31.4,0.7-41.5c0.7-2.6,5.9-7,9.6-10.3c1.5-1.3,2.9-2.5,4.3-3.8
		c11.9-10.9,20.5-19.2,33-31.7l0.5-0.5c7.5-7.5,14.2-14.8,14.5-22.2c0.2-5.6-1.9-11.1-5.7-15.2C427.7,512.4,423.2,510.2,418.7,510.1
		z"/>
	<path d="M447.2,889.6c-9.6-2-23.5-2.9-45-2.9c-11.1,0-23.2,0.2-35,0.5c-11.6,0.2-23.5,0.5-34.4,0.5c-4.8,0-9.8-0.1-15-0.2
		c-5.4-0.1-11-0.2-16.5-0.2c-19.5,0-60.2,0-62.2,25.6c-0.5,7,1.7,12.9,6.8,17.5c11.2,10.3,33.7,11.6,54.2,11.6
		c9.5,0,19.5-0.4,29.2-0.7c9.5-0.3,18.6-0.7,27-0.7c6.1,0,12.9,0,20.1,0c15.7,0,33.2,0.1,48.1,0c25.3-0.2,49.2-0.4,51-23.4
		C477.1,896,459.8,892.3,447.2,889.6z"/>
	<path d="M447.2,962.4c-9.6-2-23.5-2.9-45-2.9c-11.1,0-23.2,0.2-35,0.5c-11.6,0.2-23.5,0.5-34.4,0.5c-4.8,0-9.8-0.1-15-0.2
		c-5.4-0.1-11-0.2-16.5-0.2c-19.5,0-60.2,0-62.2,25.6c-0.5,7,1.7,12.9,6.8,17.5c11.2,10.3,33.7,11.6,54.2,11.6
		c9.5,0,19.5-0.4,29.2-0.7c9.5-0.3,18.6-0.7,27-0.7c6.1,0,12.9,0,20.1,0c15.7,0,33.2,0.1,48.1,0c25.3-0.2,49.2-0.4,51-23.4
		C477.1,968.7,459.8,965,447.2,962.4z"/>
	<path d="M413.7,1029.5l-0.2-0.1c-6.4-1.7-17.6-2.5-37.6-2.5c-7.4,0-15.4,0.1-23.1,0.2c-6.1,0.1-12.2,0.2-17.9,0.2
		c-24.7,0.1-55.5,0.3-57.4,23.4c-0.6,7.5,1.5,13.6,6.4,18.1c8.9,8.3,24.7,9.9,47.3,9.9c4,0,8,0,12.2-0.1c4.2,0,8.5-0.1,12.8-0.1
		c4.9,0,10.1,0.1,15,0.2c5,0.1,10.3,0.2,15.3,0.2c16,0,49,0,50.6-23.9C438.4,1036.2,424.7,1032.5,413.7,1029.5z"/>
</g>
</svg>
