<?xml version="1.0" encoding="utf-8"?>
<!-- Generator: Adobe Illustrator 22.0.1, SVG Export Plug-In . SVG Version: 6.00 Build 0)  -->
<svg version="1.1" id="Capa_1" xmlns="http://www.w3.org/2000/svg" xmlns:xlink="http://www.w3.org/1999/xlink" x="0px" y="0px"
	 viewBox="0 0 480.2 480.2" style="enable-background:new 0 0 480.2 480.2;" xml:space="preserve">
<style type="text/css">
	.st0{fill:url(#SVGID_1_);}
	.st1{fill:url(#SVGID_2_);}
	.st2{fill:url(#SVGID_3_);}
	.st3{fill:url(#SVGID_4_);}
	.st4{fill:url(#SVGID_5_);}
	.st5{fill:url(#SVGID_6_);}
	.st6{fill:url(#SVGID_7_);}
	.st7{fill:url(#SVGID_8_);}
	.st8{fill:url(#SVGID_9_);}
</style>
<g>
	<g>
		<linearGradient id="SVGID_1_" gradientUnits="userSpaceOnUse" x1="240.0765" y1="480.112" x2="240.0765" y2="4.061485e-02">
			<stop  offset="0" style="stop-color:#3997CB"/>
			<stop  offset="1" style="stop-color:#3962CB"/>
		</linearGradient>
		<path class="st0" d="M455,182.6c19.8-24.3,28.5-55.8,23.9-86.8C470,34.6,413.1-7.7,351.9,1.2c-27.6,4-52.7,18.2-70.4,39.8
			c-14,17.8-37.1,25.8-59.1,20.3c-18.5-5.1-37.8-6.5-56.8-4.1c-64.3,8.7-115,58.9-124.3,123.2c-4,28.7,0.8,57.9,13.8,83.7
			C24.2,264.6-0.4,290,0,320.9c0.4,27.8,21.2,51.1,48.7,54.7l8.6,88.5c0,8.8,7.2,16,16,16H120c4.7,0,9.1-2,12.1-5.6
			c3.2-3.8,4.5-8.8,3.5-13.6l-21.4-84.8h4c8.8,0,17.7,0.7,26.4,1.9c28.7,62.2,91,102.1,159.6,102.1c5.3,0,10.6-0.2,16-0.7
			c84.9-8.4,151.8-76,159.2-161c3.1-37.7-6.1-75.4-26.2-107.4C447.8,202.2,448.4,190.7,455,182.6z M48,359.3
			c-21.6-4.4-35.6-25.5-31.2-47.2c3.2-15.7,15.5-28,31.2-31.2V359.3z M120,464.1l-46.7-0.8l-8.5-87.2h33L120,464.1z M64,360.1v-80
			h16v80H64z M118.3,360.1H96v-80h22.2c23.2,0,46.3-3.7,68.3-11.1l37.4-12.5v127.1l-37.4-12.5C164.6,363.8,141.5,360.1,118.3,360.1z
			 M463.5,317.2c-7.1,87.9-84.1,153.5-172,146.4c-53.4-4.3-101.1-35.1-127.1-82c5.7,1.4,11.5,2.9,17.1,4.8l88,29.3
			c0.8,0.3,1.7,0.4,2.5,0.4c4.4,0,8-3.6,8-8v-40c17.7,0,32-14.3,32-32v-32c0-17.7-14.3-32-32-32v-40c0-4.4-3.6-8-8-8
			c-0.9,0-1.7,0.1-2.5,0.4l-88,29.3c-20.4,6.8-41.7,10.3-63.2,10.3H73.4c-14.4-24.6-20.1-53.4-16.2-81.6
			c9.7-70,74.2-118.9,144.2-109.2c5.6,0.8,11.2,1.9,16.7,3.5c28.1,7.2,57.8-2.8,75.7-25.6c33.5-41.1,93.9-47.2,135-13.7
			s47.2,93.9,13.7,135c-10.9,13.4-12.1,32.3-2.8,47C458,248.6,466.4,282.9,463.5,317.2z M240,389V251.2l24-8V397L240,389z
			 M280,352.1v-64c8.8,0,16,7.2,16,16v32C296,344.9,288.9,352.1,280,352.1z"/>
	</g>
</g>
<g>
	<g>
		<linearGradient id="SVGID_2_" gradientUnits="userSpaceOnUse" x1="128.049" y1="344.112" x2="128.049" y2="328.112">
			<stop  offset="0" style="stop-color:#3997CB"/>
			<stop  offset="1" style="stop-color:#3962CB"/>
		</linearGradient>
		<rect x="112" y="328.1" class="st1" width="32" height="16"/>
	</g>
</g>
<g>
	<g>
		<linearGradient id="SVGID_3_" gradientUnits="userSpaceOnUse" x1="128.049" y1="312.112" x2="128.049" y2="296.112">
			<stop  offset="0" style="stop-color:#3997CB"/>
			<stop  offset="1" style="stop-color:#3962CB"/>
		</linearGradient>
		<rect x="112" y="296.1" class="st2" width="32" height="16"/>
	</g>
</g>
<g>
	<g>
		<linearGradient id="SVGID_4_" gradientUnits="userSpaceOnUse" x1="376.0504" y1="152.1145" x2="376.0504" y2="72.1099">
			<stop  offset="0" style="stop-color:#3997CB"/>
			<stop  offset="1" style="stop-color:#3962CB"/>
		</linearGradient>
		<path class="st3" d="M406.7,107.7c-0.6-0.9-1.3-1.6-2.2-2.2l-48-32c-3.7-2.5-8.6-1.5-11.1,2.2c-0.9,1.3-1.3,2.9-1.3,4.4v64
			c0,3,1.6,5.7,4.2,7.1c2.6,1.4,5.8,1.2,8.2-0.4l48-32C408.2,116.3,409.2,111.3,406.7,107.7z M360,129.2V95.1l25.6,17L360,129.2z"/>
	</g>
</g>
<g>
	<g>
		<linearGradient id="SVGID_5_" gradientUnits="userSpaceOnUse" x1="316.0607" y1="250.0609" x2="316.0607" y2="214.1802">
			<stop  offset="0" style="stop-color:#3997CB"/>
			<stop  offset="1" style="stop-color:#3962CB"/>
		</linearGradient>
		<polygon class="st4" points="304.3,246.2 312.3,214.2 327.8,218.1 319.8,250.1 		"/>
	</g>
</g>
<g>
	<g>
		<linearGradient id="SVGID_6_" gradientUnits="userSpaceOnUse" x1="344.0407" y1="271.2641" x2="344.0407" y2="240.9547">
			<stop  offset="0" style="stop-color:#3997CB"/>
			<stop  offset="1" style="stop-color:#3962CB"/>
		</linearGradient>
		<polygon class="st5" points="324.5,257 356.5,241 363.6,255.3 331.6,271.3 		"/>
	</g>
</g>
<g>
	<g>
		<linearGradient id="SVGID_7_" gradientUnits="userSpaceOnUse" x1="316.0135" y1="434.0431" x2="316.0135" y2="398.1673">
			<stop  offset="0" style="stop-color:#3997CB"/>
			<stop  offset="1" style="stop-color:#3962CB"/>
		</linearGradient>
		<polygon class="st6" points="304.3,402 319.8,398.2 327.8,430.2 312.3,434 		"/>
	</g>
</g>
<g>
	<g>
		<linearGradient id="SVGID_8_" gradientUnits="userSpaceOnUse" x1="344.0366" y1="407.2587" x2="344.0366" y2="376.9492">
			<stop  offset="0" style="stop-color:#3997CB"/>
			<stop  offset="1" style="stop-color:#3962CB"/>
		</linearGradient>
		<polygon class="st7" points="324.5,391.3 331.6,376.9 363.6,392.9 356.5,407.3 		"/>
	</g>
</g>
<g>
	<g>
		<linearGradient id="SVGID_9_" gradientUnits="userSpaceOnUse" x1="100.049" y1="216.112" x2="100.049" y2="24.112">
			<stop  offset="0" style="stop-color:#3997CB"/>
			<stop  offset="1" style="stop-color:#3962CB"/>
		</linearGradient>
		<path class="st8" d="M8,216.1h16c0-108.6,64.4-176,168-176v-16C78.6,24.1,8,97.7,8,216.1z"/>
	</g>
</g>
</svg>
