<?xml version="1.0" encoding="utf-8"?>
<!-- Generator: Adobe Illustrator 22.0.1, SVG Export Plug-In . SVG Version: 6.00 Build 0)  -->
<svg version="1.1" id="Layer_1" xmlns="http://www.w3.org/2000/svg" xmlns:xlink="http://www.w3.org/1999/xlink" x="0px" y="0px"
	 viewBox="0 0 496 496" style="enable-background:new 0 0 496 496;" xml:space="preserve">
<style type="text/css">
	.st0{fill:url(#SVGID_1_);}
	.st1{fill:url(#SVGID_2_);}
	.st2{fill:url(#SVGID_3_);}
	.st3{fill:url(#SVGID_4_);}
	.st4{fill:url(#SVGID_5_);}
	.st5{fill:url(#SVGID_6_);}
	.st6{fill:url(#SVGID_7_);}
	.st7{fill:url(#SVGID_8_);}
	.st8{fill:url(#SVGID_9_);}
</style>
<linearGradient id="SVGID_1_" gradientUnits="userSpaceOnUse" x1="248" y1="496" x2="248" y2="-9.765636e-07">
	<stop  offset="0" style="stop-color:#3997CB"/>
	<stop  offset="1" style="stop-color:#3962CB"/>
</linearGradient>
<path class="st0" d="M496,256v-64.2c0-17.8-11.5-33.2-28.5-38.3L416,138v-12.2c14.5-10.1,24-26.9,24-45.9V56c0-30.9-25.1-56-56-56
	s-56,25.1-56,56v24c0,19,9.5,35.8,24,45.9V138l-45.4,13.6c-17-15.2-38.7-23.7-61.8-23.7c-22.9,0-43.9,8.4-60.2,22.3L144,138v-12.2
	c14.5-10.1,24-26.9,24-45.9V56c0-30.9-25.1-56-56-56S56,25.1,56,56v24c0,19,9.5,35.8,24,45.9V138l-51.5,15.4
	C11.5,158.6,0,174,0,191.8V256h16v-64.2c0-10.7,6.9-19.9,17.1-23l51.5-15.5c4.7,6,13.7,14.6,27.4,14.6s22.7-8.6,27.4-14.6l32.8,9.8
	c-10.4,13.1-17.4,29-19.5,46.5C142.5,198.8,128.1,192,112,192c-30.9,0-56,25.1-56,56v24c0,19,9.5,35.8,24,45.9V330l-51.5,15.4
	C11.5,350.6,0,366,0,383.8V456h96c4.4,0,8,3.6,8,8v32h288v-32c0-4.4,3.6-8,8-8h96v-72.2c0-17.8-11.5-33.2-28.5-38.3L416,330v-12.2
	c14.5-10.1,24-26.9,24-45.9v-24c0-30.9-25.1-56-56-56c-15.7,0-29.8,6.5-40,16.9v-7.6c0-15.8-8.6-30-22-37.5l34.6-10.4
	c4.7,6,13.7,14.6,27.4,14.6s22.7-8.6,27.4-14.6l51.5,15.5c10.2,3.1,17.1,12.3,17.1,23V256H496z M112,16c22.1,0,40,17.9,40,40h-36.7
	c-5.1,0-10.1-2.1-13.7-5.7L96,44.7l-5.7,5.7c-3.6,3.6-8.6,5.7-13.7,5.7H72C72,33.9,89.9,16,112,16z M72,80v-8h4.7
	c7,0,13.6-2,19.3-5.7c5.7,3.7,12.3,5.7,19.3,5.7H152v8c0,22.1-17.9,40-40,40S72,102.1,72,80z M112,152c-8.5,0-14-7.1-16-10.2v-8.2
	c5.1,1.5,10.4,2.4,16,2.4s10.9-0.8,16-2.4v8.2C126,144.9,120.5,152,112,152z M331.9,292.4c4.1,10.3,11.1,19.2,20.1,25.5V330
	l-51.5,15.4c-1.7,0.5-3.3,1.2-5,1.9l-7.6-1.7v-15.8c8.6-6.9,15.3-15.9,19.4-26.2C316.6,302.8,325.3,298.9,331.9,292.4z M248,344
	c8.5,0,16.6-1.7,24-4.7v8.7l-24,18l-24-18v-8.7C231.4,342.3,239.5,344,248,344z M214.2,360.6l19.5,14.6l-20.1,12l-5.1-25.4
	L214.2,360.6z M239.2,424h17.7l6.2,56h-30.1L239.2,424z M258.2,408h-20.5l-4.6-13.8l14.8-8.9l14.8,8.9L258.2,408z M262.3,375.3
	l19.5-14.6l5.6,1.3l-5.1,25.4L262.3,375.3z M321.8,280.1c-2.8,3-6.3,5.2-10.1,6.5c0.2-2.2,0.3-4.4,0.3-6.6v-38.3
	c8.6,3.3,15,10.8,15.9,19.9C328.5,268.5,326.4,275.1,321.8,280.1z M296,280c0,26.5-21.5,48-48,48s-48-21.5-48-48v-40h27.2
	c17.4,0,34.4-4.4,49.6-12.7l6.3,12.7H296V280z M184.3,286.6c-3.8-1.3-7.3-3.4-10.1-6.5c-4.6-5.1-6.8-11.6-6.1-18.5
	c0.9-9.1,7.3-16.6,15.9-19.9V280C184,282.2,184.1,284.4,184.3,286.6z M188.6,303.6c4.1,10.3,10.9,19.4,19.4,26.2v15.8l-7.6,1.7
	c-1.6-0.7-3.3-1.4-4.9-1.9L144,330v-12.2c9-6.3,16-15.1,20.1-25.5C170.7,298.9,179.4,302.8,188.6,303.6z M112,208
	c22.1,0,40,17.9,40,40h-4.7c-5.1,0-10.1-2.1-13.7-5.7l-5.7-5.7l-5.7,5.7c-3.6,3.6-8.6,5.7-13.7,5.7H72C72,225.9,89.9,208,112,208z
	 M72,272v-8h36.7c7,0,13.6-2,19.3-5.7c5.7,3.7,12.3,5.7,19.3,5.7h4.7v8c0,22.1-17.9,40-40,40S72,294.1,72,272z M112,328
	c5.6,0,10.9-0.8,16-2.4v8.2c-2,3.1-7.5,10.2-16,10.2s-14-7.1-16-10.2v-8.2C101.1,327.2,106.4,328,112,328z M96,440H64v-56H48v56H16
	v-56.2c0-10.7,6.9-19.9,17.1-23l51.5-15.5c4.7,6,13.7,14.6,27.4,14.6s22.7-8.6,27.4-14.6l30.3,9.1l-22.3,5.1
	c-25.6,5.9-43.4,28.3-43.4,54.6v9.8h16v-9.8c0-18.7,12.8-34.8,31-39l41.9-9.7l9.4,47.2l16.7-10l4.7,14.2l-7,63.1H176v-64h-16v64h-40
	v-16C120,450.8,109.2,440,96,440z M462.9,360.8c10.2,3.1,17.1,12.3,17.1,23V440h-32v-56h-16v56h-32c-13.2,0-24,10.8-24,24v16h-40
	v-64h-16v64h-40.8l-7-63.1l4.7-14.2l16.7,10l9.4-47.2l41.9,9.7c18.3,4.2,31,20.2,31,39v9.8h16v-9.8c0-26.2-17.8-48.7-43.4-54.6
	l-22.3-5.1l30.3-9.1c4.7,6,13.7,14.6,27.4,14.6s22.7-8.6,27.4-14.6L462.9,360.8z M400,333.8c-2,3.1-7.5,10.2-16,10.2
	c-8.5,0-14-7.2-16-10.2v-8.2c5.1,1.5,10.4,2.4,16,2.4s10.9-0.8,16-2.4V333.8z M384,312c-22.1,0-40-17.9-40-40v-8h4.7
	c7,0,13.6-2,19.3-5.7c5.7,3.7,12.3,5.7,19.3,5.7H424v8C424,294.1,406.1,312,384,312z M384,208c22.1,0,40,17.9,40,40h-36.7
	c-5.1,0-10.1-2.1-13.7-5.7l-5.7-5.7l-5.7,5.7c-3.6,3.6-8.6,5.7-13.7,5.7H344C344,225.9,361.9,208,384,208z M328,232.7
	c-7.1-5.4-15.9-8.7-25.4-8.7h-9.7l-9.8-19.7l-7.5,5c-14.4,9.6-31.1,14.7-48.4,14.7h-33.8c-9.5,0-18.3,3.3-25.4,8.7v-11.8
	c0-42.4,34.5-76.8,76.8-76.8c20.5,0,39.8,8,54.3,22.5l8.5,8.5l1.8,0.6c11.1,3.7,18.5,14,18.5,25.7V232.7z M384,16
	c22.1,0,40,17.9,40,40h-4.7c-5.1,0-10.1-2.1-13.7-5.7l-5.7-5.7l-5.7,5.7c-3.6,3.6-8.6,5.7-13.7,5.7H344C344,33.9,361.9,16,384,16z
	 M344,80v-8h36.7c7,0,13.6-2,19.3-5.7c5.7,3.7,12.3,5.7,19.3,5.7h4.7v8c0,22.1-17.9,40-40,40S344,102.1,344,80z M384,152
	c-8.5,0-14-7.2-16-10.2v-8.2c5.1,1.5,10.4,2.4,16,2.4s10.9-0.8,16-2.4v8.2C398,144.9,392.5,152,384,152z"/>
<linearGradient id="SVGID_2_" gradientUnits="userSpaceOnUse" x1="192" y1="16" x2="192" y2="-9.765627e-07">
	<stop  offset="0" style="stop-color:#3997CB"/>
	<stop  offset="1" style="stop-color:#3962CB"/>
</linearGradient>
<path class="st1" d="M184,0h16v16h-16V0z"/>
<linearGradient id="SVGID_3_" gradientUnits="userSpaceOnUse" x1="192" y1="120" x2="192" y2="32">
	<stop  offset="0" style="stop-color:#3997CB"/>
	<stop  offset="1" style="stop-color:#3962CB"/>
</linearGradient>
<path class="st2" d="M184,32h16v88h-16V32z"/>
<linearGradient id="SVGID_4_" gradientUnits="userSpaceOnUse" x1="304" y1="16" x2="304" y2="-9.765627e-07">
	<stop  offset="0" style="stop-color:#3997CB"/>
	<stop  offset="1" style="stop-color:#3962CB"/>
</linearGradient>
<path class="st3" d="M296,0h16v16h-16V0z"/>
<linearGradient id="SVGID_5_" gradientUnits="userSpaceOnUse" x1="304" y1="120" x2="304" y2="32">
	<stop  offset="0" style="stop-color:#3997CB"/>
	<stop  offset="1" style="stop-color:#3962CB"/>
</linearGradient>
<path class="st4" d="M296,32h16v88h-16V32z"/>
<linearGradient id="SVGID_6_" gradientUnits="userSpaceOnUse" x1="224" y1="88" x2="224" y2="32">
	<stop  offset="0" style="stop-color:#3997CB"/>
	<stop  offset="1" style="stop-color:#3962CB"/>
</linearGradient>
<path class="st5" d="M216,32h16v56h-16V32z"/>
<linearGradient id="SVGID_7_" gradientUnits="userSpaceOnUse" x1="224" y1="120" x2="224" y2="104">
	<stop  offset="0" style="stop-color:#3997CB"/>
	<stop  offset="1" style="stop-color:#3962CB"/>
</linearGradient>
<path class="st6" d="M216,104h16v16h-16V104z"/>
<linearGradient id="SVGID_8_" gradientUnits="userSpaceOnUse" x1="272" y1="88" x2="272" y2="32">
	<stop  offset="0" style="stop-color:#3997CB"/>
	<stop  offset="1" style="stop-color:#3962CB"/>
</linearGradient>
<path class="st7" d="M264,32h16v56h-16V32z"/>
<linearGradient id="SVGID_9_" gradientUnits="userSpaceOnUse" x1="272" y1="120" x2="272" y2="104">
	<stop  offset="0" style="stop-color:#3997CB"/>
	<stop  offset="1" style="stop-color:#3962CB"/>
</linearGradient>
<path class="st8" d="M264,104h16v16h-16V104z"/>
</svg>
