<?xml version="1.0" encoding="utf-8"?>
<!-- Generator: Adobe Illustrator 22.0.1, SVG Export Plug-In . SVG Version: 6.00 Build 0)  -->
<svg version="1.1" id="Capa_1" xmlns="http://www.w3.org/2000/svg" xmlns:xlink="http://www.w3.org/1999/xlink" x="0px" y="0px"
	 viewBox="0 0 482.1 482.1" style="enable-background:new 0 0 482.1 482.1;" xml:space="preserve">
<style type="text/css">
	.st0{fill:url(#SVGID_1_);}
	.st1{fill:url(#SVGID_2_);}
	.st2{fill:url(#SVGID_3_);}
	.st3{fill:url(#SVGID_4_);}
	.st4{fill:url(#SVGID_5_);}
	.st5{fill:url(#SVGID_6_);}
	.st6{fill:url(#SVGID_7_);}
	.st7{fill:url(#SVGID_8_);}
	.st8{fill:url(#SVGID_9_);}
	.st9{fill:url(#SVGID_10_);}
</style>
<g>
	<g>
		<linearGradient id="SVGID_1_" gradientUnits="userSpaceOnUse" x1="241.0652" y1="482.059" x2="241.0652" y2="2.0567">
			<stop  offset="0" style="stop-color:#3997CB"/>
			<stop  offset="1" style="stop-color:#3962CB"/>
		</linearGradient>
		<path class="st0" d="M475.3,126.6C475.3,126.6,475.3,126.6,475.3,126.6L475.3,126.6l-31.1-4.5c-4.4-0.6-7.4-4.7-6.8-9
			c0.3-2.1,1.4-4,3.1-5.3L465.6,89c3.5-2.7,4.3-7.7,1.6-11.2l-28.8-38.4c-2.7-3.5-7.7-4.3-11.2-1.6l-25.1,18.9
			c-3.5,2.7-8.5,2-11.2-1.5c-1.3-1.7-1.9-3.9-1.5-6l4.4-31.1c0.6-4.4-2.4-8.4-6.8-9.1c0,0,0,0,0,0l-47.5-6.8
			c-4.4-0.6-8.4,2.4-9.1,6.8c0,0,0,0,0,0L326,40c-0.6,4.4-4.7,7.4-9,6.8c-2.1-0.3-4-1.4-5.3-3.1l-18.9-25.2
			c-2.7-3.5-7.7-4.3-11.2-1.6l-24,18c-10.9-1.2-21.8-1.2-32.7,0c-71.2,8.1-127.1,64.9-134,136.3c-0.2,2.3-0.3,4.5-0.4,6.8H88
			c-3.8,0-7.1,2.7-7.8,6.4l-5.5,26.3l-22.1-15.3c-3.2-2.2-7.5-1.8-10.2,0.9l-24,24c-2.7,2.7-3.1,7-0.9,10.2l15.2,22.1l-26.3,5.5
			C2.6,259,0,262.3,0,266.1v32c0,3.8,2.6,7.1,6.4,7.8l26.3,5.5l-15.2,22.1c-2.2,3.2-1.8,7.5,0.9,10.2l24,24c2.7,2.7,7,3.1,10.2,0.9
			l22.1-15.2l5.5,26.3c0.8,3.7,4,6.4,7.8,6.4h32c3.8,0,7.1-2.6,7.8-6.4l5.5-26.3l22.1,15.2c3.2,2.2,7.5,1.8,10.2-0.9l12.4-12.5v22.8
			c0,11.4,6.1,21.9,16,27.6v44.4c0,17.7,14.3,32,32,32h32c17.7,0,32-14.3,32-32v-44.4c9.9-5.7,16-16.2,16-27.6v-31.7
			c0.2-13.3,7.2-25.6,18.5-32.7c6.6-4.3,12.9-9.1,18.8-14.4l-10.7-11.9c-5.3,4.7-10.9,9-16.9,12.9c-15.9,10-25.6,27.3-25.8,46.1
			v31.7c0,8.8-7.2,16-16,16h-64c-8.8,0-16-7.2-16-16v-32.3c-0.2-18.4-9.8-35.4-25.4-45.2c-63.4-39.8-82.5-123.5-42.7-186.9
			c24.7-39.3,67.9-63.3,114.3-63.5c-0.1,0.3-0.2,0.6-0.3,0.9c-0.3,2.1,0.3,4.2,1.5,5.9l18.9,25.1c2,2.6,2.2,6.1,0.5,8.9
			c-1.6,2.8-4.8,4.3-8,3.8l-31.1-4.4c-4.4-0.6-8.4,2.4-9.1,6.8c0,0,0,0,0,0l-6.8,47.5c-0.6,4.4,2.4,8.4,6.8,9.1c0,0,0,0,0,0
			l31.1,4.4c4.4,0.6,7.4,4.7,6.8,9c-0.3,2.1-1.4,4-3.1,5.3l-25.1,18.9c-3.5,2.7-4.3,7.7-1.6,11.2l28.8,38.4
			c2.7,3.5,7.7,4.3,11.2,1.6l25.2-18.9c3.5-2.6,8.6-1.9,11.2,1.6c1.3,1.7,1.8,3.8,1.5,5.9l-4.4,31.1c-0.6,4.4,2.4,8.4,6.8,9.1
			c0,0,0,0,0,0l47.5,6.8c0.4,0,0.8,0.1,1.1,0.1c4,0,7.4-2.9,7.9-6.9l4.4-31.1c0.6-4.4,4.7-7.4,9-6.8c2.1,0.3,4,1.4,5.3,3.1
			l18.9,25.1c2.7,3.5,7.7,4.3,11.2,1.6l38.4-28.8c3.5-2.7,4.3-7.7,1.6-11.2l-18.9-25.1c-2-2.6-2.2-6.1-0.5-8.9
			c1.6-2.8,4.8-4.4,8-3.8l31.1,4.4c4.4,0.6,8.4-2.4,9.1-6.8c0,0,0,0,0,0l6.8-47.5C482.7,131.3,479.6,127.2,475.3,126.6z
			 M210.1,410.1h64v16h-64V410.1z M210.1,442.1h64v8c0,8.8-7.2,16-16,16h-32c-8.8,0-16-7.2-16-16V442.1z M146.4,304.1
			c4.4,3.6,8.9,6.9,13.7,10c7.6,4.8,13.2,12,16.1,20.5l-17.2,17.1l-16.6-11.5c-7.3-5-17.2-3.2-22.3,4.1c-1.2,1.7-2,3.7-2.5,5.8
			l-4.2,20h-19l-4.2-19.9c-1.8-8.6-10.3-14.2-19-12.4c-2.1,0.4-4,1.3-5.8,2.5l-16.6,11.4l-14.6-14.5l11.4-16.6
			c5-7.3,3.2-17.2-4.1-22.3c-1.7-1.2-3.7-2.1-5.8-2.5L16,291.6v-19l19.9-4.2c8.6-1.8,14.2-10.3,12.3-19c-0.4-2.1-1.3-4-2.5-5.7
			L34.4,227l14.6-14.5l16.6,11.5c7.3,5,17.2,3.2,22.3-4.1c1.2-1.7,2-3.7,2.5-5.8l1.4-6.7c1.3,9.2,3.4,18.3,6.3,27.1
			c-26.3,3.1-45.1,27-42,53.3s27,45.1,53.3,42C125.3,327.9,139.1,318.3,146.4,304.1z M134,292.8c-6,16.6-24.3,25.2-40.9,19.2
			c-16.6-6-25.2-24.3-19.2-40.9c4.6-12.7,16.6-21.2,30.1-21.1c0.1,0,0.2,0,0.3,0C111.7,265.9,121.7,280.4,134,292.8z M460.5,173
			l-23.2-3.3c-13.1-1.9-25.3,7.2-27.2,20.4c-0.9,6.3,0.7,12.7,4.6,17.8l14.1,18.7l-25.6,19.2L389.1,227c-8-10.6-23-12.8-33.6-4.8
			c-5.1,3.8-8.5,9.5-9.4,15.8l-3.2,23.2l-31.7-4.5l3.3-23.2c1.9-13.1-7.2-25.3-20.4-27.2c-6.3-0.9-12.7,0.7-17.8,4.6L257.6,225
			l-19.2-25.6l18.7-14.1c10.6-8,12.8-23,4.8-33.6c-3.8-5.1-9.5-8.5-15.8-9.4l-23.2-3.3l4.5-31.7l23.2,3.3
			c13.1,1.9,25.3-7.2,27.2-20.4c0.9-6.3-0.7-12.7-4.6-17.8l-14.1-18.8l25.6-19.2l14.1,18.7c8,10.6,23,12.8,33.6,4.8
			c5.1-3.8,8.5-9.5,9.4-15.8l3.3-23.2l31.7,4.5l-3.3,23.2c-1.9,13.1,7.2,25.3,20.4,27.2c6.3,0.9,12.7-0.7,17.8-4.6l18.7-14.1
			L449.6,81L430.9,95c-10.6,8-12.8,23-4.8,33.6c3.8,5.1,9.5,8.5,15.8,9.4l23.2,3.3L460.5,173z"/>
	</g>
</g>
<g>
	<g>
		<linearGradient id="SVGID_2_" gradientUnits="userSpaceOnUse" x1="344" y1="204.171" x2="344" y2="76.171">
			<stop  offset="0" style="stop-color:#3997CB"/>
			<stop  offset="1" style="stop-color:#3962CB"/>
		</linearGradient>
		<path class="st1" d="M344,76.2c-35.3,0-64,28.7-64,64s28.7,64,64,64s64-28.7,64-64C408,104.8,379.3,76.2,344,76.2z M344,188.2
			c-26.5,0-48-21.5-48-48s21.5-48,48-48s48,21.5,48,48C392,166.7,370.5,188.1,344,188.2z"/>
	</g>
</g>
<g>
	<g>
		<linearGradient id="SVGID_3_" gradientUnits="userSpaceOnUse" x1="242.112" y1="378.059" x2="242.112" y2="354.059">
			<stop  offset="0" style="stop-color:#3997CB"/>
			<stop  offset="1" style="stop-color:#3962CB"/>
		</linearGradient>
		<rect x="234.1" y="354.1" class="st2" width="16" height="24"/>
	</g>
</g>
<g>
	<g>
		<linearGradient id="SVGID_4_" gradientUnits="userSpaceOnUse" x1="190.0782" y1="338.059" x2="190.0782" y2="91.291">
			<stop  offset="0" style="stop-color:#3997CB"/>
			<stop  offset="1" style="stop-color:#3962CB"/>
		</linearGradient>
		<path class="st3" d="M207.1,275.5c-49.4-19.3-73.8-75-54.5-124.4c7.5-19.1,20.9-35.4,38.3-46.3l-8.6-13.5
			c-52.3,33-68,102.1-35.1,154.5c12.8,20.3,31.7,35.9,54,44.6c19.8,7.6,32.8,26.5,32.8,47.7h16C250.1,310.3,233,285.4,207.1,275.5z"
			/>
	</g>
</g>
<g>
	<g>
		<linearGradient id="SVGID_5_" gradientUnits="userSpaceOnUse" x1="422.112" y1="314.059" x2="422.112" y2="298.059">
			<stop  offset="0" style="stop-color:#3997CB"/>
			<stop  offset="1" style="stop-color:#3962CB"/>
		</linearGradient>
		<rect x="394.1" y="298.1" class="st4" width="56" height="16"/>
	</g>
</g>
<g>
	<g>
		<linearGradient id="SVGID_6_" gradientUnits="userSpaceOnUse" x1="410.1151" y1="392.1935" x2="410.1151" y2="339.9073">
			<stop  offset="0" style="stop-color:#3997CB"/>
			<stop  offset="1" style="stop-color:#3962CB"/>
		</linearGradient>
		<polygon class="st5" points="381,352.2 391.2,339.9 439.2,379.9 429,392.2 		"/>
	</g>
</g>
<g>
	<g>
		<linearGradient id="SVGID_7_" gradientUnits="userSpaceOnUse" x1="354.112" y1="418.059" x2="354.112" y2="362.059">
			<stop  offset="0" style="stop-color:#3997CB"/>
			<stop  offset="1" style="stop-color:#3962CB"/>
		</linearGradient>
		<rect x="346.1" y="362.1" class="st6" width="16" height="56"/>
	</g>
</g>
<g>
	<g>
		<linearGradient id="SVGID_8_" gradientUnits="userSpaceOnUse" x1="42.1058" y1="153.8047" x2="42.1058" y2="122.2936">
			<stop  offset="0" style="stop-color:#3997CB"/>
			<stop  offset="1" style="stop-color:#3962CB"/>
		</linearGradient>
		<polygon class="st7" points="8.2,138.3 72.2,122.3 76,137.8 12,153.8 		"/>
	</g>
</g>
<g>
	<g>
		<linearGradient id="SVGID_9_" gradientUnits="userSpaceOnUse" x1="54.1032" y1="96.568" x2="54.1032" y2="43.5594">
			<stop  offset="0" style="stop-color:#3997CB"/>
			<stop  offset="1" style="stop-color:#3962CB"/>
		</linearGradient>
		<polygon class="st8" points="21.5,56.6 30.8,43.6 86.7,83.6 77.5,96.6 		"/>
	</g>
</g>
<g>
	<g>
		<linearGradient id="SVGID_10_" gradientUnits="userSpaceOnUse" x1="105.9344" y1="68.025" x2="105.9344" y2="6.670621e-02">
			<stop  offset="0" style="stop-color:#3997CB"/>
			<stop  offset="1" style="stop-color:#3962CB"/>
		</linearGradient>
		<polygon class="st9" points="90,4 105.5,0.1 121.9,64.1 106.4,68 		"/>
	</g>
</g>
</svg>
