<?xml version="1.0" encoding="utf-8"?>
<!-- Generator: Adobe Illustrator 22.0.1, SVG Export Plug-In . SVG Version: 6.00 Build 0)  -->
<svg version="1.1" id="Layer_5" xmlns="http://www.w3.org/2000/svg" xmlns:xlink="http://www.w3.org/1999/xlink" x="0px" y="0px"
	 viewBox="0 0 512 512" style="enable-background:new 0 0 512 512;" xml:space="preserve">
<style type="text/css">
	.st0{fill:url(#SVGID_1_);}
	.st1{fill:url(#SVGID_2_);}
	.st2{fill:url(#SVGID_3_);}
	.st3{fill:url(#SVGID_4_);}
	.st4{fill:url(#SVGID_5_);}
	.st5{fill:url(#SVGID_6_);}
	.st6{fill:url(#SVGID_7_);}
</style>
<linearGradient id="SVGID_1_" gradientUnits="userSpaceOnUse" x1="167.4" y1="367.176" x2="167.4" y2="347.688">
	<stop  offset="0" style="stop-color:#3997CB"/>
	<stop  offset="1" style="stop-color:#3962CB"/>
</linearGradient>
<path class="st0" d="M172.4,347.7l-15.2,5c1.6,5,3.7,9.8,6,14.5l14.2-7.3C175.5,356,173.8,351.9,172.4,347.7L172.4,347.7z"/>
<linearGradient id="SVGID_2_" gradientUnits="userSpaceOnUse" x1="265.76" y1="424" x2="265.76" y2="262.488">
	<stop  offset="0" style="stop-color:#3997CB"/>
	<stop  offset="1" style="stop-color:#3962CB"/>
</linearGradient>
<path class="st1" d="M329.3,271.3c9.6,14.4,14.7,31.3,14.7,48.7c0,48.5-39.5,88-88,88c-28.2,0-55-13.7-71.5-36.7l-13,9.3
	C191,407.8,222.6,424,256,424c57.3,0,104-46.7,104-104c0-20.6-6-40.4-17.3-57.5L329.3,271.3z"/>
<linearGradient id="SVGID_3_" gradientUnits="userSpaceOnUse" x1="256" y1="503.9999" x2="256" y2="120">
	<stop  offset="0" style="stop-color:#3997CB"/>
	<stop  offset="1" style="stop-color:#3962CB"/>
</linearGradient>
<path class="st2" d="M480,120c-13.2,0-24,10.8-24,24c0,4.5,1.3,8.8,3.5,12.4l-43.5,53.1c-2.5-0.9-5.2-1.5-8.1-1.5
	c-1.2,0-2.3,0.2-3.4,0.3l-46.1-46.1L316,195.3c-3.5-2.1-7.6-3.3-12-3.3c-0.6,0-1.2,0.1-1.8,0.2c0,0-0.1,0-0.1,0l-7-56.1h-78.1l-7,56
	c-3.9,1.4-7.9,3.1-11.8,4.9l-44.6-34.7l-55.2,55.2l34.7,44.6c-0.2,0.5-0.4,0.9-0.6,1.4l-76.5-30.6c0-0.3,0.1-0.6,0.1-0.9
	c0-13.2-10.8-24-24-24S8,218.8,8,232s10.8,24,24,24c7.2,0,13.5-3.2,17.9-8.2l68.4,27.4L72,280.9v78.1l56,7c1.4,3.9,3.1,7.9,4.9,11.8
	l-34.7,44.6l55.2,55.2l44.6-34.7c3.9,1.9,7.8,3.5,11.8,4.9l7,56h78.1l7-56c3.9-1.4,7.9-3.1,11.8-4.9l44.6,34.7l55.2-55.2L379,377.9
	c1.9-3.9,3.5-7.8,4.9-11.8l56-7v-78.1l-56-7c-1.4-3.9-3.1-7.9-4.9-11.8l11.1-14.3c4.4,5,10.7,8.1,17.9,8.1c13.2,0,24-10.8,24-24
	c0-4.5-1.3-8.8-3.5-12.4l43.5-53.1c2.5,0.9,5.2,1.5,8.1,1.5c13.2,0,24-10.8,24-24S493.2,120,480,120L480,120z M32,240
	c-4.4,0-8-3.6-8-8s3.6-8,8-8s8,3.6,8,8S36.4,240,32,240z M389.9,216.4c-1.1,1.3-2.1,2.8-3,4.3l-59.4-9.1c-0.3-1.4-0.7-2.7-1.2-4
	l30.8-23.9L389.9,216.4z M312,216c0,4.4-3.6,8-8,8s-8-3.6-8-8s3.6-8,8-8S312,211.6,312,216z M119.6,218.8l35.3-35.3l41.5,32.3
	l4.5-2.4c6.2-3.2,12.5-5.9,18.8-7.8l4.9-1.5l6.5-52.1h49.9l5.9,47.3c-4.2,4.3-6.8,10.2-6.8,16.7c0,6.7,2.8,12.8,7.3,17.2l-8.6,18.6
	c-7.2-2.4-14.8-3.7-22.7-3.7c-27.8,0-51.8,15.8-63.9,38.9l-16.2-6.2c0-0.2,0.1-0.4,0.1-0.6c0-13.2-10.8-24-24-24
	c-1.1,0-2.2,0.2-3.3,0.3L119.6,218.8z M201.4,307.6l30.6,11.8c0,0.2-0.1,0.4-0.1,0.6c0,13.2,10.8,24,24,24s24-10.8,24-24
	c0-6.7-2.8-12.8-7.3-17.2l13.7-29.8c15.4,10,25.5,27.3,25.5,46.9c0,30.9-25.1,56-56,56s-56-25.1-56-56
	C200,315.7,200.5,311.6,201.4,307.6L201.4,307.6z M256,312c4.4,0,8,3.6,8,8s-3.6,8-8,8s-8-3.6-8-8S251.6,312,256,312z M258.2,296.2
	c-0.7-0.1-1.4-0.2-2.2-0.2c-7.3,0-13.7,3.3-18.1,8.5l-30.7-11.8c9.6-17.1,27.9-28.7,48.8-28.7c5.5,0,10.9,0.8,16,2.3L258.2,296.2z
	 M152,272c4.4,0,8,3.6,8,8s-3.6,8-8,8s-8-3.6-8-8S147.6,272,152,272z M362.5,264.9c3.2,6.2,5.9,12.5,7.8,18.8l1.5,4.9l52.1,6.5v49.9
	l-52.1,6.5l-1.5,4.9c-2,6.2-4.6,12.5-7.8,18.8l-2.4,4.6l32.3,41.5l-35.3,35.3l-41.5-32.3l-4.5,2.4c-6.2,3.2-12.5,5.9-18.8,7.8
	l-4.9,1.5l-6.5,52.1h-49.9l-6.5-52.1l-4.9-1.5c-6.2-2-12.6-4.6-18.8-7.8l-4.5-2.4l-41.5,32.3l-35.3-35.3l32.3-41.5l-2.4-4.6
	c-3.2-6.2-5.9-12.5-7.8-18.8l-1.5-4.9L88,344.9v-49.9l42.1-5.3c3.8,8.4,12.1,14.2,21.9,14.2c7.3,0,13.7-3.3,18.1-8.5l16.3,6.3
	c-1.5,5.8-2.4,11.9-2.4,18.2c0,39.7,32.3,72,72,72s72-32.3,72-72c0-26.1-14-48.9-34.8-61.5l8.6-18.7c0.7,0.1,1.4,0.2,2.2,0.2
	c9.1,0,17-5.2,21-12.7l54.3,8.4l-19.2,24.6L362.5,264.9z M408,240c-4.4,0-8-3.6-8-8s3.6-8,8-8s8,3.6,8,8S412.4,240,408,240z
	 M480,152c-4.4,0-8-3.6-8-8s3.6-8,8-8s8,3.6,8,8S484.4,152,480,152z"/>
<linearGradient id="SVGID_4_" gradientUnits="userSpaceOnUse" x1="120" y1="171.312" x2="120" y2="8">
	<stop  offset="0" style="stop-color:#3997CB"/>
	<stop  offset="1" style="stop-color:#3962CB"/>
</linearGradient>
<path class="st3" d="M203.3,88H168V8h-16v96h12.7L120,148.7L75.3,104H88V40H72v48H36.7l83.3,83.3L203.3,88z"/>
<linearGradient id="SVGID_5_" gradientUnits="userSpaceOnUse" x1="80" y1="24" x2="80" y2="8">
	<stop  offset="0" style="stop-color:#3997CB"/>
	<stop  offset="1" style="stop-color:#3962CB"/>
</linearGradient>
<path class="st4" d="M72,8h16v16H72V8z"/>
<linearGradient id="SVGID_6_" gradientUnits="userSpaceOnUse" x1="392" y1="152" x2="392" y2="4.688">
	<stop  offset="0" style="stop-color:#3997CB"/>
	<stop  offset="1" style="stop-color:#3962CB"/>
</linearGradient>
<path class="st5" d="M344,152h16V72h-12.7L392,27.3L436.7,72H424v48h16V88h35.3L392,4.7L308.7,88H344V152z"/>
<linearGradient id="SVGID_7_" gradientUnits="userSpaceOnUse" x1="432" y1="152" x2="432" y2="136">
	<stop  offset="0" style="stop-color:#3997CB"/>
	<stop  offset="1" style="stop-color:#3962CB"/>
</linearGradient>
<path class="st6" d="M424,136h16v16h-16V136z"/>
</svg>
