<?xml version="1.0" encoding="UTF-8"?>
<!DOCTYPE svg PUBLIC "-//W3C//DTD SVG 1.1//EN" "http://www.w3.org/Graphics/SVG/1.1/DTD/svg11.dtd">
<!-- Creator: CorelDRAW -->
<svg xmlns="http://www.w3.org/2000/svg" xml:space="preserve" width="6.82666in" height="6.82666in" style="shape-rendering:geometricPrecision; text-rendering:geometricPrecision; image-rendering:optimizeQuality; fill-rule:evenodd; clip-rule:evenodd"
viewBox="0 0 6.82666 6.82666"
 xmlns:xlink="http://www.w3.org/1999/xlink">
 <defs>
  <style type="text/css">
   <![CDATA[
    .fil0 {fill:none}
    .fil2 {fill:#424242}
    .fil1 {fill:#424242;fill-rule:nonzero}
   ]]>
  </style>
 </defs>
 <g id="Layer_x0020_1">
  <metadata id="CorelCorpID_0Corel-Layer"/>
  <rect class="fil0" width="6.82666" height="6.82666"/>
  <rect class="fil0" x="0.853332" y="0.853329" width="5.12" height="5.12"/>
  <g id="_485280048">
   <path id="_485280600" class="fil1" d="M2.34439 1.49334l2.98667 0c0.0589094,0 0.106669,0.0477598 0.106669,0.106669l0 0.213331c0,0.0589094 -0.0477598,0.106669 -0.106669,0.106669l-2.98667 0c-0.0589094,0 -0.106669,-0.0477598 -0.106669,-0.106669l0 -0.213331c0,-0.0589094 0.0477598,-0.106669 0.106669,-0.106669z"/>
   <path id="_485280552" class="fil1" d="M2.34439 5.01332l2.98667 0c0.0589094,0 0.106669,0.0477598 0.106669,0.106669l0 0.213331c0,0.0589094 -0.0477598,0.106669 -0.106669,0.106669l-2.98667 0c-0.0589094,0 -0.106669,-0.0477598 -0.106669,-0.106669l0 -0.213331c0,-0.0589094 0.0477598,-0.106669 0.106669,-0.106669z"/>
   <path id="_485280960" class="fil1" d="M2.34439 3.31011l2.98667 0c0.0589094,0 0.106669,0.0477598 0.106669,0.106669l0 0.213331c0,0.0589094 -0.0477598,0.106669 -0.106669,0.106669l-2.98667 0c-0.0589094,0 -0.106669,-0.0477598 -0.106669,-0.106669l0 -0.213331c0,-0.0589094 0.0477598,-0.106669 0.106669,-0.106669z"/>
   <polygon id="_485279880" class="fil2" points="1.38894,1.49333 1.81105,1.49333 1.81105,1.92 1.38894,1.92 "/>
   <polygon id="_485280168" class="fil2" points="1.38894,3.31011 1.81105,3.31011 1.81105,3.73678 1.38894,3.73678 "/>
   <polygon id="_485279664" class="fil2" points="1.38894,5.01332 1.81105,5.01332 1.81105,5.43999 1.38894,5.43999 "/>
  </g>
 </g>
</svg>
