<?xml version="1.0" encoding="utf-8"?>
<!-- Generator: Adobe Illustrator 22.0.1, SVG Export Plug-In . SVG Version: 6.00 Build 0)  -->
<svg version="1.1" id="Capa_1" xmlns="http://www.w3.org/2000/svg" xmlns:xlink="http://www.w3.org/1999/xlink" x="0px" y="0px"
	 viewBox="0 0 480 480" style="enable-background:new 0 0 480 480;" xml:space="preserve">
<style type="text/css">
	.st0{fill:#FFFFFF;}
</style>
<g>
	<g>
		<path class="st0" d="M472,0C472,0,472,0,472,0H8C3.6,0,0,3.6,0,8c0,0,0,0,0,0v160h16V16h448v176H184v16h288c4.4,0,8-3.6,8-8
			c0,0,0,0,0,0V8C480,3.6,476.4,0,472,0z"/>
	</g>
</g>
<g>
	<g>
		<rect x="264" y="40" class="st0" width="160" height="16"/>
	</g>
</g>
<g>
	<g>
		<rect x="288" y="88" class="st0" width="160" height="16"/>
	</g>
</g>
<g>
	<g>
		<rect x="256" y="136" class="st0" width="160" height="16"/>
	</g>
</g>
<g>
	<g>
		<path class="st0" d="M255.4,69c-5.5-13.2-20.6-19.4-33.8-13.9c-0.2,0.1-0.4,0.2-0.7,0.3L156.1,89c2.6-5.3,3.9-11.1,3.9-17
			c0-22.1-17.9-40-40-40S80,49.9,80,72c0,8.7,2.9,17.1,8.2,24h-0.3c-22.7,0.2-43,14.3-51,35.5l-21.4,73.6
			c-5.1,13.2,1.5,28,14.7,33.1c6,2.3,12.7,2.3,18.7-0.1c6.9-2.8,12.2-8.4,14.7-15.4l8.4-26.6v115.8c-6.9-5.3-15.3-8.2-24-8.2
			c-22.1,0-40,17.8-40,39.9c0,10.8,4.3,21.2,12.1,28.7C7.8,378.5,0,391.2,0,405v67c0,4.4,3.6,8,8,8c0,0,0,0,0,0h80c4.4,0,8-3.6,8-8
			c0,0,0,0,0,0v-67c0-11.3-5.3-22-14.3-29h60.6c-9,6.9-14.2,17.6-14.3,29v67c0,4.4,3.6,8,8,8c0,0,0,0,0,0h80c4.4,0,8-3.6,8-8
			c0,0,0,0,0,0v-67c0-13.8-7.8-26.4-20.1-32.7c15.8-15.4,16.1-40.7,0.7-56.5c-9.5-9.7-23.3-14-36.6-11.2V140.9l73.4-38.1
			C254.6,97.2,260.8,82.1,255.4,69z M120,48c13.3,0,24,10.7,24,24s-10.7,24-24,24c-13.2,0-24-10.8-24-24C96,58.7,106.7,48,120,48z
			 M48,319.7c13.3,0,24,10.7,24,24s-10.7,24-24,24s-24-10.7-24-24C24,330.5,34.8,319.7,48,319.7z M80,464H16v-59
			c0-11.6,9.4-20.9,21-21H59c11.6,0,20.9,9.4,21,21V464z M208,405v59h-64v-59c0-11.6,9.4-20.9,21-21H187
			C198.6,384,208,393.4,208,405z M176,319.7c13.2,0,24,10.8,24,24c0,13.3-10.7,24-24,24s-24-10.7-24-24S162.7,319.7,176,319.7z
			 M240.7,82.3c-1.1,2.7-3.3,4.9-6,5.9l-78.4,40.7c-2.7,1.4-4.3,4.1-4.3,7.1v175.9C137,323,131.8,343,139.6,360H128V224h-16v136
			H84.4c2.3-5,3.5-10.5,3.5-16h0V144c0-4.4-3.6-8-8-8c-3.5,0-6.6,2.3-7.6,5.6l-23.9,76c-1.8,5-7.3,7.6-12.3,5.8
			c-0.3-0.1-0.7-0.3-1-0.4c-4.6-2.4-6.6-8-4.5-12.7L52,136.6c5.8-14.8,20-24.6,35.8-24.6h56.6c1.3,0,2.5-0.3,3.7-0.9l79.5-41.3
			c4.8-2,10.3,0,12.6,4.7C241.5,76.9,241.7,79.8,240.7,82.3z"/>
	</g>
</g>
<g>
	<g>
		<path class="st0" d="M331.9,372.3c15.8-15.4,16.2-40.7,0.7-56.6s-40.7-16.2-56.6-0.7s-16.2,40.7-0.7,56.6c0.2,0.2,0.5,0.5,0.7,0.7
			c-12.3,6.3-20,18.9-20.1,32.7v67c0,4.4,3.6,8,8,8c0,0,0,0,0,0h80c4.4,0,8-3.6,8-8c0,0,0,0,0,0v-67
			C352,391.2,344.2,378.5,331.9,372.3z M304,319.7c13.3,0,24,10.7,24,24s-10.7,24-24,24s-24-10.7-24-24
			C280,330.5,290.8,319.7,304,319.7z M336,464h-64v-59c0-11.6,9.4-20.9,21-21H315c11.6,0,20.9,9.4,21,21V464z"/>
	</g>
</g>
<g>
	<g>
		<path class="st0" d="M459.9,372.3c15.8-15.4,16.2-40.7,0.7-56.6s-40.7-16.2-56.6-0.7s-16.2,40.7-0.7,56.6c0.2,0.2,0.5,0.5,0.7,0.7
			c-12.3,6.3-20,18.9-20.1,32.7v67c0,4.4,3.6,8,8,8c0,0,0,0,0,0h80c4.4,0,8-3.6,8-8c0,0,0,0,0,0v-67
			C480,391.2,472.2,378.5,459.9,372.3z M432,319.7c13.3,0,24,10.7,24,24s-10.7,24-24,24s-24-10.7-24-24
			C408,330.5,418.8,319.7,432,319.7z M464,464h-64v-59c0-11.6,9.4-20.9,21-21H443c11.6,0,20.9,9.4,21,21V464z"/>
	</g>
</g>
</svg>
