<?xml version="1.0" encoding="utf-8"?>
<!-- Generator: Adobe Illustrator 22.0.1, SVG Export Plug-In . SVG Version: 6.00 Build 0)  -->
<svg version="1.1" id="Layer_1" xmlns="http://www.w3.org/2000/svg" xmlns:xlink="http://www.w3.org/1999/xlink" x="0px" y="0px"
	 viewBox="0 0 41.1 40.8" style="enable-background:new 0 0 41.1 40.8;" xml:space="preserve">
<style type="text/css">
	.st0{fill:url(#SVGID_1_);}
	.st1{fill:url(#SVGID_2_);}
	.st2{fill:url(#SVGID_3_);}
	.st3{fill:url(#SVGID_4_);}
	.st4{fill:url(#SVGID_5_);}
	.st5{fill:url(#SVGID_6_);}
	.st6{fill:url(#SVGID_7_);}
	.st7{fill:url(#SVGID_8_);}
	.st8{fill:url(#SVGID_9_);}
	.st9{fill:url(#SVGID_10_);}
	.st10{fill:url(#SVGID_11_);}
	.st11{fill:url(#SVGID_12_);}
	.st12{fill:url(#SVGID_13_);}
	.st13{fill:url(#SVGID_14_);}
	.st14{fill:url(#SVGID_15_);}
	.st15{fill:url(#SVGID_16_);}
	.st16{fill:url(#SVGID_17_);}
	.st17{fill:url(#SVGID_18_);}
	.st18{fill:url(#SVGID_19_);}
	.st19{fill:url(#SVGID_20_);}
	.st20{fill:url(#SVGID_21_);}
	.st21{fill:url(#SVGID_22_);}
	.st22{fill:url(#SVGID_23_);}
	.st23{fill:url(#SVGID_24_);}
	.st24{fill:url(#SVGID_25_);}
	.st25{fill:url(#SVGID_26_);}
	.st26{fill:url(#SVGID_27_);}
	.st27{fill-rule:evenodd;clip-rule:evenodd;fill:#4F76B7;}
</style>
<g>
	<g>
		<g>
			<radialGradient id="SVGID_1_" cx="21.2334" cy="3.9188" r="43.9229" gradientUnits="userSpaceOnUse">
				<stop  offset="0.1344" style="stop-color:#FFFFFF"/>
				<stop  offset="0.3412" style="stop-color:#F9FAFB"/>
				<stop  offset="0.5196" style="stop-color:#EEF0F3"/>
				<stop  offset="0.6875" style="stop-color:#DCE3E8"/>
				<stop  offset="0.8479" style="stop-color:#C4D2DB"/>
				<stop  offset="1" style="stop-color:#A8BFCB"/>
			</radialGradient>
			<circle class="st0" cx="19.9" cy="20.9" r="17.9"/>
			<radialGradient id="SVGID_2_" cx="21.2951" cy="5.1776" r="43.3629" gradientUnits="userSpaceOnUse">
				<stop  offset="0.1344" style="stop-color:#FFFFFF"/>
				<stop  offset="0.3412" style="stop-color:#F9FAFB"/>
				<stop  offset="0.5196" style="stop-color:#EEF0F3"/>
				<stop  offset="0.6875" style="stop-color:#DCE3E8"/>
				<stop  offset="0.8479" style="stop-color:#C4D2DB"/>
				<stop  offset="1" style="stop-color:#A8BFCB"/>
			</radialGradient>
			<circle class="st1" cx="19.9" cy="20.9" r="17.6"/>
			<radialGradient id="SVGID_3_" cx="21.3546" cy="6.3959" r="42.7632" gradientUnits="userSpaceOnUse">
				<stop  offset="0.1344" style="stop-color:#FFFFFF"/>
				<stop  offset="0.3412" style="stop-color:#F9FAFB"/>
				<stop  offset="0.5196" style="stop-color:#EEF0F3"/>
				<stop  offset="0.6875" style="stop-color:#DCE3E8"/>
				<stop  offset="0.8479" style="stop-color:#C4D2DB"/>
				<stop  offset="1" style="stop-color:#A8BFCB"/>
			</radialGradient>
			<path class="st2" d="M20.7,3.6c9.5,0.4,16.9,8.5,16.5,18c-0.4,9.5-8.5,16.9-18,16.5c-9.5-0.4-16.9-8.5-16.5-18
				C3,10.6,11.1,3.2,20.7,3.6z"/>
			<radialGradient id="SVGID_4_" cx="21.4121" cy="7.5746" r="42.1285" gradientUnits="userSpaceOnUse">
				<stop  offset="0.1344" style="stop-color:#FFFFFF"/>
				<stop  offset="0.3412" style="stop-color:#F9FAFB"/>
				<stop  offset="0.5196" style="stop-color:#EEF0F3"/>
				<stop  offset="0.6875" style="stop-color:#DCE3E8"/>
				<stop  offset="0.8479" style="stop-color:#C4D2DB"/>
				<stop  offset="1" style="stop-color:#A8BFCB"/>
			</radialGradient>
			<path class="st3" d="M21,3.9c9.4,0.6,16.5,8.7,15.8,18.1c-0.6,9.4-8.7,16.5-18.1,15.8C9.4,37.2,2.3,29.1,2.9,19.7
				C3.5,10.4,11.7,3.3,21,3.9z"/>
			<radialGradient id="SVGID_5_" cx="21.4679" cy="8.7151" r="41.4634" gradientUnits="userSpaceOnUse">
				<stop  offset="0.1344" style="stop-color:#FFFFFF"/>
				<stop  offset="0.3412" style="stop-color:#F9FAFB"/>
				<stop  offset="0.5196" style="stop-color:#EEF0F3"/>
				<stop  offset="0.6875" style="stop-color:#DCE3E8"/>
				<stop  offset="0.8479" style="stop-color:#C4D2DB"/>
				<stop  offset="1" style="stop-color:#A8BFCB"/>
			</radialGradient>
			<path class="st4" d="M21.4,4.2c9.2,0.8,16,9,15.1,18.2c-0.8,9.2-9,16-18.2,15.1c-9.2-0.8-16-9-15.1-18.2
				C4.1,10.1,12.2,3.4,21.4,4.2z"/>
			<radialGradient id="SVGID_6_" cx="21.5221" cy="9.8185" r="40.7721" gradientUnits="userSpaceOnUse">
				<stop  offset="0.1344" style="stop-color:#FFFFFF"/>
				<stop  offset="0.3412" style="stop-color:#F9FAFB"/>
				<stop  offset="0.5196" style="stop-color:#EEF0F3"/>
				<stop  offset="0.6875" style="stop-color:#DCE3E8"/>
				<stop  offset="0.8479" style="stop-color:#C4D2DB"/>
				<stop  offset="1" style="stop-color:#A8BFCB"/>
			</radialGradient>
			<path class="st5" d="M21.8,4.5c9,1.1,15.5,9.2,14.4,18.3c-1.1,9-9.2,15.5-18.3,14.4C8.9,36.2,2.5,28,3.5,19
				C4.6,9.9,12.8,3.5,21.8,4.5z"/>
			<radialGradient id="SVGID_7_" cx="21.5748" cy="10.8864" r="40.059" gradientUnits="userSpaceOnUse">
				<stop  offset="0.1344" style="stop-color:#FFFFFF"/>
				<stop  offset="0.3412" style="stop-color:#F9FAFB"/>
				<stop  offset="0.5196" style="stop-color:#EEF0F3"/>
				<stop  offset="0.6875" style="stop-color:#DCE3E8"/>
				<stop  offset="0.8479" style="stop-color:#C4D2DB"/>
				<stop  offset="1" style="stop-color:#A8BFCB"/>
			</radialGradient>
			<path class="st6" d="M22.2,4.8c8.9,1.3,15,9.5,13.8,18.4c-1.3,8.9-9.5,15-18.4,13.8c-8.9-1.3-15-9.5-13.8-18.4
				C5.1,9.7,13.3,3.6,22.2,4.8z"/>
			<radialGradient id="SVGID_8_" cx="21.6263" cy="11.9202" r="39.3283" gradientUnits="userSpaceOnUse">
				<stop  offset="0.1344" style="stop-color:#FFFFFF"/>
				<stop  offset="0.3412" style="stop-color:#F9FAFB"/>
				<stop  offset="0.5196" style="stop-color:#EEF0F3"/>
				<stop  offset="0.6875" style="stop-color:#DCE3E8"/>
				<stop  offset="0.8479" style="stop-color:#C4D2DB"/>
				<stop  offset="1" style="stop-color:#A8BFCB"/>
			</radialGradient>
			<path class="st7" d="M22.6,5.1c8.7,1.5,14.6,9.7,13.1,18.4c-1.5,8.7-9.7,14.6-18.4,13.1C8.5,35.2,2.7,26.9,4.1,18.2
				C5.6,9.5,13.9,3.7,22.6,5.1z"/>
			<radialGradient id="SVGID_9_" cx="21.6768" cy="12.9214" r="38.5839" gradientUnits="userSpaceOnUse">
				<stop  offset="0.1344" style="stop-color:#FFFFFF"/>
				<stop  offset="0.3412" style="stop-color:#F9FAFB"/>
				<stop  offset="0.5196" style="stop-color:#EEF0F3"/>
				<stop  offset="0.6875" style="stop-color:#DCE3E8"/>
				<stop  offset="0.8479" style="stop-color:#C4D2DB"/>
				<stop  offset="1" style="stop-color:#A8BFCB"/>
			</radialGradient>
			<path class="st8" d="M23,5.4C31.5,7.1,37,15.4,35.3,24c-1.7,8.5-10,14.1-18.5,12.4c-8.5-1.7-14.1-10-12.4-18.5
				C6.1,9.3,14.4,3.7,23,5.4z"/>
			<radialGradient id="SVGID_10_" cx="21.7265" cy="13.8918" r="37.8297" gradientUnits="userSpaceOnUse">
				<stop  offset="0.1344" style="stop-color:#FFFFFF"/>
				<stop  offset="0.3412" style="stop-color:#F9FAFB"/>
				<stop  offset="0.5196" style="stop-color:#EEF0F3"/>
				<stop  offset="0.6875" style="stop-color:#DCE3E8"/>
				<stop  offset="0.8479" style="stop-color:#C4D2DB"/>
				<stop  offset="1" style="stop-color:#A8BFCB"/>
			</radialGradient>
			<path class="st9" d="M23.3,5.7C31.7,7.6,36.9,16,35,24.3C33.1,32.7,24.8,37.9,16.4,36C8.1,34.1,2.8,25.8,4.7,17.4
				C6.6,9.1,15,3.8,23.3,5.7z"/>
			<radialGradient id="SVGID_11_" cx="21.7756" cy="14.8332" r="37.0695" gradientUnits="userSpaceOnUse">
				<stop  offset="0.1344" style="stop-color:#FFFFFF"/>
				<stop  offset="0.3412" style="stop-color:#F9FAFB"/>
				<stop  offset="0.5196" style="stop-color:#EEF0F3"/>
				<stop  offset="0.6875" style="stop-color:#DCE3E8"/>
				<stop  offset="0.8479" style="stop-color:#C4D2DB"/>
				<stop  offset="1" style="stop-color:#A8BFCB"/>
			</radialGradient>
			<path class="st10" d="M23.7,6c8.2,2.1,13.1,10.5,11,18.7c-2.1,8.2-10.5,13.1-18.7,11C7.9,33.6,2.9,25.2,5,17.1
				C7.2,8.9,15.5,3.9,23.7,6z"/>
			<radialGradient id="SVGID_12_" cx="21.8245" cy="15.7474" r="36.3068" gradientUnits="userSpaceOnUse">
				<stop  offset="0.1344" style="stop-color:#FFFFFF"/>
				<stop  offset="0.3412" style="stop-color:#F9FAFB"/>
				<stop  offset="0.5196" style="stop-color:#EEF0F3"/>
				<stop  offset="0.6875" style="stop-color:#DCE3E8"/>
				<stop  offset="0.8479" style="stop-color:#C4D2DB"/>
				<stop  offset="1" style="stop-color:#A8BFCB"/>
			</radialGradient>
			<path class="st11" d="M24.1,6.4c8,2.3,12.6,10.7,10.3,18.7c-2.3,8-10.7,12.6-18.7,10.3C7.6,33.1,3,24.7,5.4,16.7
				C7.7,8.6,16.1,4,24.1,6.4z"/>
			<radialGradient id="SVGID_13_" cx="21.8733" cy="16.6365" r="35.545" gradientUnits="userSpaceOnUse">
				<stop  offset="0.1344" style="stop-color:#FFFFFF"/>
				<stop  offset="0.3412" style="stop-color:#F9FAFB"/>
				<stop  offset="0.5196" style="stop-color:#EEF0F3"/>
				<stop  offset="0.6875" style="stop-color:#DCE3E8"/>
				<stop  offset="0.8479" style="stop-color:#C4D2DB"/>
				<stop  offset="1" style="stop-color:#A8BFCB"/>
			</radialGradient>
			<path class="st12" d="M24.5,6.7c7.9,2.5,12.2,11,9.6,18.8c-2.5,7.9-11,12.2-18.8,9.6c-7.9-2.5-12.2-11-9.6-18.8
				C8.2,8.4,16.6,4.1,24.5,6.7z"/>
			<radialGradient id="SVGID_14_" cx="21.9223" cy="17.5025" r="34.7874" gradientUnits="userSpaceOnUse">
				<stop  offset="0.1344" style="stop-color:#FFFFFF"/>
				<stop  offset="0.3412" style="stop-color:#F9FAFB"/>
				<stop  offset="0.5196" style="stop-color:#EEF0F3"/>
				<stop  offset="0.6875" style="stop-color:#DCE3E8"/>
				<stop  offset="0.8479" style="stop-color:#C4D2DB"/>
				<stop  offset="1" style="stop-color:#A8BFCB"/>
			</radialGradient>
			<path class="st13" d="M24.9,7c7.7,2.8,11.7,11.2,8.9,18.9c-2.8,7.7-11.2,11.7-18.9,8.9C7.2,32.1,3.2,23.6,6,15.9
				C8.7,8.2,17.2,4.2,24.9,7z"/>
			<radialGradient id="SVGID_15_" cx="21.9717" cy="18.3478" r="34.0369" gradientUnits="userSpaceOnUse">
				<stop  offset="0.1344" style="stop-color:#FFFFFF"/>
				<stop  offset="0.3412" style="stop-color:#F9FAFB"/>
				<stop  offset="0.5196" style="stop-color:#EEF0F3"/>
				<stop  offset="0.6875" style="stop-color:#DCE3E8"/>
				<stop  offset="0.8479" style="stop-color:#C4D2DB"/>
				<stop  offset="1" style="stop-color:#A8BFCB"/>
			</radialGradient>
			<path class="st14" d="M25.2,7.3c7.5,3,11.2,11.5,8.3,19c-3,7.5-11.5,11.2-19,8.3C7,31.5,3.3,23,6.3,15.5C9.2,8,17.7,4.3,25.2,7.3
				z"/>
			<radialGradient id="SVGID_16_" cx="22.022" cy="19.1747" r="33.2966" gradientUnits="userSpaceOnUse">
				<stop  offset="0.1344" style="stop-color:#FFFFFF"/>
				<stop  offset="0.3412" style="stop-color:#F9FAFB"/>
				<stop  offset="0.5196" style="stop-color:#EEF0F3"/>
				<stop  offset="0.6875" style="stop-color:#DCE3E8"/>
				<stop  offset="0.8479" style="stop-color:#C4D2DB"/>
				<stop  offset="1" style="stop-color:#A8BFCB"/>
			</radialGradient>
			<path class="st15" d="M25.6,7.6c7.4,3.2,10.7,11.7,7.6,19.1C30,34,21.5,37.4,14.1,34.2C6.8,31,3.4,22.5,6.6,15.1
				C9.7,7.8,18.3,4.4,25.6,7.6z"/>
			<radialGradient id="SVGID_17_" cx="22.0732" cy="19.9855" r="32.5694" gradientUnits="userSpaceOnUse">
				<stop  offset="0.1344" style="stop-color:#FFFFFF"/>
				<stop  offset="0.3412" style="stop-color:#F9FAFB"/>
				<stop  offset="0.5196" style="stop-color:#EEF0F3"/>
				<stop  offset="0.6875" style="stop-color:#DCE3E8"/>
				<stop  offset="0.8479" style="stop-color:#C4D2DB"/>
				<stop  offset="1" style="stop-color:#A8BFCB"/>
			</radialGradient>
			<path class="st16" d="M26,7.9c7.2,3.4,10.3,12,6.9,19.1c-3.4,7.2-12,10.3-19.1,6.9c-7.2-3.4-10.3-12-6.9-19.1
				C10.3,7.6,18.8,4.5,26,7.9z"/>
			<radialGradient id="SVGID_18_" cx="22.1257" cy="20.7829" r="31.8578" gradientUnits="userSpaceOnUse">
				<stop  offset="0.1344" style="stop-color:#FFFFFF"/>
				<stop  offset="0.3412" style="stop-color:#F9FAFB"/>
				<stop  offset="0.5196" style="stop-color:#EEF0F3"/>
				<stop  offset="0.6875" style="stop-color:#DCE3E8"/>
				<stop  offset="0.8479" style="stop-color:#C4D2DB"/>
				<stop  offset="1" style="stop-color:#A8BFCB"/>
			</radialGradient>
			<path class="st17" d="M26.4,8.2c7,3.6,9.8,12.2,6.2,19.2c-3.6,7-12.2,9.8-19.2,6.2c-7-3.6-9.8-12.2-6.2-19.2
				C10.8,7.4,19.4,4.6,26.4,8.2z"/>
			<radialGradient id="SVGID_19_" cx="22.1799" cy="21.5695" r="31.1647" gradientUnits="userSpaceOnUse">
				<stop  offset="0.1344" style="stop-color:#FFFFFF"/>
				<stop  offset="0.3412" style="stop-color:#F9FAFB"/>
				<stop  offset="0.5196" style="stop-color:#EEF0F3"/>
				<stop  offset="0.6875" style="stop-color:#DCE3E8"/>
				<stop  offset="0.8479" style="stop-color:#C4D2DB"/>
				<stop  offset="1" style="stop-color:#A8BFCB"/>
			</radialGradient>
			<path class="st18" d="M26.8,8.5c6.8,3.8,9.3,12.4,5.5,19.3c-3.8,6.8-12.4,9.3-19.3,5.5C6.1,29.5,3.7,20.8,7.5,14
				C11.3,7.1,19.9,4.7,26.8,8.5z"/>
			<radialGradient id="SVGID_20_" cx="22.2359" cy="22.348" r="30.4926" gradientUnits="userSpaceOnUse">
				<stop  offset="0.1344" style="stop-color:#FFFFFF"/>
				<stop  offset="0.3412" style="stop-color:#F9FAFB"/>
				<stop  offset="0.5196" style="stop-color:#EEF0F3"/>
				<stop  offset="0.6875" style="stop-color:#DCE3E8"/>
				<stop  offset="0.8479" style="stop-color:#C4D2DB"/>
				<stop  offset="1" style="stop-color:#A8BFCB"/>
			</radialGradient>
			<path class="st19" d="M27.2,8.8c6.7,4,8.8,12.7,4.8,19.4C28,34.8,19.3,37,12.6,33c-6.7-4-8.8-12.7-4.8-19.4
				C11.8,6.9,20.5,4.8,27.2,8.8z"/>
			<radialGradient id="SVGID_21_" cx="22.2941" cy="23.1211" r="29.8444" gradientUnits="userSpaceOnUse">
				<stop  offset="0.1344" style="stop-color:#FFFFFF"/>
				<stop  offset="0.3412" style="stop-color:#F9FAFB"/>
				<stop  offset="0.5196" style="stop-color:#EEF0F3"/>
				<stop  offset="0.6875" style="stop-color:#DCE3E8"/>
				<stop  offset="0.8479" style="stop-color:#C4D2DB"/>
				<stop  offset="1" style="stop-color:#A8BFCB"/>
			</radialGradient>
			<path class="st20" d="M27.5,9.1c6.5,4.2,8.4,12.9,4.1,19.5c-4.2,6.5-12.9,8.4-19.5,4.1c-6.5-4.2-8.4-12.9-4.1-19.5
				C12.3,6.7,21,4.9,27.5,9.1z"/>
			<radialGradient id="SVGID_22_" cx="22.3547" cy="23.8916" r="29.2229" gradientUnits="userSpaceOnUse">
				<stop  offset="0.1344" style="stop-color:#FFFFFF"/>
				<stop  offset="0.3412" style="stop-color:#F9FAFB"/>
				<stop  offset="0.5196" style="stop-color:#EEF0F3"/>
				<stop  offset="0.6875" style="stop-color:#DCE3E8"/>
				<stop  offset="0.8479" style="stop-color:#C4D2DB"/>
				<stop  offset="1" style="stop-color:#A8BFCB"/>
			</radialGradient>
			<path class="st21" d="M27.9,9.4c6.3,4.4,7.9,13.2,3.4,19.5c-4.4,6.3-13.2,7.9-19.5,3.4C5.5,27.9,4,19.2,8.4,12.8
				C12.8,6.5,21.6,5,27.9,9.4z"/>
			<radialGradient id="SVGID_23_" cx="22.4181" cy="24.6625" r="28.6314" gradientUnits="userSpaceOnUse">
				<stop  offset="0.1344" style="stop-color:#FFFFFF"/>
				<stop  offset="0.3412" style="stop-color:#F9FAFB"/>
				<stop  offset="0.5196" style="stop-color:#EEF0F3"/>
				<stop  offset="0.6875" style="stop-color:#DCE3E8"/>
				<stop  offset="0.8479" style="stop-color:#C4D2DB"/>
				<stop  offset="1" style="stop-color:#A8BFCB"/>
			</radialGradient>
			<path class="st22" d="M28.3,9.7c6.2,4.7,7.4,13.4,2.8,19.6c-4.7,6.2-13.4,7.4-19.6,2.8c-6.2-4.7-7.4-13.4-2.8-19.6
				C13.4,6.3,22.1,5,28.3,9.7z"/>
			<radialGradient id="SVGID_24_" cx="22.4844" cy="25.4366" r="28.0733" gradientUnits="userSpaceOnUse">
				<stop  offset="0.1344" style="stop-color:#FFFFFF"/>
				<stop  offset="0.3412" style="stop-color:#F9FAFB"/>
				<stop  offset="0.5196" style="stop-color:#EEF0F3"/>
				<stop  offset="0.6875" style="stop-color:#DCE3E8"/>
				<stop  offset="0.8479" style="stop-color:#C4D2DB"/>
				<stop  offset="1" style="stop-color:#A8BFCB"/>
			</radialGradient>
			<path class="st23" d="M28.7,10c6,4.9,6.9,13.7,2.1,19.7c-4.9,6-13.7,6.9-19.7,2.1c-6-4.9-6.9-13.7-2.1-19.7
				C13.9,6.1,22.7,5.1,28.7,10z"/>
			<radialGradient id="SVGID_25_" cx="22.5539" cy="26.2167" r="27.5528" gradientUnits="userSpaceOnUse">
				<stop  offset="0.1344" style="stop-color:#FFFFFF"/>
				<stop  offset="0.3412" style="stop-color:#F9FAFB"/>
				<stop  offset="0.5196" style="stop-color:#EEF0F3"/>
				<stop  offset="0.6875" style="stop-color:#DCE3E8"/>
				<stop  offset="0.8479" style="stop-color:#C4D2DB"/>
				<stop  offset="1" style="stop-color:#A8BFCB"/>
			</radialGradient>
			<path class="st24" d="M29.1,10.3c5.8,5.1,6.5,13.9,1.4,19.8c-5.1,5.8-13.9,6.5-19.8,1.4c-5.8-5.1-6.5-13.9-1.4-19.8
				C14.4,5.9,23.2,5.2,29.1,10.3z"/>
			<radialGradient id="SVGID_26_" cx="22.6269" cy="27.0057" r="27.0747" gradientUnits="userSpaceOnUse">
				<stop  offset="0.1344" style="stop-color:#FFFFFF"/>
				<stop  offset="0.3412" style="stop-color:#F9FAFB"/>
				<stop  offset="0.5196" style="stop-color:#EEF0F3"/>
				<stop  offset="0.6875" style="stop-color:#DCE3E8"/>
				<stop  offset="0.8479" style="stop-color:#C4D2DB"/>
				<stop  offset="1" style="stop-color:#A8BFCB"/>
			</radialGradient>
			<path class="st25" d="M29.5,10.6c5.7,5.3,6,14.2,0.7,19.8c-5.3,5.7-14.2,6-19.8,0.7c-5.7-5.3-6-14.2-0.7-19.8
				C14.9,5.6,23.8,5.3,29.5,10.6z"/>
			<radialGradient id="SVGID_27_" cx="22.7037" cy="27.8064" r="26.6445" gradientUnits="userSpaceOnUse">
				<stop  offset="0.1344" style="stop-color:#FFFFFF"/>
				<stop  offset="0.3412" style="stop-color:#F9FAFB"/>
				<stop  offset="0.5196" style="stop-color:#EEF0F3"/>
				<stop  offset="0.6875" style="stop-color:#DCE3E8"/>
				<stop  offset="0.8479" style="stop-color:#C4D2DB"/>
				<stop  offset="1" style="stop-color:#A8BFCB"/>
			</radialGradient>
			<path class="st26" d="M29.8,10.9c5.5,5.5,5.5,14.4,0,19.9c-5.5,5.5-14.4,5.5-19.9,0c-5.5-5.5-5.5-14.4,0-19.9
				C15.4,5.4,24.3,5.4,29.8,10.9z"/>
		</g>
	</g>
	<path class="st27" d="M21.7,16.2c0.4,0,0.9,0,1.3,0c0.1,0,0.1,0,0.2,0v-2.3c-0.2,0-0.5-0.1-0.7-0.1c-0.5,0-0.9,0-1.4,0
		c-0.7,0-1.3,0.2-1.9,0.6c-0.7,0.5-1,1.1-1.1,1.9C18,16.7,18,17,18,17.3c0,0.5,0,1,0,1.5V19h-2.2v2.6H18V28h2.7v-6.4h2.2
		c0.1-0.9,0.2-1.7,0.3-2.6c-0.2,0-0.3,0-0.5,0c-0.6,0-2,0-2,0s0-1.3,0-1.8C20.6,16.5,21.1,16.2,21.7,16.2z"/>
</g>
</svg>
