<?xml version="1.0" encoding="utf-8"?>
<!-- Generator: Adobe Illustrator 22.0.1, SVG Export Plug-In . SVG Version: 6.00 Build 0)  -->
<svg version="1.1" id="Layer_1" xmlns="http://www.w3.org/2000/svg" xmlns:xlink="http://www.w3.org/1999/xlink" x="0px" y="0px"
	 viewBox="0 0 86.7 87.8" style="enable-background:new 0 0 86.7 87.8;" xml:space="preserve">
<style type="text/css">
	.st0{fill:#D6DBE6;}
	.st1{fill:#334B7F;}
	.st2{fill:#F2F2F2;}
</style>
<g>
	<path class="st0" d="M1,43.3C1,20.2,19.7,1.4,42.8,1.4c23.1,0,41.8,18.7,41.8,41.8S66,85.1,42.8,85.1C19.7,85.1,1,66.4,1,43.3z"/>
	
		<ellipse transform="matrix(0.7907 -0.6122 0.6122 0.7907 -17.5271 35.2866)" class="st1" cx="42.8" cy="43.3" rx="34.5" ry="34.5"/>
	<path class="st2" d="M51.6,43.3h-5.7v20.4h-8.5V43.3h-4v-7.2h4v-4.7c0-3.3,1.6-8.5,8.5-8.5l6.3,0v7h-4.5c-0.7,0-1.8,0.4-1.8,2v4.2
		h6.4L51.6,43.3z M51.6,43.3"/>
</g>
</svg>
