<?xml version="1.0" encoding="utf-8"?>
<!-- Generator: Adobe Illustrator 22.0.1, SVG Export Plug-In . SVG Version: 6.00 Build 0)  -->
<svg version="1.1" id="Layer_1" xmlns="http://www.w3.org/2000/svg" xmlns:xlink="http://www.w3.org/1999/xlink" x="0px" y="0px"
	 viewBox="0 0 41.1 40.8" style="enable-background:new 0 0 41.1 40.8;" xml:space="preserve">
<style type="text/css">
	.st0{fill:url(#SVGID_1_);}
	.st1{fill:url(#SVGID_2_);}
	.st2{fill:url(#SVGID_3_);}
	.st3{fill:url(#SVGID_4_);}
	.st4{fill:url(#SVGID_5_);}
	.st5{fill:url(#SVGID_6_);}
	.st6{fill:url(#SVGID_7_);}
	.st7{fill:url(#SVGID_8_);}
	.st8{fill:url(#SVGID_9_);}
	.st9{fill:url(#SVGID_10_);}
	.st10{fill:url(#SVGID_11_);}
	.st11{fill:url(#SVGID_12_);}
	.st12{fill:url(#SVGID_13_);}
	.st13{fill:url(#SVGID_14_);}
	.st14{fill:url(#SVGID_15_);}
	.st15{fill:url(#SVGID_16_);}
	.st16{fill:url(#SVGID_17_);}
	.st17{fill:url(#SVGID_18_);}
	.st18{fill:url(#SVGID_19_);}
	.st19{fill:url(#SVGID_20_);}
	.st20{fill:url(#SVGID_21_);}
	.st21{fill:url(#SVGID_22_);}
	.st22{fill:url(#SVGID_23_);}
	.st23{fill:url(#SVGID_24_);}
	.st24{fill:url(#SVGID_25_);}
	.st25{fill:url(#SVGID_26_);}
	.st26{fill:url(#SVGID_27_);}
	.st27{fill:#EE5649;}
</style>
<g>
	<g>
		<g>
			<radialGradient id="SVGID_1_" cx="21.7222" cy="3.4847" r="43.9229" gradientUnits="userSpaceOnUse">
				<stop  offset="0.1344" style="stop-color:#FFFFFF"/>
				<stop  offset="0.3412" style="stop-color:#F9FAFB"/>
				<stop  offset="0.5196" style="stop-color:#EEF0F3"/>
				<stop  offset="0.6875" style="stop-color:#DCE3E8"/>
				<stop  offset="0.8479" style="stop-color:#C4D2DB"/>
				<stop  offset="1" style="stop-color:#A8BFCB"/>
			</radialGradient>
			<circle class="st0" cx="20.4" cy="20.5" r="17.9"/>
			<radialGradient id="SVGID_2_" cx="21.7839" cy="4.7436" r="43.3629" gradientUnits="userSpaceOnUse">
				<stop  offset="0.1344" style="stop-color:#FFFFFF"/>
				<stop  offset="0.3412" style="stop-color:#F9FAFB"/>
				<stop  offset="0.5196" style="stop-color:#EEF0F3"/>
				<stop  offset="0.6875" style="stop-color:#DCE3E8"/>
				<stop  offset="0.8479" style="stop-color:#C4D2DB"/>
				<stop  offset="1" style="stop-color:#A8BFCB"/>
			</radialGradient>
			<path class="st1" d="M38,20.1c0.2,9.7-7.5,17.8-17.2,18C11,38.2,3,30.5,2.8,20.8C2.6,11.1,10.3,3.1,20,2.9
				C29.7,2.7,37.7,10.4,38,20.1z"/>
			<radialGradient id="SVGID_3_" cx="21.8434" cy="5.9618" r="42.7632" gradientUnits="userSpaceOnUse">
				<stop  offset="0.1344" style="stop-color:#FFFFFF"/>
				<stop  offset="0.3412" style="stop-color:#F9FAFB"/>
				<stop  offset="0.5196" style="stop-color:#EEF0F3"/>
				<stop  offset="0.6875" style="stop-color:#DCE3E8"/>
				<stop  offset="0.8479" style="stop-color:#C4D2DB"/>
				<stop  offset="1" style="stop-color:#A8BFCB"/>
			</radialGradient>
			<path class="st2" d="M37.7,19.7c0.4,9.5-7,17.6-16.5,18c-9.5,0.4-17.6-7-18-16.5c-0.4-9.5,7-17.6,16.5-18
				C29.1,2.8,37.2,10.1,37.7,19.7z"/>
			<radialGradient id="SVGID_4_" cx="21.901" cy="7.1405" r="42.1286" gradientUnits="userSpaceOnUse">
				<stop  offset="0.1344" style="stop-color:#FFFFFF"/>
				<stop  offset="0.3412" style="stop-color:#F9FAFB"/>
				<stop  offset="0.5196" style="stop-color:#EEF0F3"/>
				<stop  offset="0.6875" style="stop-color:#DCE3E8"/>
				<stop  offset="0.8479" style="stop-color:#C4D2DB"/>
				<stop  offset="1" style="stop-color:#A8BFCB"/>
			</radialGradient>
			<path class="st3" d="M37.3,19.3c0.6,9.4-6.4,17.5-15.8,18.1C12.2,38.1,4,31,3.4,21.6C2.8,12.2,9.9,4.1,19.2,3.5
				C28.6,2.8,36.7,9.9,37.3,19.3z"/>
			<radialGradient id="SVGID_5_" cx="21.9567" cy="8.281" r="41.4634" gradientUnits="userSpaceOnUse">
				<stop  offset="0.1344" style="stop-color:#FFFFFF"/>
				<stop  offset="0.3412" style="stop-color:#F9FAFB"/>
				<stop  offset="0.5196" style="stop-color:#EEF0F3"/>
				<stop  offset="0.6875" style="stop-color:#DCE3E8"/>
				<stop  offset="0.8479" style="stop-color:#C4D2DB"/>
				<stop  offset="1" style="stop-color:#A8BFCB"/>
			</radialGradient>
			<path class="st4" d="M37,18.9c0.8,9.2-5.9,17.4-15.1,18.2C12.7,38,4.6,31.2,3.7,22C2.9,12.8,9.6,4.6,18.8,3.8
				C28,2.9,36.2,9.7,37,18.9z"/>
			<radialGradient id="SVGID_6_" cx="22.0109" cy="9.3844" r="40.7721" gradientUnits="userSpaceOnUse">
				<stop  offset="0.1344" style="stop-color:#FFFFFF"/>
				<stop  offset="0.3412" style="stop-color:#F9FAFB"/>
				<stop  offset="0.5196" style="stop-color:#EEF0F3"/>
				<stop  offset="0.6875" style="stop-color:#DCE3E8"/>
				<stop  offset="0.8479" style="stop-color:#C4D2DB"/>
				<stop  offset="1" style="stop-color:#A8BFCB"/>
			</radialGradient>
			<path class="st5" d="M36.7,18.5c1.1,9-5.4,17.2-14.4,18.3c-9,1.1-17.2-5.4-18.3-14.4C3,13.3,9.4,5.1,18.5,4.1
				C27.5,3,35.7,9.5,36.7,18.5z"/>
			<radialGradient id="SVGID_7_" cx="22.0636" cy="10.4523" r="40.059" gradientUnits="userSpaceOnUse">
				<stop  offset="0.1344" style="stop-color:#FFFFFF"/>
				<stop  offset="0.3412" style="stop-color:#F9FAFB"/>
				<stop  offset="0.5196" style="stop-color:#EEF0F3"/>
				<stop  offset="0.6875" style="stop-color:#DCE3E8"/>
				<stop  offset="0.8479" style="stop-color:#C4D2DB"/>
				<stop  offset="1" style="stop-color:#A8BFCB"/>
			</radialGradient>
			<path class="st6" d="M36.4,18.2c1.3,8.9-4.9,17.1-13.8,18.4c-8.9,1.3-17.1-4.9-18.4-13.8C3,13.9,9.2,5.7,18.1,4.4
				C26.9,3.1,35.2,9.3,36.4,18.2z"/>
			<radialGradient id="SVGID_8_" cx="22.1151" cy="11.4861" r="39.3283" gradientUnits="userSpaceOnUse">
				<stop  offset="0.1344" style="stop-color:#FFFFFF"/>
				<stop  offset="0.3412" style="stop-color:#F9FAFB"/>
				<stop  offset="0.5196" style="stop-color:#EEF0F3"/>
				<stop  offset="0.6875" style="stop-color:#DCE3E8"/>
				<stop  offset="0.8479" style="stop-color:#C4D2DB"/>
				<stop  offset="1" style="stop-color:#A8BFCB"/>
			</radialGradient>
			<path class="st7" d="M36.1,17.8c1.5,8.7-4.4,17-13.1,18.4c-8.7,1.5-17-4.4-18.4-13.1C3.1,14.4,9,6.2,17.7,4.7
				C26.4,3.2,34.6,9.1,36.1,17.8z"/>
			<radialGradient id="SVGID_9_" cx="22.1656" cy="12.4873" r="38.5839" gradientUnits="userSpaceOnUse">
				<stop  offset="0.1344" style="stop-color:#FFFFFF"/>
				<stop  offset="0.3412" style="stop-color:#F9FAFB"/>
				<stop  offset="0.5196" style="stop-color:#EEF0F3"/>
				<stop  offset="0.6875" style="stop-color:#DCE3E8"/>
				<stop  offset="0.8479" style="stop-color:#C4D2DB"/>
				<stop  offset="1" style="stop-color:#A8BFCB"/>
			</radialGradient>
			<path class="st8" d="M35.8,17.4c1.7,8.5-3.9,16.8-12.4,18.5C14.9,37.6,6.6,32,4.9,23.5C3.2,15,8.8,6.7,17.3,5
				C25.8,3.3,34.1,8.9,35.8,17.4z"/>
			<radialGradient id="SVGID_10_" cx="22.2153" cy="13.4577" r="37.8298" gradientUnits="userSpaceOnUse">
				<stop  offset="0.1344" style="stop-color:#FFFFFF"/>
				<stop  offset="0.3412" style="stop-color:#F9FAFB"/>
				<stop  offset="0.5196" style="stop-color:#EEF0F3"/>
				<stop  offset="0.6875" style="stop-color:#DCE3E8"/>
				<stop  offset="0.8479" style="stop-color:#C4D2DB"/>
				<stop  offset="1" style="stop-color:#A8BFCB"/>
			</radialGradient>
			<path class="st9" d="M35.5,17c1.9,8.4-3.3,16.7-11.7,18.6c-8.4,1.9-16.7-3.3-18.6-11.7C3.3,15.5,8.6,7.2,16.9,5.3
				C25.3,3.4,33.6,8.6,35.5,17z"/>
			<radialGradient id="SVGID_11_" cx="22.2645" cy="14.3991" r="37.0696" gradientUnits="userSpaceOnUse">
				<stop  offset="0.1344" style="stop-color:#FFFFFF"/>
				<stop  offset="0.3412" style="stop-color:#F9FAFB"/>
				<stop  offset="0.5196" style="stop-color:#EEF0F3"/>
				<stop  offset="0.6875" style="stop-color:#DCE3E8"/>
				<stop  offset="0.8479" style="stop-color:#C4D2DB"/>
				<stop  offset="1" style="stop-color:#A8BFCB"/>
			</radialGradient>
			<path class="st10" d="M35.2,16.6c2.1,8.2-2.8,16.6-11,18.7c-8.2,2.1-16.6-2.8-18.7-11c-2.1-8.2,2.8-16.6,11-18.7
				C24.7,3.5,33.1,8.4,35.2,16.6z"/>
			<radialGradient id="SVGID_12_" cx="22.3133" cy="15.3133" r="36.3069" gradientUnits="userSpaceOnUse">
				<stop  offset="0.1344" style="stop-color:#FFFFFF"/>
				<stop  offset="0.3412" style="stop-color:#F9FAFB"/>
				<stop  offset="0.5196" style="stop-color:#EEF0F3"/>
				<stop  offset="0.6875" style="stop-color:#DCE3E8"/>
				<stop  offset="0.8479" style="stop-color:#C4D2DB"/>
				<stop  offset="1" style="stop-color:#A8BFCB"/>
			</radialGradient>
			<path class="st11" d="M34.9,16.2c2.3,8-2.3,16.4-10.3,18.7c-8,2.3-16.4-2.3-18.7-10.3c-2.3-8,2.3-16.4,10.3-18.7
				C24.2,3.6,32.6,8.2,34.9,16.2z"/>
			<radialGradient id="SVGID_13_" cx="22.3621" cy="16.2024" r="35.5451" gradientUnits="userSpaceOnUse">
				<stop  offset="0.1344" style="stop-color:#FFFFFF"/>
				<stop  offset="0.3412" style="stop-color:#F9FAFB"/>
				<stop  offset="0.5196" style="stop-color:#EEF0F3"/>
				<stop  offset="0.6875" style="stop-color:#DCE3E8"/>
				<stop  offset="0.8479" style="stop-color:#C4D2DB"/>
				<stop  offset="1" style="stop-color:#A8BFCB"/>
			</radialGradient>
			<path class="st12" d="M34.6,15.9c2.5,7.9-1.8,16.3-9.6,18.8C17.1,37.2,8.7,32.9,6.1,25C3.6,17.2,7.9,8.8,15.8,6.2
				C23.6,3.7,32.1,8,34.6,15.9z"/>
			<radialGradient id="SVGID_14_" cx="22.4111" cy="17.0684" r="34.7874" gradientUnits="userSpaceOnUse">
				<stop  offset="0.1344" style="stop-color:#FFFFFF"/>
				<stop  offset="0.3412" style="stop-color:#F9FAFB"/>
				<stop  offset="0.5196" style="stop-color:#EEF0F3"/>
				<stop  offset="0.6875" style="stop-color:#DCE3E8"/>
				<stop  offset="0.8479" style="stop-color:#C4D2DB"/>
				<stop  offset="1" style="stop-color:#A8BFCB"/>
			</radialGradient>
			<path class="st13" d="M34.3,15.5c2.8,7.7-1.3,16.2-8.9,18.9c-7.7,2.8-16.2-1.3-18.9-8.9C3.7,17.7,7.7,9.3,15.4,6.5
				C23.1,3.8,31.5,7.8,34.3,15.5z"/>
			<radialGradient id="SVGID_15_" cx="22.4606" cy="17.9137" r="34.037" gradientUnits="userSpaceOnUse">
				<stop  offset="0.1344" style="stop-color:#FFFFFF"/>
				<stop  offset="0.3412" style="stop-color:#F9FAFB"/>
				<stop  offset="0.5196" style="stop-color:#EEF0F3"/>
				<stop  offset="0.6875" style="stop-color:#DCE3E8"/>
				<stop  offset="0.8479" style="stop-color:#C4D2DB"/>
				<stop  offset="1" style="stop-color:#A8BFCB"/>
			</radialGradient>
			<path class="st14" d="M34,15.1c3,7.5-0.7,16-8.3,19c-7.5,3-16-0.7-19-8.3c-3-7.5,0.7-16,8.3-19C22.5,3.9,31,7.6,34,15.1z"/>
			<radialGradient id="SVGID_16_" cx="22.5108" cy="18.7406" r="33.2967" gradientUnits="userSpaceOnUse">
				<stop  offset="0.1344" style="stop-color:#FFFFFF"/>
				<stop  offset="0.3412" style="stop-color:#F9FAFB"/>
				<stop  offset="0.5196" style="stop-color:#EEF0F3"/>
				<stop  offset="0.6875" style="stop-color:#DCE3E8"/>
				<stop  offset="0.8479" style="stop-color:#C4D2DB"/>
				<stop  offset="1" style="stop-color:#A8BFCB"/>
			</radialGradient>
			<path class="st15" d="M33.7,14.7c3.2,7.4-0.2,15.9-7.6,19.1c-7.4,3.2-15.9-0.2-19.1-7.6c-3.2-7.4,0.2-15.9,7.6-19.1
				C22,4,30.5,7.4,33.7,14.7z"/>
			<radialGradient id="SVGID_17_" cx="22.562" cy="19.5514" r="32.5694" gradientUnits="userSpaceOnUse">
				<stop  offset="0.1344" style="stop-color:#FFFFFF"/>
				<stop  offset="0.3412" style="stop-color:#F9FAFB"/>
				<stop  offset="0.5196" style="stop-color:#EEF0F3"/>
				<stop  offset="0.6875" style="stop-color:#DCE3E8"/>
				<stop  offset="0.8479" style="stop-color:#C4D2DB"/>
				<stop  offset="1" style="stop-color:#A8BFCB"/>
			</radialGradient>
			<path class="st16" d="M33.4,14.3c3.4,7.2,0.3,15.8-6.9,19.1c-7.2,3.4-15.8,0.3-19.1-6.9C4,19.4,7.1,10.8,14.2,7.4
				C21.4,4.1,30,7.1,33.4,14.3z"/>
			<radialGradient id="SVGID_18_" cx="22.6146" cy="20.3489" r="31.8579" gradientUnits="userSpaceOnUse">
				<stop  offset="0.1344" style="stop-color:#FFFFFF"/>
				<stop  offset="0.3412" style="stop-color:#F9FAFB"/>
				<stop  offset="0.5196" style="stop-color:#EEF0F3"/>
				<stop  offset="0.6875" style="stop-color:#DCE3E8"/>
				<stop  offset="0.8479" style="stop-color:#C4D2DB"/>
				<stop  offset="1" style="stop-color:#A8BFCB"/>
			</radialGradient>
			<path class="st17" d="M33.1,13.9c3.6,7,0.8,15.6-6.2,19.2c-7,3.6-15.6,0.8-19.2-6.2c-3.6-7-0.8-15.6,6.2-19.2
				C20.9,4.1,29.5,6.9,33.1,13.9z"/>
			<radialGradient id="SVGID_19_" cx="22.6687" cy="21.1354" r="31.1647" gradientUnits="userSpaceOnUse">
				<stop  offset="0.1344" style="stop-color:#FFFFFF"/>
				<stop  offset="0.3412" style="stop-color:#F9FAFB"/>
				<stop  offset="0.5196" style="stop-color:#EEF0F3"/>
				<stop  offset="0.6875" style="stop-color:#DCE3E8"/>
				<stop  offset="0.8479" style="stop-color:#C4D2DB"/>
				<stop  offset="1" style="stop-color:#A8BFCB"/>
			</radialGradient>
			<path class="st18" d="M32.8,13.6c3.8,6.8,1.3,15.5-5.5,19.3c-6.8,3.8-15.5,1.3-19.3-5.5c-3.8-6.8-1.3-15.5,5.5-19.3
				C20.3,4.2,29,6.7,32.8,13.6z"/>
			<radialGradient id="SVGID_20_" cx="22.7247" cy="21.9139" r="30.4927" gradientUnits="userSpaceOnUse">
				<stop  offset="0.1344" style="stop-color:#FFFFFF"/>
				<stop  offset="0.3412" style="stop-color:#F9FAFB"/>
				<stop  offset="0.5196" style="stop-color:#EEF0F3"/>
				<stop  offset="0.6875" style="stop-color:#DCE3E8"/>
				<stop  offset="0.8479" style="stop-color:#C4D2DB"/>
				<stop  offset="1" style="stop-color:#A8BFCB"/>
			</radialGradient>
			<path class="st19" d="M32.5,13.2c4,6.7,1.9,15.4-4.8,19.4c-6.7,4-15.4,1.9-19.4-4.8c-4-6.7-1.9-15.4,4.8-19.4
				C19.8,4.3,28.4,6.5,32.5,13.2z"/>
			<radialGradient id="SVGID_21_" cx="22.7829" cy="22.687" r="29.8444" gradientUnits="userSpaceOnUse">
				<stop  offset="0.1344" style="stop-color:#FFFFFF"/>
				<stop  offset="0.3412" style="stop-color:#F9FAFB"/>
				<stop  offset="0.5196" style="stop-color:#EEF0F3"/>
				<stop  offset="0.6875" style="stop-color:#DCE3E8"/>
				<stop  offset="0.8479" style="stop-color:#C4D2DB"/>
				<stop  offset="1" style="stop-color:#A8BFCB"/>
			</radialGradient>
			<path class="st20" d="M32.2,12.8c4.2,6.5,2.4,15.2-4.1,19.5c-6.5,4.2-15.2,2.4-19.5-4.1c-4.2-6.5-2.4-15.2,4.1-19.5
				C19.2,4.4,27.9,6.3,32.2,12.8z"/>
			<radialGradient id="SVGID_22_" cx="22.8435" cy="23.4575" r="29.223" gradientUnits="userSpaceOnUse">
				<stop  offset="0.1344" style="stop-color:#FFFFFF"/>
				<stop  offset="0.3412" style="stop-color:#F9FAFB"/>
				<stop  offset="0.5196" style="stop-color:#EEF0F3"/>
				<stop  offset="0.6875" style="stop-color:#DCE3E8"/>
				<stop  offset="0.8479" style="stop-color:#C4D2DB"/>
				<stop  offset="1" style="stop-color:#A8BFCB"/>
			</radialGradient>
			<path class="st21" d="M31.9,12.4c4.4,6.3,2.9,15.1-3.4,19.5c-6.3,4.4-15.1,2.9-19.5-3.4C4.4,22.2,6,13.4,12.3,9
				C18.7,4.5,27.4,6.1,31.9,12.4z"/>
			<radialGradient id="SVGID_23_" cx="22.9069" cy="24.2284" r="28.6314" gradientUnits="userSpaceOnUse">
				<stop  offset="0.1344" style="stop-color:#FFFFFF"/>
				<stop  offset="0.3412" style="stop-color:#F9FAFB"/>
				<stop  offset="0.5196" style="stop-color:#EEF0F3"/>
				<stop  offset="0.6875" style="stop-color:#DCE3E8"/>
				<stop  offset="0.8479" style="stop-color:#C4D2DB"/>
				<stop  offset="1" style="stop-color:#A8BFCB"/>
			</radialGradient>
			<path class="st22" d="M31.6,12c4.7,6.2,3.4,15-2.8,19.6c-6.2,4.7-15,3.4-19.6-2.8c-4.7-6.2-3.4-15,2.8-19.6
				C18.1,4.6,26.9,5.8,31.6,12z"/>
			<radialGradient id="SVGID_24_" cx="22.9732" cy="25.0025" r="28.0734" gradientUnits="userSpaceOnUse">
				<stop  offset="0.1344" style="stop-color:#FFFFFF"/>
				<stop  offset="0.3412" style="stop-color:#F9FAFB"/>
				<stop  offset="0.5196" style="stop-color:#EEF0F3"/>
				<stop  offset="0.6875" style="stop-color:#DCE3E8"/>
				<stop  offset="0.8479" style="stop-color:#C4D2DB"/>
				<stop  offset="1" style="stop-color:#A8BFCB"/>
			</radialGradient>
			<path class="st23" d="M31.3,11.6c4.9,6,3.9,14.8-2.1,19.7c-6,4.9-14.8,3.9-19.7-2.1c-4.9-6-3.9-14.8,2.1-19.7
				C17.6,4.7,26.4,5.6,31.3,11.6z"/>
			<radialGradient id="SVGID_25_" cx="23.0428" cy="25.7826" r="27.5529" gradientUnits="userSpaceOnUse">
				<stop  offset="0.1344" style="stop-color:#FFFFFF"/>
				<stop  offset="0.3412" style="stop-color:#F9FAFB"/>
				<stop  offset="0.5196" style="stop-color:#EEF0F3"/>
				<stop  offset="0.6875" style="stop-color:#DCE3E8"/>
				<stop  offset="0.8479" style="stop-color:#C4D2DB"/>
				<stop  offset="1" style="stop-color:#A8BFCB"/>
			</radialGradient>
			<path class="st24" d="M30.9,11.3c5.1,5.8,4.5,14.7-1.4,19.8c-5.8,5.1-14.7,4.5-19.8-1.4C4.7,23.8,5.3,15,11.2,9.9
				C17,4.8,25.9,5.4,30.9,11.3z"/>
			<radialGradient id="SVGID_26_" cx="23.1158" cy="26.5716" r="27.0748" gradientUnits="userSpaceOnUse">
				<stop  offset="0.1344" style="stop-color:#FFFFFF"/>
				<stop  offset="0.3412" style="stop-color:#F9FAFB"/>
				<stop  offset="0.5196" style="stop-color:#EEF0F3"/>
				<stop  offset="0.6875" style="stop-color:#DCE3E8"/>
				<stop  offset="0.8479" style="stop-color:#C4D2DB"/>
				<stop  offset="1" style="stop-color:#A8BFCB"/>
			</radialGradient>
			<path class="st25" d="M30.6,10.9c5.3,5.7,5,14.6-0.7,19.8c-5.7,5.3-14.6,5-19.8-0.7c-5.3-5.7-5-14.6,0.7-19.8
				C16.5,4.9,25.4,5.2,30.6,10.9z"/>
			<radialGradient id="SVGID_27_" cx="23.1925" cy="27.3723" r="26.6446" gradientUnits="userSpaceOnUse">
				<stop  offset="0.1344" style="stop-color:#FFFFFF"/>
				<stop  offset="0.3412" style="stop-color:#F9FAFB"/>
				<stop  offset="0.5196" style="stop-color:#EEF0F3"/>
				<stop  offset="0.6875" style="stop-color:#DCE3E8"/>
				<stop  offset="0.8479" style="stop-color:#C4D2DB"/>
				<stop  offset="1" style="stop-color:#A8BFCB"/>
			</radialGradient>
			<path class="st26" d="M30.3,10.5c5.5,5.5,5.5,14.4,0,19.9c-5.5,5.5-14.4,5.5-19.9,0c-5.5-5.5-5.5-14.4,0-19.9
				C15.9,5,24.8,5,30.3,10.5z"/>
		</g>
	</g>
	<g>
		<path class="st27" d="M18,19.9C18,19.9,18,19.9,18,19.9c0,0.8,0,2.2,0,2.2s2.8,0,3,0c0,0.2-0.3,1.1-1.1,1.7
			c-0.5,0.3-1,0.5-1.6,0.5c-0.4,0-0.8,0-1.2-0.1c-1.2-0.4-2.2-1.5-2.3-2.9c0-0.3,0-0.7,0.1-1c0.4-1.6,1.9-2.8,3.7-2.6
			c0.8,0.1,1.2,0.4,1.6,0.8c0.5-0.5,1.1-1.1,1.6-1.6c-0.1-0.1-0.4-0.4-1-0.7c-0.8-0.5-1.7-0.7-2.6-0.7c-0.2,0-0.4,0-0.5,0
			c-0.3,0-0.6,0.1-0.9,0.1c-1.2,0.3-2.2,0.9-3,1.9c-0.8,0.9-1.2,2-1.2,3.2c0,0.5,0,1,0.1,1.5c0.3,1.4,1,2.5,2.2,3.3
			c0.9,0.6,1.9,1,3,1.1c0.6,0,1.2,0,1.8-0.2c1.1-0.3,2-0.9,2.7-1.8c1-1.3,1.3-3.1,1-4.7C21.5,19.9,19.7,19.9,18,19.9z"/>
		<polygon class="st27" points="30,20 28.1,20 28.1,18.1 28.1,18 28,18 26.6,18 26.6,18 26.6,18.1 26.6,20 24.7,20 24.6,20 24.6,20 
			24.6,21.4 24.6,21.5 24.7,21.5 26.6,21.5 26.6,23.4 26.6,23.4 26.6,23.4 28,23.4 28.1,23.4 28.1,23.4 28.1,21.5 30,21.5 30,21.5 
			30,21.4 30,20 30,20 		"/>
	</g>
</g>
</svg>
