<?xml version="1.0" encoding="utf-8"?>
<!-- Generator: Adobe Illustrator 22.0.1, SVG Export Plug-In . SVG Version: 6.00 Build 0)  -->
<svg version="1.1" id="Layer_1" xmlns="http://www.w3.org/2000/svg" xmlns:xlink="http://www.w3.org/1999/xlink" x="0px" y="0px"
	 viewBox="0 0 86.7 87.8" style="enable-background:new 0 0 86.7 87.8;" xml:space="preserve">
<style type="text/css">
	.st0{fill:#F4D8D9;}
	.st1{fill:#D05743;}
	.st2{fill:#F2F2F2;}
</style>
<g>
	<path class="st0" d="M1.5,43.9c0-23.1,18.7-41.8,41.8-41.8c23.1,0,41.8,18.7,41.8,41.8S66.4,85.8,43.3,85.8
		C20.2,85.8,1.5,67,1.5,43.9z"/>
	<g>
		<circle class="st1" cx="43.3" cy="43.9" r="34.5"/>
		<g>
			<path class="st2" d="M35.4,41.9v4.8h7.9c-0.3,2-2.4,6-7.9,6c-4.8,0-8.6-3.9-8.6-8.8c0-4.9,3.9-8.8,8.6-8.8c2.7,0,4.5,1.2,5.6,2.1
				l3.8-3.6c-2.4-2.3-5.6-3.6-9.3-3.6c-7.7,0-13.9,6.2-13.9,13.9s6.2,13.9,13.9,13.9c8,0,13.4-5.7,13.4-13.6c0-0.9-0.1-1.6-0.2-2.3
				H35.4L35.4,41.9z"/>
			<path class="st2" d="M65.2,41.9h-4v-4h-4v4h-4v4h4v4h4v-4h4V41.9z"/>
		</g>
	</g>
</g>
</svg>
