<?xml version="1.0" encoding="utf-8"?>
<!-- Generator: Adobe Illustrator 22.0.1, SVG Export Plug-In . SVG Version: 6.00 Build 0)  -->
<svg version="1.1" id="Layer_1" xmlns="http://www.w3.org/2000/svg" xmlns:xlink="http://www.w3.org/1999/xlink" x="0px" y="0px"
	 viewBox="0 0 36.7 15.4" style="enable-background:new 0 0 36.7 15.4;" xml:space="preserve">
<style type="text/css">
	.st0{fill:#4E4E50;}
</style>
<g>
	<path class="st0" d="M10.1,7.9c0,1.9-1.2,3.1-3.2,3.1c-2,0-3.2-1.2-3.2-3.1c0-1.9,1.3-3.1,3.2-3.1C8.9,4.8,10.1,6,10.1,7.9z"/>
	<path class="st0" d="M21.7,7.9c0,1.9-1.2,3.1-3.2,3.1s-3.2-1.2-3.2-3.1c0-1.9,1.3-3.1,3.2-3.1S21.7,6,21.7,7.9z"/>
	<path class="st0" d="M33.4,7.9c0,1.9-1.2,3.1-3.2,3.1c-2,0-3.2-1.2-3.2-3.1c0-1.9,1.3-3.1,3.2-3.1C32.2,4.8,33.4,6,33.4,7.9z"/>
</g>
</svg>
