<?xml version="1.0" encoding="utf-8"?>
<!-- Generator: Adobe Illustrator 22.0.1, SVG Export Plug-In . SVG Version: 6.00 Build 0)  -->
<svg version="1.1" id="Layer_1" xmlns="http://www.w3.org/2000/svg" xmlns:xlink="http://www.w3.org/1999/xlink" x="0px" y="0px"
	 viewBox="0 0 39.7 37.8" style="enable-background:new 0 0 39.7 37.8;" xml:space="preserve">
<style type="text/css">
	.st0{fill-rule:evenodd;clip-rule:evenodd;fill:#333333;}
</style>
<g>
	<path class="st0" d="M8.7,5.3L8.7,5.3c0,0.5,0.4,0.9,0.9,0.9h24.6c0.5,0,0.9-0.4,0.9-0.9v0c0-0.5-0.4-0.9-0.9-0.9H9.6
		C9.1,4.4,8.7,4.8,8.7,5.3z"/>
	<path class="st0" d="M2.5,3.5h1.8c0.5,0,0.9,0.4,0.9,0.9v1.8c0,0.5-0.4,0.9-0.9,0.9H2.5c-0.5,0-0.9-0.4-0.9-0.9V4.4
		C1.7,3.9,2.1,3.5,2.5,3.5z"/>
	<path class="st0" d="M2.5,16.7h1.8c0.5,0,0.9,0.4,0.9,0.9v1.8c0,0.5-0.4,0.9-0.9,0.9H2.5c-0.5,0-0.9-0.4-0.9-0.9v-1.8
		C1.7,17.1,2.1,16.7,2.5,16.7z"/>
	<path class="st0" d="M2.5,29.9h1.8c0.5,0,0.9,0.4,0.9,0.9v1.8c0,0.5-0.4,0.9-0.9,0.9H2.5c-0.5,0-0.9-0.4-0.9-0.9v-1.8
		C1.7,30.3,2.1,29.9,2.5,29.9z"/>
	<path class="st0" d="M8.7,18.5L8.7,18.5c0,0.5,0.4,0.9,0.9,0.9h24.6c0.5,0,0.9-0.4,0.9-0.9v0c0-0.5-0.4-0.9-0.9-0.9H9.6
		C9.1,17.6,8.7,18,8.7,18.5z"/>
	<path class="st0" d="M8.7,31.6L8.7,31.6c0,0.5,0.4,0.9,0.9,0.9h24.6c0.5,0,0.9-0.4,0.9-0.9v0c0-0.5-0.4-0.9-0.9-0.9H9.6
		C9.1,30.7,8.7,31.1,8.7,31.6z"/>
</g>
</svg>
