<?xml version="1.0" encoding="utf-8"?>
<!-- Generator: Adobe Illustrator 22.0.1, SVG Export Plug-In . SVG Version: 6.00 Build 0)  -->
<svg version="1.1" id="Layer_1" xmlns="http://www.w3.org/2000/svg" xmlns:xlink="http://www.w3.org/1999/xlink" x="0px" y="0px"
	 viewBox="0 0 23 23" style="enable-background:new 0 0 23 23;" xml:space="preserve">
<style type="text/css">
	.st0{fill:url(#SVGID_1_);}
	.st1{fill:url(#SVGID_2_);}
	.st2{fill:#7DD1F4;}
</style>
<g>
	
		<radialGradient id="SVGID_1_" cx="-2018.4036" cy="9342.7295" r="11.2398" gradientTransform="matrix(0.7505 0 0 -9.810000e-02 1526.3594 937.4519)" gradientUnits="userSpaceOnUse">
		<stop  offset="5.650000e-03" style="stop-color:#C5C8CB"/>
		<stop  offset="0.4023" style="stop-color:#DBDCDE"/>
		<stop  offset="1" style="stop-color:#FFFFFF"/>
	</radialGradient>
	<path class="st0" d="M20,20.9c0,0.6-3.8,1.1-8.4,1.1c-4.7,0-8.4-0.5-8.4-1.1s3.8-1.1,8.4-1.1S20,20.3,20,20.9z"/>
	
		<linearGradient id="SVGID_2_" gradientUnits="userSpaceOnUse" x1="-1250.7712" y1="488.2407" x2="-1251.134" y2="509.1347" gradientTransform="matrix(1 0 0 -1 1262.4282 508.1891)">
		<stop  offset="0" style="stop-color:#1C9CD5"/>
		<stop  offset="0.9398" style="stop-color:#29ABE0"/>
		<stop  offset="1" style="stop-color:#2AACE0"/>
	</linearGradient>
	<path class="st1" d="M19.3,7.1h-4.1V3c0-0.7-0.6-1.3-1.3-1.3H9C8.3,1.8,7.7,2.3,7.7,3v4.1H3.6c-0.7,0-1.3,0.6-1.3,1.3v5
		c0,0.7,0.6,1.3,1.3,1.3h4.1v4.1c0,0.7,0.6,1.3,1.3,1.3h5c0.7,0,1.3-0.6,1.3-1.3v-4.1h4.1c0.7,0,1.3-0.6,1.3-1.3v-5
		C20.6,7.7,20,7.1,19.3,7.1z"/>
	<path class="st2" d="M19.7,8.1c0.1,0,0.3,0,0.4,0.1c-0.1-0.3-0.4-0.5-0.7-0.5h-4.2v0.4H19.7z"/>
	<path class="st2" d="M8.6,14.5H8.2v4.1c0,0.3,0.2,0.5,0.4,0.7c0-0.1,0-0.1,0-0.2C8.6,19.1,8.6,14.5,8.6,14.5z"/>
	<path class="st2" d="M3.2,8.8C3.2,8.4,3.5,8,4,8h4.6V3.5c0-0.4,0.3-0.8,0.8-0.8h5c0.1,0,0.3,0,0.4,0.1c-0.1-0.3-0.4-0.5-0.7-0.5H9
		C8.6,2.3,8.2,2.6,8.2,3v4.6H3.6c-0.4,0-0.8,0.3-0.8,0.8v5c0,0.3,0.2,0.5,0.4,0.7c0-0.1,0-0.1,0-0.2V8.8z"/>
</g>
</svg>
