<?xml version="1.0" encoding="utf-8"?>
<!-- Generator: Adobe Illustrator 22.0.1, SVG Export Plug-In . SVG Version: 6.00 Build 0)  -->
<svg version="1.1" id="Layer_1" xmlns="http://www.w3.org/2000/svg" xmlns:xlink="http://www.w3.org/1999/xlink" x="0px" y="0px"
	 viewBox="0 0 512 512" style="enable-background:new 0 0 512 512;" xml:space="preserve">
<style type="text/css">
	.st0{fill:#FFFFFF;}
</style>
<path class="st0" d="M472,392v-20.9c0-25.4-20.7-46.1-46.1-46.1H234c-11,0-20,9-20,20c0,4.7,1.7,9.1,4.4,12.5l4.1,3.7
	c0.1,0.1,0.2,0.2,0.3,0.4c3.2,2.2,7,3.4,11.2,3.4h100c11,0,20,9,20,20s-9,20-20,20H234c-17.4,0-33.1-7.4-44-19.3L74.5,280.2
	c-0.2-0.2-0.4-0.3-0.5-0.5c-3.8-3.7-8.9-5.8-14.2-5.7c-5.3,0.1-10.3,2.2-14.1,6c-3.7,3.8-5.8,8.9-5.7,14.2c0,5.3,2.1,10.2,5.8,13.9
	l101.8,94.2c0.1,0.1,0.2,0.2,0.3,0.3C194.1,447.4,255,472,319.3,472H492c11,0,20,9,20,20s-9,20-20,20H319.3c-37,0-73.1-7-107.4-20.9
	c-34.2-13.9-65-33.9-91.6-59.5L18.4,337.2c-0.1-0.1-0.3-0.3-0.4-0.4C6.5,325.6,0.2,310.6,0,294.6c-0.2-16,5.9-31.1,17.2-42.6
	c11.2-11.4,26.2-17.8,42.3-18c15.9-0.1,30.9,5.8,42.3,16.9l77.1,70.5C188.1,300,209.3,285,234,285h191.9c47.5,0,86.1,38.6,86.1,86.1
	V392c0,11-9,20-20,20S472,403,472,392z M165.5,74.4l10-18.3c4.5-8.3,14.2-12.2,23.2-9.6l25.8,7.6c5.8-4.7,12.1-8.6,18.9-11.6
	l3.6-25.4C248.4,7.4,256.8,0,266.8,0h20.4c9.7,0,18,6.9,19.7,16.5l4.7,26.2c6.1,2.7,11.8,6.1,17.1,10.1l24-9.2
	c8.9-3.4,19,0,24.1,8.1L388,69.6c5.4,8.7,3.4,20.1-4.7,26.4l-21.6,16.8c0.1,0.6,0.1,1.2,0.1,1.8c0,0.5,0.1,1,0.1,1.5
	c0.1,1.3,0.1,2.7,0.1,4c0,1.4,0,2.7-0.1,4.1l20.9,15.4c7.7,5.7,10.3,16,6.3,24.6l-8.2,17.3c-4.2,8.9-14.3,13.5-23.8,10.7l-25.2-7.5
	c-6.3,5.4-13.4,9.7-20.9,13l-4.1,25.6c-1.6,9.7-9.9,16.8-19.8,16.8h-19.3c-9.7,0-18-6.9-19.7-16.5l-4.7-26.2
	c-6.3-2.8-12.2-6.3-17.7-10.5l-24.4,8.8c-9.2,3.3-19.4-0.5-24.2-9l-9.5-16.9c-4.8-8.5-2.7-19.2,4.9-25.4l20.8-16.8
	c-0.1-0.6-0.1-1.2-0.1-1.8c0-0.5-0.1-1-0.1-1.6c-0.1-1.3-0.1-2.7-0.1-4c0-1.3,0-2.5,0.1-3.8c0-0.3,0-0.6,0-0.8c0-0.1,0-0.2,0-0.3
	l-21.4-14.4C163.2,94.8,160.5,83.5,165.5,74.4z M265.6,162.9c3.8,1.1,7.8,1.6,11.9,1.6c3.8,0,7.5-0.5,11-1.4c0.1,0,0.3-0.1,0.4-0.1
	c0.6-0.1,1.1-0.3,1.6-0.5c0.1,0,0.2-0.1,0.3-0.1c7.5-2.4,14.2-6.7,19.4-12.4c0.1-0.1,0.2-0.2,0.3-0.3c5.1-5.7,8.8-12.8,10.5-20.7
	c0.1-0.5,0.2-0.9,0.3-1.4c0-0.3,0.1-0.5,0.1-0.8c0.1-0.7,0.2-1.3,0.3-2c0-0.1,0-0.2,0-0.3c0.2-1.5,0.2-3.1,0.2-4.6
	c0-0.9,0-1.7-0.1-2.6c0-0.2,0-0.5-0.1-0.7c0-0.6-0.1-1.2-0.2-1.8c0-0.3-0.1-0.5-0.1-0.8c-0.1-0.6-0.2-1.2-0.3-1.8
	c0-0.3-0.1-0.5-0.1-0.8c-0.1-0.6-0.2-1.2-0.4-1.8c-1.9-7.9-5.8-14.9-11.3-20.6c-0.4-0.5-0.9-0.9-1.4-1.4c-0.2-0.2-0.4-0.4-0.6-0.6
	c-0.6-0.6-1.2-1.1-1.9-1.6c-0.3-0.2-0.6-0.5-0.9-0.7c-0.4-0.3-0.8-0.6-1.3-1c-0.3-0.2-0.6-0.5-1-0.7c-0.6-0.4-1.3-0.9-2-1.3
	c-0.4-0.2-0.7-0.4-1.1-0.6c-0.4-0.2-0.8-0.5-1.3-0.7c-0.4-0.2-0.8-0.4-1.2-0.6c-0.5-0.3-1.1-0.5-1.6-0.8c-0.5-0.2-1-0.4-1.4-0.6
	c-0.5-0.2-1.1-0.4-1.6-0.6c-0.4-0.1-0.7-0.2-1.1-0.4c-0.6-0.2-1.2-0.4-1.9-0.6c-3.8-1.1-7.8-1.6-11.9-1.6
	c-21.1,0-38.8,14.8-43.3,34.5c-0.2,0.8-0.3,1.5-0.5,2.3c0,0,0,0.1,0,0.1c-0.1,0.8-0.2,1.6-0.3,2.3c0,0.1,0,0.1,0,0.2
	c-0.1,0.7-0.1,1.5-0.2,2.2c0,0.1,0,0.2,0,0.3c0,0.8-0.1,1.6-0.1,2.5c0,0.9,0,1.7,0.1,2.6c0,0.2,0,0.5,0.1,0.7c0,0.6,0.1,1.2,0.2,1.9
	c0,0.3,0.1,0.5,0.1,0.8c0.1,0.6,0.2,1.2,0.3,1.8c0,0.2,0.1,0.5,0.1,0.8c0.1,0.6,0.3,1.3,0.4,1.9c1.9,7.8,5.8,14.9,11.2,20.5
	c0.4,0.4,0.8,0.8,1.2,1.2c0.3,0.3,0.6,0.5,0.8,0.8c0.6,0.5,1.2,1.1,1.8,1.6c0.3,0.3,0.7,0.5,1,0.8c0.4,0.3,0.7,0.6,1.1,0.8
	c0.4,0.3,0.7,0.5,1.1,0.8c0.5,0.3,0.9,0.6,1.4,0.9c0.6,0.3,1.1,0.7,1.7,1c0.4,0.2,0.8,0.4,1.2,0.6c0.4,0.2,0.8,0.4,1.2,0.6
	c0.5,0.2,1,0.5,1.5,0.7c0.5,0.2,1,0.5,1.6,0.7c0.5,0.2,1.1,0.4,1.7,0.6c0.4,0.1,0.7,0.2,1.1,0.4C264.4,162.5,265,162.7,265.6,162.9z
	"/>
</svg>
