<?xml version="1.0" encoding="utf-8"?>
<!-- Generator: Adobe Illustrator 22.0.1, SVG Export Plug-In . SVG Version: 6.00 Build 0)  -->
<svg version="1.1" id="Layer_1" xmlns="http://www.w3.org/2000/svg" xmlns:xlink="http://www.w3.org/1999/xlink" x="0px" y="0px"
	 viewBox="0 0 512 512" style="enable-background:new 0 0 512 512;" xml:space="preserve">
<style type="text/css">
	.st0{fill:#FFFFFF;}
</style>
<g>
	<g>
		<path class="st0" d="M375,225.1c-2.5-6.2-9.5-9.2-15.7-6.8c-6.2,2.5-9.2,9.5-6.8,15.7c6.1,15.5,9.2,31.9,9.2,48.8
			c0,73.1-59.5,132.6-132.6,132.6c-73.1,0-132.7-59.5-132.7-132.6S156,150.1,229.2,150.1c16.9,0,33.3,3.1,48.9,9.3
			c6.2,2.5,13.2-0.6,15.7-6.8c2.5-6.2-0.6-13.2-6.8-15.7c-18.4-7.3-37.8-11-57.8-11c-86.5,0-156.8,70.3-156.8,156.8
			s70.3,156.8,156.8,156.8c86.5,0,156.8-70.3,156.8-156.8C386,262.9,382.3,243.5,375,225.1z"/>
	</g>
</g>
<g>
	<g>
		<path class="st0" d="M449.5,219.6c-1.8-6.4-8.5-10.1-14.9-8.3c-6.4,1.8-10.1,8.5-8.3,14.9c5.2,18.3,7.9,37.3,7.9,56.5
			c0,113-92,205-205,205c-113,0-205-92-205-205s92-205,205-205c19.2,0,38.3,2.7,56.6,7.9c6.4,1.8,13.1-1.9,14.9-8.3
			c1.8-6.4-1.9-13.1-8.3-14.9c-20.5-5.9-41.8-8.9-63.3-8.9C102.8,53.6,0,156.4,0,282.8s102.8,229.2,229.2,229.2
			c126.4,0,229.2-102.8,229.2-229.2C458.3,261.3,455.4,240.1,449.5,219.6z"/>
	</g>
</g>
<g>
	<g>
		<path class="st0" d="M313.3,275.4c-0.6-6.6-6.5-11.5-13.1-11c-6.6,0.6-11.6,6.5-11,13.1c0.2,1.7,0.2,3.5,0.2,5.2
			c0,33.2-27,60.3-60.3,60.3c-33.2,0-60.3-27-60.3-60.3c0-33.2,27-60.3,60.3-60.3c1.9,0,3.7,0.1,5.4,0.2c6.6,0.6,12.5-4.3,13.1-10.9
			c0.6-6.6-4.3-12.5-10.9-13.1c-2.5-0.2-5-0.3-7.6-0.3c-46.6,0-84.4,37.9-84.4,84.4c0,46.6,37.9,84.4,84.4,84.4
			c46.6,0,84.4-37.9,84.4-84.4C313.6,280.3,313.5,277.8,313.3,275.4z"/>
	</g>
</g>
<g>
	<g>
		<path class="st0" d="M510.1,81.3c-3.8-9.1-12.5-14.9-22.3-14.9h-42.1V24.2c0-9.8-5.9-18.6-14.9-22.3c-9.1-3.8-19.4-1.7-26.3,5.2
			l-70.4,70.4c-6.8,6.8-10.6,15.9-10.6,25.6v68.4l-98.2,98.2c-4.7,4.7-4.7,12.4,0,17.1c2.4,2.4,5.4,3.5,8.5,3.5s6.2-1.2,8.5-3.5
			l98.2-98.2h68.4c9.7,0,18.8-3.8,25.6-10.6l70.4-70.4C511.8,100.7,513.9,90.3,510.1,81.3z M347.6,103.1c0-3.2,1.3-6.3,3.5-8.5
			l70.4-70.4v49.2l-73.9,73.9L347.6,103.1L347.6,103.1z M417.5,160.9c-2.2,2.2-5.4,3.5-8.5,3.5h-44.2l73.9-73.9l49.2,0L417.5,160.9z
			"/>
	</g>
</g>
</svg>
