<?xml version="1.0" encoding="utf-8"?>
<!-- Generator: Adobe Illustrator 22.0.1, SVG Export Plug-In . SVG Version: 6.00 Build 0)  -->
<svg version="1.1" id="Layer_1" xmlns="http://www.w3.org/2000/svg" xmlns:xlink="http://www.w3.org/1999/xlink" x="0px" y="0px"
	 viewBox="0 0 86.7 87.8" style="enable-background:new 0 0 86.7 87.8;" xml:space="preserve">
<style type="text/css">
	.st0{fill:#DBEBF2;}
	.st1{fill:#4C9CC1;}
	.st2{fill:#F2F2F2;}
</style>
<g>
	<path class="st0" d="M1.5,43.9c0-23.1,18.7-41.8,41.8-41.8s41.8,18.7,41.8,41.8S66.4,85.8,43.3,85.8S1.5,67,1.5,43.9z"/>
	<path class="st1" d="M8.9,43.9c0-19,15.4-34.5,34.5-34.5s34.5,15.4,34.5,34.5c0,19-15.4,34.5-34.5,34.5S8.9,62.9,8.9,43.9z"/>
	<g>
		<path class="st2" d="M64.6,30.7c-1.6,0.7-3.2,1.2-5,1.4c1.8-1.1,3.2-2.8,3.8-4.8c-1.7,1-3.6,1.7-5.5,2.1c-1.6-1.7-3.9-2.8-6.4-2.8
			c-4.8,0-8.7,3.9-8.7,8.7c0,0.7,0.1,1.3,0.2,2c-7.3-0.4-13.7-3.8-18-9.1c-0.8,1.3-1.2,2.8-1.2,4.4c0,3,1.5,5.7,3.9,7.3
			c-1.4,0-2.8-0.4-4-1.1c0,0,0,0.1,0,0.1c0,4.2,3,7.8,7,8.6c-0.7,0.2-1.5,0.3-2.3,0.3c-0.6,0-1.1-0.1-1.6-0.2c1.1,3.5,4.3,6,8.2,6.1
			c-3,2.3-6.7,3.7-10.8,3.7c-0.7,0-1.4,0-2.1-0.1c3.9,2.5,8.4,3.9,13.4,3.9c16.1,0,24.8-13.3,24.8-24.8c0-0.4,0-0.8,0-1.1
			C62,34,63.4,32.5,64.6,30.7L64.6,30.7z M64.6,30.7"/>
	</g>
</g>
</svg>
