<?xml version="1.0" encoding="utf-8"?>
<!-- Generator: Adobe Illustrator 22.0.1, SVG Export Plug-In . SVG Version: 6.00 Build 0)  -->
<svg version="1.1" id="Layer_1" xmlns="http://www.w3.org/2000/svg" xmlns:xlink="http://www.w3.org/1999/xlink" x="0px" y="0px"
	 viewBox="0 0 41.1 40.8" style="enable-background:new 0 0 41.1 40.8;" xml:space="preserve">
<style type="text/css">
	.st0{fill:url(#SVGID_1_);}
	.st1{fill:url(#SVGID_2_);}
	.st2{fill:url(#SVGID_3_);}
	.st3{fill:url(#SVGID_4_);}
	.st4{fill:url(#SVGID_5_);}
	.st5{fill:url(#SVGID_6_);}
	.st6{fill:url(#SVGID_7_);}
	.st7{fill:url(#SVGID_8_);}
	.st8{fill:url(#SVGID_9_);}
	.st9{fill:url(#SVGID_10_);}
	.st10{fill:url(#SVGID_11_);}
	.st11{fill:url(#SVGID_12_);}
	.st12{fill:url(#SVGID_13_);}
	.st13{fill:url(#SVGID_14_);}
	.st14{fill:url(#SVGID_15_);}
	.st15{fill:url(#SVGID_16_);}
	.st16{fill:url(#SVGID_17_);}
	.st17{fill:url(#SVGID_18_);}
	.st18{fill:url(#SVGID_19_);}
	.st19{fill:url(#SVGID_20_);}
	.st20{fill:url(#SVGID_21_);}
	.st21{fill:url(#SVGID_22_);}
	.st22{fill:url(#SVGID_23_);}
	.st23{fill:url(#SVGID_24_);}
	.st24{fill:url(#SVGID_25_);}
	.st25{fill:url(#SVGID_26_);}
	.st26{fill:url(#SVGID_27_);}
	.st27{fill-rule:evenodd;clip-rule:evenodd;fill:#3CC3EF;}
</style>
<g>
	<g>
		<g>
			<radialGradient id="SVGID_1_" cx="21.9848" cy="2.9403" r="43.9228" gradientUnits="userSpaceOnUse">
				<stop  offset="0.1344" style="stop-color:#FFFFFF"/>
				<stop  offset="0.3412" style="stop-color:#F9FAFB"/>
				<stop  offset="0.5196" style="stop-color:#EEF0F3"/>
				<stop  offset="0.6875" style="stop-color:#DCE3E8"/>
				<stop  offset="0.8479" style="stop-color:#C4D2DB"/>
				<stop  offset="1" style="stop-color:#A8BFCB"/>
			</radialGradient>
			<path class="st0" d="M2.8,19.9C2.8,10,10.8,2,20.6,2s17.9,8,17.9,17.9c0,9.9-8,17.9-17.9,17.9S2.8,29.8,2.8,19.9z"/>
			<radialGradient id="SVGID_2_" cx="22.0465" cy="4.1991" r="43.3628" gradientUnits="userSpaceOnUse">
				<stop  offset="0.1344" style="stop-color:#FFFFFF"/>
				<stop  offset="0.3412" style="stop-color:#F9FAFB"/>
				<stop  offset="0.5196" style="stop-color:#EEF0F3"/>
				<stop  offset="0.6875" style="stop-color:#DCE3E8"/>
				<stop  offset="0.8479" style="stop-color:#C4D2DB"/>
				<stop  offset="1" style="stop-color:#A8BFCB"/>
			</radialGradient>
			<path class="st1" d="M38.2,19.5c0.2,9.7-7.5,17.8-17.2,18c-9.7,0.2-17.8-7.5-18-17.2c-0.2-9.7,7.5-17.8,17.2-18
				C30,2.1,38,9.8,38.2,19.5z"/>
			<radialGradient id="SVGID_3_" cx="22.106" cy="5.4174" r="42.7631" gradientUnits="userSpaceOnUse">
				<stop  offset="0.1344" style="stop-color:#FFFFFF"/>
				<stop  offset="0.3412" style="stop-color:#F9FAFB"/>
				<stop  offset="0.5196" style="stop-color:#EEF0F3"/>
				<stop  offset="0.6875" style="stop-color:#DCE3E8"/>
				<stop  offset="0.8479" style="stop-color:#C4D2DB"/>
				<stop  offset="1" style="stop-color:#A8BFCB"/>
			</radialGradient>
			<path class="st2" d="M37.9,19.1c0.4,9.5-7,17.6-16.5,18c-9.5,0.4-17.6-7-18-16.5c-0.4-9.5,7-17.6,16.5-18
				C29.4,2.2,37.5,9.6,37.9,19.1z"/>
			<radialGradient id="SVGID_4_" cx="22.1636" cy="6.5961" r="42.1284" gradientUnits="userSpaceOnUse">
				<stop  offset="0.1344" style="stop-color:#FFFFFF"/>
				<stop  offset="0.3412" style="stop-color:#F9FAFB"/>
				<stop  offset="0.5196" style="stop-color:#EEF0F3"/>
				<stop  offset="0.6875" style="stop-color:#DCE3E8"/>
				<stop  offset="0.8479" style="stop-color:#C4D2DB"/>
				<stop  offset="1" style="stop-color:#A8BFCB"/>
			</radialGradient>
			<path class="st3" d="M37.6,18.8c0.6,9.4-6.4,17.5-15.8,18.1c-9.4,0.6-17.5-6.4-18.1-15.8C3,11.7,10.1,3.6,19.5,2.9
				C28.9,2.3,37,9.4,37.6,18.8z"/>
			<radialGradient id="SVGID_5_" cx="22.2194" cy="7.7366" r="41.4632" gradientUnits="userSpaceOnUse">
				<stop  offset="0.1344" style="stop-color:#FFFFFF"/>
				<stop  offset="0.3412" style="stop-color:#F9FAFB"/>
				<stop  offset="0.5196" style="stop-color:#EEF0F3"/>
				<stop  offset="0.6875" style="stop-color:#DCE3E8"/>
				<stop  offset="0.8479" style="stop-color:#C4D2DB"/>
				<stop  offset="1" style="stop-color:#A8BFCB"/>
			</radialGradient>
			<path class="st4" d="M37.3,18.4c0.8,9.2-5.9,17.4-15.1,18.2C13,37.4,4.8,30.6,4,21.4C3.1,12.2,9.9,4.1,19.1,3.2
				C28.3,2.4,36.5,9.2,37.3,18.4z"/>
			<radialGradient id="SVGID_6_" cx="22.2735" cy="8.84" r="40.772" gradientUnits="userSpaceOnUse">
				<stop  offset="0.1344" style="stop-color:#FFFFFF"/>
				<stop  offset="0.3412" style="stop-color:#F9FAFB"/>
				<stop  offset="0.5196" style="stop-color:#EEF0F3"/>
				<stop  offset="0.6875" style="stop-color:#DCE3E8"/>
				<stop  offset="0.8479" style="stop-color:#C4D2DB"/>
				<stop  offset="1" style="stop-color:#A8BFCB"/>
			</radialGradient>
			<path class="st5" d="M37,18c1.1,9-5.4,17.2-14.4,18.3c-9,1.1-17.2-5.4-18.3-14.4c-1.1-9,5.4-17.2,14.4-18.3
				C27.8,2.5,35.9,9,37,18z"/>
			<radialGradient id="SVGID_7_" cx="22.3262" cy="9.9079" r="40.0589" gradientUnits="userSpaceOnUse">
				<stop  offset="0.1344" style="stop-color:#FFFFFF"/>
				<stop  offset="0.3412" style="stop-color:#F9FAFB"/>
				<stop  offset="0.5196" style="stop-color:#EEF0F3"/>
				<stop  offset="0.6875" style="stop-color:#DCE3E8"/>
				<stop  offset="0.8479" style="stop-color:#C4D2DB"/>
				<stop  offset="1" style="stop-color:#A8BFCB"/>
			</radialGradient>
			<path class="st6" d="M36.7,17.6C38,26.5,31.8,34.7,22.9,36c-8.9,1.3-17.1-4.9-18.4-13.8C3.3,13.3,9.5,5.1,18.3,3.8
				C27.2,2.6,35.4,8.7,36.7,17.6z"/>
			<radialGradient id="SVGID_8_" cx="22.3777" cy="10.9417" r="39.3281" gradientUnits="userSpaceOnUse">
				<stop  offset="0.1344" style="stop-color:#FFFFFF"/>
				<stop  offset="0.3412" style="stop-color:#F9FAFB"/>
				<stop  offset="0.5196" style="stop-color:#EEF0F3"/>
				<stop  offset="0.6875" style="stop-color:#DCE3E8"/>
				<stop  offset="0.8479" style="stop-color:#C4D2DB"/>
				<stop  offset="1" style="stop-color:#A8BFCB"/>
			</radialGradient>
			<path class="st7" d="M36.4,17.2c1.5,8.7-4.4,17-13.1,18.4c-8.7,1.5-17-4.4-18.4-13.1C3.4,13.9,9.3,5.6,18,4.2
				C26.7,2.7,34.9,8.5,36.4,17.2z"/>
			<radialGradient id="SVGID_9_" cx="22.4282" cy="11.9429" r="38.5838" gradientUnits="userSpaceOnUse">
				<stop  offset="0.1344" style="stop-color:#FFFFFF"/>
				<stop  offset="0.3412" style="stop-color:#F9FAFB"/>
				<stop  offset="0.5196" style="stop-color:#EEF0F3"/>
				<stop  offset="0.6875" style="stop-color:#DCE3E8"/>
				<stop  offset="0.8479" style="stop-color:#C4D2DB"/>
				<stop  offset="1" style="stop-color:#A8BFCB"/>
			</radialGradient>
			<path class="st8" d="M36.1,16.8c1.7,8.5-3.9,16.8-12.4,18.5C15.2,37,6.9,31.5,5.2,23C3.5,14.4,9,6.2,17.6,4.5
				C26.1,2.8,34.4,8.3,36.1,16.8z"/>
			<radialGradient id="SVGID_10_" cx="22.4779" cy="12.9133" r="37.8296" gradientUnits="userSpaceOnUse">
				<stop  offset="0.1344" style="stop-color:#FFFFFF"/>
				<stop  offset="0.3412" style="stop-color:#F9FAFB"/>
				<stop  offset="0.5196" style="stop-color:#EEF0F3"/>
				<stop  offset="0.6875" style="stop-color:#DCE3E8"/>
				<stop  offset="0.8479" style="stop-color:#C4D2DB"/>
				<stop  offset="1" style="stop-color:#A8BFCB"/>
			</radialGradient>
			<path class="st9" d="M35.8,16.5c1.9,8.4-3.3,16.7-11.7,18.6C15.7,37,7.4,31.7,5.5,23.4C3.6,15,8.8,6.7,17.2,4.8
				C25.6,2.9,33.9,8.1,35.8,16.5z"/>
			<radialGradient id="SVGID_11_" cx="22.5271" cy="13.8547" r="37.0694" gradientUnits="userSpaceOnUse">
				<stop  offset="0.1344" style="stop-color:#FFFFFF"/>
				<stop  offset="0.3412" style="stop-color:#F9FAFB"/>
				<stop  offset="0.5196" style="stop-color:#EEF0F3"/>
				<stop  offset="0.6875" style="stop-color:#DCE3E8"/>
				<stop  offset="0.8479" style="stop-color:#C4D2DB"/>
				<stop  offset="1" style="stop-color:#A8BFCB"/>
			</radialGradient>
			<path class="st10" d="M35.5,16.1c2.1,8.2-2.8,16.6-11,18.7c-8.2,2.1-16.6-2.8-18.7-11c-2.1-8.2,2.8-16.6,11-18.7
				C25,3,33.4,7.9,35.5,16.1z"/>
			<radialGradient id="SVGID_12_" cx="22.5759" cy="14.7689" r="36.3067" gradientUnits="userSpaceOnUse">
				<stop  offset="0.1344" style="stop-color:#FFFFFF"/>
				<stop  offset="0.3412" style="stop-color:#F9FAFB"/>
				<stop  offset="0.5196" style="stop-color:#EEF0F3"/>
				<stop  offset="0.6875" style="stop-color:#DCE3E8"/>
				<stop  offset="0.8479" style="stop-color:#C4D2DB"/>
				<stop  offset="1" style="stop-color:#A8BFCB"/>
			</radialGradient>
			<path class="st11" d="M35.2,15.7c2.3,8-2.3,16.4-10.3,18.7c-8,2.3-16.4-2.3-18.7-10.3c-2.3-8,2.3-16.4,10.3-18.7
				C24.4,3,32.8,7.7,35.2,15.7z"/>
			<radialGradient id="SVGID_13_" cx="22.6247" cy="15.658" r="35.5449" gradientUnits="userSpaceOnUse">
				<stop  offset="0.1344" style="stop-color:#FFFFFF"/>
				<stop  offset="0.3412" style="stop-color:#F9FAFB"/>
				<stop  offset="0.5196" style="stop-color:#EEF0F3"/>
				<stop  offset="0.6875" style="stop-color:#DCE3E8"/>
				<stop  offset="0.8479" style="stop-color:#C4D2DB"/>
				<stop  offset="1" style="stop-color:#A8BFCB"/>
			</radialGradient>
			<path class="st12" d="M34.9,15.3c2.5,7.9-1.8,16.3-9.6,18.8c-7.9,2.5-16.3-1.8-18.8-9.6C3.9,16.6,8.2,8.2,16,5.7
				C23.9,3.1,32.3,7.5,34.9,15.3z"/>
			<radialGradient id="SVGID_14_" cx="22.6737" cy="16.524" r="34.7873" gradientUnits="userSpaceOnUse">
				<stop  offset="0.1344" style="stop-color:#FFFFFF"/>
				<stop  offset="0.3412" style="stop-color:#F9FAFB"/>
				<stop  offset="0.5196" style="stop-color:#EEF0F3"/>
				<stop  offset="0.6875" style="stop-color:#DCE3E8"/>
				<stop  offset="0.8479" style="stop-color:#C4D2DB"/>
				<stop  offset="1" style="stop-color:#A8BFCB"/>
			</radialGradient>
			<path class="st13" d="M34.6,14.9c2.8,7.7-1.3,16.2-8.9,18.9c-7.7,2.8-16.2-1.3-18.9-8.9C4,17.2,8,8.7,15.7,6
				C23.3,3.2,31.8,7.2,34.6,14.9z"/>
			<radialGradient id="SVGID_15_" cx="22.7232" cy="17.3693" r="34.0368" gradientUnits="userSpaceOnUse">
				<stop  offset="0.1344" style="stop-color:#FFFFFF"/>
				<stop  offset="0.3412" style="stop-color:#F9FAFB"/>
				<stop  offset="0.5196" style="stop-color:#EEF0F3"/>
				<stop  offset="0.6875" style="stop-color:#DCE3E8"/>
				<stop  offset="0.8479" style="stop-color:#C4D2DB"/>
				<stop  offset="1" style="stop-color:#A8BFCB"/>
			</radialGradient>
			<path class="st14" d="M34.3,14.5c3,7.5-0.7,16-8.3,19c-7.5,3-16-0.7-19-8.3c-3-7.5,0.7-16,8.3-19C22.8,3.3,31.3,7,34.3,14.5z"/>
			<radialGradient id="SVGID_16_" cx="22.7734" cy="18.1962" r="33.2966" gradientUnits="userSpaceOnUse">
				<stop  offset="0.1344" style="stop-color:#FFFFFF"/>
				<stop  offset="0.3412" style="stop-color:#F9FAFB"/>
				<stop  offset="0.5196" style="stop-color:#EEF0F3"/>
				<stop  offset="0.6875" style="stop-color:#DCE3E8"/>
				<stop  offset="0.8479" style="stop-color:#C4D2DB"/>
				<stop  offset="1" style="stop-color:#A8BFCB"/>
			</radialGradient>
			<path class="st15" d="M34,14.2c3.2,7.4-0.2,15.9-7.6,19.1C19,36.4,10.5,33,7.3,25.7C4.1,18.3,7.5,9.8,14.9,6.6
				C22.2,3.4,30.8,6.8,34,14.2z"/>
			<radialGradient id="SVGID_17_" cx="22.8246" cy="19.007" r="32.5693" gradientUnits="userSpaceOnUse">
				<stop  offset="0.1344" style="stop-color:#FFFFFF"/>
				<stop  offset="0.3412" style="stop-color:#F9FAFB"/>
				<stop  offset="0.5196" style="stop-color:#EEF0F3"/>
				<stop  offset="0.6875" style="stop-color:#DCE3E8"/>
				<stop  offset="0.8479" style="stop-color:#C4D2DB"/>
				<stop  offset="1" style="stop-color:#A8BFCB"/>
			</radialGradient>
			<path class="st16" d="M33.6,13.8C37,21,34,29.5,26.8,32.9C19.6,36.3,11,33.2,7.6,26c-3.4-7.2-0.3-15.8,6.9-19.1
				C21.7,3.5,30.3,6.6,33.6,13.8z"/>
			<radialGradient id="SVGID_18_" cx="22.8771" cy="19.8044" r="31.8577" gradientUnits="userSpaceOnUse">
				<stop  offset="0.1344" style="stop-color:#FFFFFF"/>
				<stop  offset="0.3412" style="stop-color:#F9FAFB"/>
				<stop  offset="0.5196" style="stop-color:#EEF0F3"/>
				<stop  offset="0.6875" style="stop-color:#DCE3E8"/>
				<stop  offset="0.8479" style="stop-color:#C4D2DB"/>
				<stop  offset="1" style="stop-color:#A8BFCB"/>
			</radialGradient>
			<path class="st17" d="M33.3,13.4c3.6,7,0.8,15.6-6.2,19.2c-7,3.6-15.6,0.8-19.2-6.2c-3.6-7-0.8-15.6,6.2-19.2
				C21.1,3.6,29.7,6.4,33.3,13.4z"/>
			<radialGradient id="SVGID_19_" cx="22.9313" cy="20.591" r="31.1646" gradientUnits="userSpaceOnUse">
				<stop  offset="0.1344" style="stop-color:#FFFFFF"/>
				<stop  offset="0.3412" style="stop-color:#F9FAFB"/>
				<stop  offset="0.5196" style="stop-color:#EEF0F3"/>
				<stop  offset="0.6875" style="stop-color:#DCE3E8"/>
				<stop  offset="0.8479" style="stop-color:#C4D2DB"/>
				<stop  offset="1" style="stop-color:#A8BFCB"/>
			</radialGradient>
			<path class="st18" d="M33,13c3.8,6.8,1.3,15.5-5.5,19.3c-6.8,3.8-15.5,1.3-19.3-5.5C4.4,20,6.9,11.3,13.7,7.5
				C20.6,3.7,29.2,6.2,33,13z"/>
			<radialGradient id="SVGID_20_" cx="22.9873" cy="21.3695" r="30.4925" gradientUnits="userSpaceOnUse">
				<stop  offset="0.1344" style="stop-color:#FFFFFF"/>
				<stop  offset="0.3412" style="stop-color:#F9FAFB"/>
				<stop  offset="0.5196" style="stop-color:#EEF0F3"/>
				<stop  offset="0.6875" style="stop-color:#DCE3E8"/>
				<stop  offset="0.8479" style="stop-color:#C4D2DB"/>
				<stop  offset="1" style="stop-color:#A8BFCB"/>
			</radialGradient>
			<path class="st19" d="M32.7,12.6c4,6.7,1.9,15.4-4.8,19.4c-6.7,4-15.4,1.9-19.4-4.8c-4-6.7-1.9-15.4,4.8-19.4
				C20,3.8,28.7,5.9,32.7,12.6z"/>
			<radialGradient id="SVGID_21_" cx="23.0454" cy="22.1426" r="29.8443" gradientUnits="userSpaceOnUse">
				<stop  offset="0.1344" style="stop-color:#FFFFFF"/>
				<stop  offset="0.3412" style="stop-color:#F9FAFB"/>
				<stop  offset="0.5196" style="stop-color:#EEF0F3"/>
				<stop  offset="0.6875" style="stop-color:#DCE3E8"/>
				<stop  offset="0.8479" style="stop-color:#C4D2DB"/>
				<stop  offset="1" style="stop-color:#A8BFCB"/>
			</radialGradient>
			<path class="st20" d="M32.4,12.2c4.2,6.5,2.4,15.2-4.1,19.5c-6.5,4.2-15.2,2.4-19.5-4.1C4.6,21.1,6.5,12.3,13,8.1
				C19.5,3.9,28.2,5.7,32.4,12.2z"/>
			<radialGradient id="SVGID_22_" cx="23.1061" cy="22.9131" r="29.2229" gradientUnits="userSpaceOnUse">
				<stop  offset="0.1344" style="stop-color:#FFFFFF"/>
				<stop  offset="0.3412" style="stop-color:#F9FAFB"/>
				<stop  offset="0.5196" style="stop-color:#EEF0F3"/>
				<stop  offset="0.6875" style="stop-color:#DCE3E8"/>
				<stop  offset="0.8479" style="stop-color:#C4D2DB"/>
				<stop  offset="1" style="stop-color:#A8BFCB"/>
			</radialGradient>
			<path class="st21" d="M32.1,11.9c4.4,6.3,2.9,15.1-3.4,19.5c-6.3,4.4-15.1,2.9-19.5-3.4c-4.4-6.3-2.9-15.1,3.4-19.5
				C18.9,4,27.7,5.5,32.1,11.9z"/>
			<radialGradient id="SVGID_23_" cx="23.1694" cy="23.684" r="28.6313" gradientUnits="userSpaceOnUse">
				<stop  offset="0.1344" style="stop-color:#FFFFFF"/>
				<stop  offset="0.3412" style="stop-color:#F9FAFB"/>
				<stop  offset="0.5196" style="stop-color:#EEF0F3"/>
				<stop  offset="0.6875" style="stop-color:#DCE3E8"/>
				<stop  offset="0.8479" style="stop-color:#C4D2DB"/>
				<stop  offset="1" style="stop-color:#A8BFCB"/>
			</radialGradient>
			<path class="st22" d="M31.8,11.5c4.7,6.2,3.4,15-2.8,19.6c-6.2,4.7-15,3.4-19.6-2.8c-4.7-6.2-3.4-15,2.8-19.6
				C18.4,4.1,27.2,5.3,31.8,11.5z"/>
			<radialGradient id="SVGID_24_" cx="23.2357" cy="24.4581" r="28.0733" gradientUnits="userSpaceOnUse">
				<stop  offset="0.1344" style="stop-color:#FFFFFF"/>
				<stop  offset="0.3412" style="stop-color:#F9FAFB"/>
				<stop  offset="0.5196" style="stop-color:#EEF0F3"/>
				<stop  offset="0.6875" style="stop-color:#DCE3E8"/>
				<stop  offset="0.8479" style="stop-color:#C4D2DB"/>
				<stop  offset="1" style="stop-color:#A8BFCB"/>
			</radialGradient>
			<path class="st23" d="M31.5,11.1c4.9,6,3.9,14.8-2.1,19.7c-6,4.9-14.8,3.9-19.7-2.1c-4.9-6-3.9-14.8,2.1-19.7
				C17.8,4.2,26.6,5.1,31.5,11.1z"/>
			<radialGradient id="SVGID_25_" cx="23.3053" cy="25.2382" r="27.5528" gradientUnits="userSpaceOnUse">
				<stop  offset="0.1344" style="stop-color:#FFFFFF"/>
				<stop  offset="0.3412" style="stop-color:#F9FAFB"/>
				<stop  offset="0.5196" style="stop-color:#EEF0F3"/>
				<stop  offset="0.6875" style="stop-color:#DCE3E8"/>
				<stop  offset="0.8479" style="stop-color:#C4D2DB"/>
				<stop  offset="1" style="stop-color:#A8BFCB"/>
			</radialGradient>
			<path class="st24" d="M31.2,10.7c5.1,5.8,4.5,14.7-1.4,19.8c-5.8,5.1-14.7,4.5-19.8-1.4C5,23.3,5.6,14.4,11.4,9.3
				C17.3,4.3,26.1,4.9,31.2,10.7z"/>
			<radialGradient id="SVGID_26_" cx="23.3783" cy="26.0272" r="27.0747" gradientUnits="userSpaceOnUse">
				<stop  offset="0.1344" style="stop-color:#FFFFFF"/>
				<stop  offset="0.3412" style="stop-color:#F9FAFB"/>
				<stop  offset="0.5196" style="stop-color:#EEF0F3"/>
				<stop  offset="0.6875" style="stop-color:#DCE3E8"/>
				<stop  offset="0.8479" style="stop-color:#C4D2DB"/>
				<stop  offset="1" style="stop-color:#A8BFCB"/>
			</radialGradient>
			<path class="st25" d="M30.9,10.3c5.3,5.7,5,14.6-0.7,19.8c-5.7,5.3-14.6,5-19.8-0.7c-5.3-5.7-5-14.6,0.7-19.8
				C16.7,4.3,25.6,4.7,30.9,10.3z"/>
			<radialGradient id="SVGID_27_" cx="23.455" cy="26.8279" r="26.6445" gradientUnits="userSpaceOnUse">
				<stop  offset="0.1344" style="stop-color:#FFFFFF"/>
				<stop  offset="0.3412" style="stop-color:#F9FAFB"/>
				<stop  offset="0.5196" style="stop-color:#EEF0F3"/>
				<stop  offset="0.6875" style="stop-color:#DCE3E8"/>
				<stop  offset="0.8479" style="stop-color:#C4D2DB"/>
				<stop  offset="1" style="stop-color:#A8BFCB"/>
			</radialGradient>
			<path class="st26" d="M30.6,9.9c5.5,5.5,5.5,14.4,0,19.9c-5.5,5.5-14.4,5.5-19.9,0c-5.5-5.5-5.5-14.4,0-19.9
				C16.2,4.4,25.1,4.4,30.6,9.9z"/>
		</g>
	</g>
	<path class="st27" d="M18.8,23.4c-1.4,0-2.3-1.1-2.5-1.9c0.4,0.1,0.8,0.1,1.2,0c0,0,0,0,0,0c-0.8-0.2-1.3-0.6-1.8-1.2
		c-0.3-0.4-0.4-0.9-0.4-1.4c0.4,0.2,0.8,0.3,1.2,0.3c-0.6-0.4-1-1-1.1-1.6c-0.2-0.7-0.1-1.3,0.3-2c1.5,1.7,3.3,2.7,5.6,2.8
		c0-0.1,0-0.2,0-0.3c-0.1-0.6,0.1-1.2,0.4-1.8c0.4-0.7,1-1.1,1.8-1.2c0.9-0.1,1.7,0.1,2.4,0.8c0,0,0.1,0.1,0.1,0
		c0.6-0.1,1.1-0.3,1.6-0.6c0,0,0,0,0,0c0,0,0,0,0,0c-0.2,0.6-0.6,1.1-1.2,1.5c0.5-0.1,1-0.2,1.5-0.4c0,0,0,0,0,0
		c-0.1,0.1-0.2,0.3-0.3,0.4c-0.3,0.4-0.6,0.7-1,0.9c0,0,0,0,0,0.1c0,0.4,0,0.8-0.1,1.2c-0.1,0.8-0.3,1.6-0.7,2.4
		c-0.4,0.8-0.9,1.5-1.5,2.1c-1,1.1-2.3,1.8-3.7,2.1c-0.5,0.1-1,0.2-1.5,0.2c-1.6,0-3-0.3-4.3-1.2c0,0,0,0-0.1,0
		c0.9,0.1,1.8,0,2.7-0.4C18,23.9,18.4,23.7,18.8,23.4z"/>
</g>
</svg>
