<?xml version="1.0" encoding="utf-8"?>
<!-- Generator: Adobe Illustrator 22.0.1, SVG Export Plug-In . SVG Version: 6.00 Build 0)  -->
<svg version="1.1" id="Layer_1" xmlns="http://www.w3.org/2000/svg" xmlns:xlink="http://www.w3.org/1999/xlink" x="0px" y="0px"
	 viewBox="0 0 86.7 87.8" style="enable-background:new 0 0 86.7 87.8;" xml:space="preserve">
<style type="text/css">
	.st0{fill:#F9D5D4;}
	.st1{fill:#E3322E;}
	.st2{fill-rule:evenodd;clip-rule:evenodd;fill:#F2F2F2;}
</style>
<g>
	<path class="st0" d="M1.5,43.9c0-23.1,18.7-41.8,41.8-41.8c23.1,0,41.8,18.7,41.8,41.8S66.4,85.8,43.3,85.8
		C20.2,85.8,1.5,67,1.5,43.9z"/>
	<g>
		<circle class="st1" cx="43.3" cy="43.9" r="34.5"/>
		<g>
			<path class="st2" d="M63.9,35.6c0-3.4-2.8-6.2-6.2-6.2H28.9c-3.4,0-6.2,2.8-6.2,6.2v16.5c0,3.4,2.8,6.2,6.2,6.2h28.9
				c3.4,0,6.2-2.8,6.2-6.2V35.6z M39.2,50.9V35.4L51,43.1L39.2,50.9z M39.2,50.9"/>
		</g>
	</g>
</g>
</svg>
