<?xml version="1.0" encoding="utf-8"?>
<!-- Generator: Adobe Illustrator 22.0.1, SVG Export Plug-In . SVG Version: 6.00 Build 0)  -->
<svg version="1.1" id="Layer_1" xmlns="http://www.w3.org/2000/svg" xmlns:xlink="http://www.w3.org/1999/xlink" x="0px" y="0px"
	 viewBox="0 0 41.1 40.8" style="enable-background:new 0 0 41.1 40.8;" xml:space="preserve">
<style type="text/css">
	.st0{fill:url(#SVGID_1_);}
	.st1{fill:url(#SVGID_2_);}
	.st2{fill:url(#SVGID_3_);}
	.st3{fill:url(#SVGID_4_);}
	.st4{fill:url(#SVGID_5_);}
	.st5{fill:url(#SVGID_6_);}
	.st6{fill:url(#SVGID_7_);}
	.st7{fill:url(#SVGID_8_);}
	.st8{fill:url(#SVGID_9_);}
	.st9{fill:url(#SVGID_10_);}
	.st10{fill:url(#SVGID_11_);}
	.st11{fill:url(#SVGID_12_);}
	.st12{fill:url(#SVGID_13_);}
	.st13{fill:url(#SVGID_14_);}
	.st14{fill:url(#SVGID_15_);}
	.st15{fill:url(#SVGID_16_);}
	.st16{fill:url(#SVGID_17_);}
	.st17{fill:url(#SVGID_18_);}
	.st18{fill:url(#SVGID_19_);}
	.st19{fill:url(#SVGID_20_);}
	.st20{fill:url(#SVGID_21_);}
	.st21{fill:url(#SVGID_22_);}
	.st22{fill:url(#SVGID_23_);}
	.st23{fill:url(#SVGID_24_);}
	.st24{fill:url(#SVGID_25_);}
	.st25{fill:url(#SVGID_26_);}
	.st26{fill:url(#SVGID_27_);}
	.st27{fill:#EC4039;}
</style>
<g>
	<g>
		<g>
			<radialGradient id="SVGID_1_" cx="21.7222" cy="2.7191" r="43.9234" gradientUnits="userSpaceOnUse">
				<stop  offset="0.1344" style="stop-color:#FFFFFF"/>
				<stop  offset="0.3412" style="stop-color:#F9FAFB"/>
				<stop  offset="0.5196" style="stop-color:#EEF0F3"/>
				<stop  offset="0.6875" style="stop-color:#DCE3E8"/>
				<stop  offset="0.8479" style="stop-color:#C4D2DB"/>
				<stop  offset="1" style="stop-color:#A8BFCB"/>
			</radialGradient>
			<path class="st0" d="M2.5,19.7c0-9.9,8-17.9,17.9-17.9c9.9,0,17.9,8,17.9,17.9c0,9.9-8,17.9-17.9,17.9
				C10.5,37.6,2.5,29.6,2.5,19.7z"/>
			<radialGradient id="SVGID_2_" cx="21.7839" cy="3.978" r="43.3634" gradientUnits="userSpaceOnUse">
				<stop  offset="0.1344" style="stop-color:#FFFFFF"/>
				<stop  offset="0.3412" style="stop-color:#F9FAFB"/>
				<stop  offset="0.5196" style="stop-color:#EEF0F3"/>
				<stop  offset="0.6875" style="stop-color:#DCE3E8"/>
				<stop  offset="0.8479" style="stop-color:#C4D2DB"/>
				<stop  offset="1" style="stop-color:#A8BFCB"/>
			</radialGradient>
			<path class="st1" d="M20.8,2.1c9.7,0.2,17.4,8.3,17.2,18c-0.2,9.7-8.3,17.4-18,17.2c-9.7-0.2-17.4-8.3-17.2-18
				C3,9.6,11,1.9,20.8,2.1z"/>
			<radialGradient id="SVGID_3_" cx="21.8434" cy="5.1962" r="42.7637" gradientUnits="userSpaceOnUse">
				<stop  offset="0.1344" style="stop-color:#FFFFFF"/>
				<stop  offset="0.3412" style="stop-color:#F9FAFB"/>
				<stop  offset="0.5196" style="stop-color:#EEF0F3"/>
				<stop  offset="0.6875" style="stop-color:#DCE3E8"/>
				<stop  offset="0.8479" style="stop-color:#C4D2DB"/>
				<stop  offset="1" style="stop-color:#A8BFCB"/>
			</radialGradient>
			<path class="st2" d="M21.1,2.4c9.5,0.4,16.9,8.5,16.5,18c-0.4,9.5-8.5,16.9-18,16.5c-9.5-0.4-16.9-8.5-16.5-18
				C3.5,9.4,11.6,2,21.1,2.4z"/>
			<radialGradient id="SVGID_4_" cx="21.901" cy="6.375" r="42.129" gradientUnits="userSpaceOnUse">
				<stop  offset="0.1344" style="stop-color:#FFFFFF"/>
				<stop  offset="0.3412" style="stop-color:#F9FAFB"/>
				<stop  offset="0.5196" style="stop-color:#EEF0F3"/>
				<stop  offset="0.6875" style="stop-color:#DCE3E8"/>
				<stop  offset="0.8479" style="stop-color:#C4D2DB"/>
				<stop  offset="1" style="stop-color:#A8BFCB"/>
			</radialGradient>
			<path class="st3" d="M21.5,2.7c9.4,0.6,16.5,8.7,15.8,18.1c-0.6,9.4-8.7,16.5-18.1,15.8C9.9,36,2.8,27.9,3.4,18.5
				C4,9.2,12.2,2.1,21.5,2.7z"/>
			<radialGradient id="SVGID_5_" cx="21.9567" cy="7.5154" r="41.4638" gradientUnits="userSpaceOnUse">
				<stop  offset="0.1344" style="stop-color:#FFFFFF"/>
				<stop  offset="0.3412" style="stop-color:#F9FAFB"/>
				<stop  offset="0.5196" style="stop-color:#EEF0F3"/>
				<stop  offset="0.6875" style="stop-color:#DCE3E8"/>
				<stop  offset="0.8479" style="stop-color:#C4D2DB"/>
				<stop  offset="1" style="stop-color:#A8BFCB"/>
			</radialGradient>
			<path class="st4" d="M21.9,3c9.2,0.8,16,9,15.1,18.2c-0.8,9.2-9,16-18.2,15.1c-9.2-0.8-16-9-15.1-18.2C4.6,8.9,12.7,2.2,21.9,3z"
				/>
			<radialGradient id="SVGID_6_" cx="22.0109" cy="8.6189" r="40.7725" gradientUnits="userSpaceOnUse">
				<stop  offset="0.1344" style="stop-color:#FFFFFF"/>
				<stop  offset="0.3412" style="stop-color:#F9FAFB"/>
				<stop  offset="0.5196" style="stop-color:#EEF0F3"/>
				<stop  offset="0.6875" style="stop-color:#DCE3E8"/>
				<stop  offset="0.8479" style="stop-color:#C4D2DB"/>
				<stop  offset="1" style="stop-color:#A8BFCB"/>
			</radialGradient>
			<path class="st5" d="M22.3,3.3c9,1.1,15.5,9.2,14.4,18.3c-1.1,9-9.2,15.5-18.3,14.4C9.4,35,3,26.8,4,17.8
				C5.1,8.7,13.3,2.3,22.3,3.3z"/>
			<radialGradient id="SVGID_7_" cx="22.0636" cy="9.6868" r="40.0594" gradientUnits="userSpaceOnUse">
				<stop  offset="0.1344" style="stop-color:#FFFFFF"/>
				<stop  offset="0.3412" style="stop-color:#F9FAFB"/>
				<stop  offset="0.5196" style="stop-color:#EEF0F3"/>
				<stop  offset="0.6875" style="stop-color:#DCE3E8"/>
				<stop  offset="0.8479" style="stop-color:#C4D2DB"/>
				<stop  offset="1" style="stop-color:#A8BFCB"/>
			</radialGradient>
			<path class="st6" d="M22.7,3.6c8.9,1.3,15,9.5,13.8,18.4c-1.3,8.9-9.5,15-18.4,13.8C9.2,34.5,3,26.3,4.3,17.4
				C5.6,8.5,13.8,2.4,22.7,3.6z"/>
			<radialGradient id="SVGID_8_" cx="22.1151" cy="10.7206" r="39.3287" gradientUnits="userSpaceOnUse">
				<stop  offset="0.1344" style="stop-color:#FFFFFF"/>
				<stop  offset="0.3412" style="stop-color:#F9FAFB"/>
				<stop  offset="0.5196" style="stop-color:#EEF0F3"/>
				<stop  offset="0.6875" style="stop-color:#DCE3E8"/>
				<stop  offset="0.8479" style="stop-color:#C4D2DB"/>
				<stop  offset="1" style="stop-color:#A8BFCB"/>
			</radialGradient>
			<path class="st7" d="M23.1,3.9c8.7,1.5,14.6,9.7,13.1,18.4c-1.5,8.7-9.7,14.6-18.4,13.1C9,34,3.1,25.7,4.6,17
				C6.1,8.3,14.4,2.5,23.1,3.9z"/>
			<radialGradient id="SVGID_9_" cx="22.1656" cy="11.7218" r="38.5843" gradientUnits="userSpaceOnUse">
				<stop  offset="0.1344" style="stop-color:#FFFFFF"/>
				<stop  offset="0.3412" style="stop-color:#F9FAFB"/>
				<stop  offset="0.5196" style="stop-color:#EEF0F3"/>
				<stop  offset="0.6875" style="stop-color:#DCE3E8"/>
				<stop  offset="0.8479" style="stop-color:#C4D2DB"/>
				<stop  offset="1" style="stop-color:#A8BFCB"/>
			</radialGradient>
			<path class="st8" d="M23.4,4.2c8.5,1.7,14.1,10,12.4,18.5c-1.7,8.5-10,14.1-18.5,12.4c-8.5-1.7-14.1-10-12.4-18.5
				C6.6,8.1,14.9,2.5,23.4,4.2z"/>
			<radialGradient id="SVGID_10_" cx="22.2153" cy="12.6922" r="37.8301" gradientUnits="userSpaceOnUse">
				<stop  offset="0.1344" style="stop-color:#FFFFFF"/>
				<stop  offset="0.3412" style="stop-color:#F9FAFB"/>
				<stop  offset="0.5196" style="stop-color:#EEF0F3"/>
				<stop  offset="0.6875" style="stop-color:#DCE3E8"/>
				<stop  offset="0.8479" style="stop-color:#C4D2DB"/>
				<stop  offset="1" style="stop-color:#A8BFCB"/>
			</radialGradient>
			<path class="st9" d="M23.8,4.5c8.4,1.9,13.6,10.2,11.7,18.6c-1.9,8.4-10.2,13.6-18.6,11.7C8.6,32.9,3.3,24.6,5.2,16.2
				C7.1,7.9,15.5,2.6,23.8,4.5z"/>
			<radialGradient id="SVGID_11_" cx="22.2645" cy="13.6336" r="37.0699" gradientUnits="userSpaceOnUse">
				<stop  offset="0.1344" style="stop-color:#FFFFFF"/>
				<stop  offset="0.3412" style="stop-color:#F9FAFB"/>
				<stop  offset="0.5196" style="stop-color:#EEF0F3"/>
				<stop  offset="0.6875" style="stop-color:#DCE3E8"/>
				<stop  offset="0.8479" style="stop-color:#C4D2DB"/>
				<stop  offset="1" style="stop-color:#A8BFCB"/>
			</radialGradient>
			<path class="st10" d="M24.2,4.8c8.2,2.1,13.1,10.5,11,18.7c-2.1,8.2-10.5,13.1-18.7,11C8.3,32.4,3.4,24,5.5,15.9
				C7.7,7.7,16,2.7,24.2,4.8z"/>
			<radialGradient id="SVGID_12_" cx="22.3133" cy="14.5478" r="36.3072" gradientUnits="userSpaceOnUse">
				<stop  offset="0.1344" style="stop-color:#FFFFFF"/>
				<stop  offset="0.3412" style="stop-color:#F9FAFB"/>
				<stop  offset="0.5196" style="stop-color:#EEF0F3"/>
				<stop  offset="0.6875" style="stop-color:#DCE3E8"/>
				<stop  offset="0.8479" style="stop-color:#C4D2DB"/>
				<stop  offset="1" style="stop-color:#A8BFCB"/>
			</radialGradient>
			<path class="st11" d="M24.6,5.2c8,2.3,12.6,10.7,10.3,18.7c-2.3,8-10.7,12.6-18.7,10.3c-8-2.3-12.6-10.7-10.3-18.7
				C8.2,7.4,16.6,2.8,24.6,5.2z"/>
			<radialGradient id="SVGID_13_" cx="22.3621" cy="15.4369" r="35.5454" gradientUnits="userSpaceOnUse">
				<stop  offset="0.1344" style="stop-color:#FFFFFF"/>
				<stop  offset="0.3412" style="stop-color:#F9FAFB"/>
				<stop  offset="0.5196" style="stop-color:#EEF0F3"/>
				<stop  offset="0.6875" style="stop-color:#DCE3E8"/>
				<stop  offset="0.8479" style="stop-color:#C4D2DB"/>
				<stop  offset="1" style="stop-color:#A8BFCB"/>
			</radialGradient>
			<path class="st12" d="M25,5.5c7.9,2.5,12.2,11,9.6,18.8c-2.5,7.9-11,12.2-18.8,9.6c-7.9-2.5-12.2-11-9.6-18.8
				C8.7,7.2,17.1,2.9,25,5.5z"/>
			<radialGradient id="SVGID_14_" cx="22.4111" cy="16.303" r="34.7877" gradientUnits="userSpaceOnUse">
				<stop  offset="0.1344" style="stop-color:#FFFFFF"/>
				<stop  offset="0.3412" style="stop-color:#F9FAFB"/>
				<stop  offset="0.5196" style="stop-color:#EEF0F3"/>
				<stop  offset="0.6875" style="stop-color:#DCE3E8"/>
				<stop  offset="0.8479" style="stop-color:#C4D2DB"/>
				<stop  offset="1" style="stop-color:#A8BFCB"/>
			</radialGradient>
			<path class="st13" d="M25.4,5.8C33,8.5,37,17,34.3,24.7c-2.8,7.7-11.2,11.7-18.9,8.9C7.7,30.9,3.7,22.4,6.5,14.7
				C9.2,7,17.7,3,25.4,5.8z"/>
			<radialGradient id="SVGID_15_" cx="22.4606" cy="17.1483" r="34.0372" gradientUnits="userSpaceOnUse">
				<stop  offset="0.1344" style="stop-color:#FFFFFF"/>
				<stop  offset="0.3412" style="stop-color:#F9FAFB"/>
				<stop  offset="0.5196" style="stop-color:#EEF0F3"/>
				<stop  offset="0.6875" style="stop-color:#DCE3E8"/>
				<stop  offset="0.8479" style="stop-color:#C4D2DB"/>
				<stop  offset="1" style="stop-color:#A8BFCB"/>
			</radialGradient>
			<path class="st14" d="M25.7,6.1C33.3,9,37,17.5,34,25c-3,7.5-11.5,11.2-19,8.3c-7.5-3-11.2-11.5-8.3-19
				C9.7,6.8,18.2,3.1,25.7,6.1z"/>
			<radialGradient id="SVGID_16_" cx="22.5108" cy="17.9751" r="33.2969" gradientUnits="userSpaceOnUse">
				<stop  offset="0.1344" style="stop-color:#FFFFFF"/>
				<stop  offset="0.3412" style="stop-color:#F9FAFB"/>
				<stop  offset="0.5196" style="stop-color:#EEF0F3"/>
				<stop  offset="0.6875" style="stop-color:#DCE3E8"/>
				<stop  offset="0.8479" style="stop-color:#C4D2DB"/>
				<stop  offset="1" style="stop-color:#A8BFCB"/>
			</radialGradient>
			<path class="st15" d="M26.1,6.4c7.4,3.2,10.7,11.7,7.6,19.1C30.5,32.8,22,36.2,14.6,33C7.3,29.8,3.9,21.3,7.1,13.9
				C10.2,6.6,18.8,3.2,26.1,6.4z"/>
			<radialGradient id="SVGID_17_" cx="22.562" cy="18.786" r="32.5696" gradientUnits="userSpaceOnUse">
				<stop  offset="0.1344" style="stop-color:#FFFFFF"/>
				<stop  offset="0.3412" style="stop-color:#F9FAFB"/>
				<stop  offset="0.5196" style="stop-color:#EEF0F3"/>
				<stop  offset="0.6875" style="stop-color:#DCE3E8"/>
				<stop  offset="0.8479" style="stop-color:#C4D2DB"/>
				<stop  offset="1" style="stop-color:#A8BFCB"/>
			</radialGradient>
			<path class="st16" d="M26.5,6.7c7.2,3.4,10.3,12,6.9,19.1c-3.4,7.2-12,10.3-19.1,6.9C7.1,29.3,4,20.7,7.4,13.6
				C10.8,6.4,19.3,3.3,26.5,6.7z"/>
			<radialGradient id="SVGID_18_" cx="22.6146" cy="19.5834" r="31.858" gradientUnits="userSpaceOnUse">
				<stop  offset="0.1344" style="stop-color:#FFFFFF"/>
				<stop  offset="0.3412" style="stop-color:#F9FAFB"/>
				<stop  offset="0.5196" style="stop-color:#EEF0F3"/>
				<stop  offset="0.6875" style="stop-color:#DCE3E8"/>
				<stop  offset="0.8479" style="stop-color:#C4D2DB"/>
				<stop  offset="1" style="stop-color:#A8BFCB"/>
			</radialGradient>
			<path class="st17" d="M26.9,7c7,3.6,9.8,12.2,6.2,19.2c-3.6,7-12.2,9.8-19.2,6.2c-7-3.6-9.8-12.2-6.2-19.2
				C11.3,6.2,19.9,3.4,26.9,7z"/>
			<radialGradient id="SVGID_19_" cx="22.6687" cy="20.37" r="31.1648" gradientUnits="userSpaceOnUse">
				<stop  offset="0.1344" style="stop-color:#FFFFFF"/>
				<stop  offset="0.3412" style="stop-color:#F9FAFB"/>
				<stop  offset="0.5196" style="stop-color:#EEF0F3"/>
				<stop  offset="0.6875" style="stop-color:#DCE3E8"/>
				<stop  offset="0.8479" style="stop-color:#C4D2DB"/>
				<stop  offset="1" style="stop-color:#A8BFCB"/>
			</radialGradient>
			<path class="st18" d="M27.3,7.3c6.8,3.8,9.3,12.4,5.5,19.3c-3.8,6.8-12.4,9.3-19.3,5.5C6.6,28.3,4.2,19.6,8,12.8
				C11.8,5.9,20.4,3.5,27.3,7.3z"/>
			<radialGradient id="SVGID_20_" cx="22.7247" cy="21.1484" r="30.4928" gradientUnits="userSpaceOnUse">
				<stop  offset="0.1344" style="stop-color:#FFFFFF"/>
				<stop  offset="0.3412" style="stop-color:#F9FAFB"/>
				<stop  offset="0.5196" style="stop-color:#EEF0F3"/>
				<stop  offset="0.6875" style="stop-color:#DCE3E8"/>
				<stop  offset="0.8479" style="stop-color:#C4D2DB"/>
				<stop  offset="1" style="stop-color:#A8BFCB"/>
			</radialGradient>
			<path class="st19" d="M27.7,7.6c6.7,4,8.8,12.7,4.8,19.4c-4,6.7-12.7,8.8-19.4,4.8c-6.7-4-8.8-12.7-4.8-19.4
				C12.3,5.7,21,3.6,27.7,7.6z"/>
			<radialGradient id="SVGID_21_" cx="22.7829" cy="21.9215" r="29.8445" gradientUnits="userSpaceOnUse">
				<stop  offset="0.1344" style="stop-color:#FFFFFF"/>
				<stop  offset="0.3412" style="stop-color:#F9FAFB"/>
				<stop  offset="0.5196" style="stop-color:#EEF0F3"/>
				<stop  offset="0.6875" style="stop-color:#DCE3E8"/>
				<stop  offset="0.8479" style="stop-color:#C4D2DB"/>
				<stop  offset="1" style="stop-color:#A8BFCB"/>
			</radialGradient>
			<path class="st20" d="M28,7.9c6.5,4.2,8.4,12.9,4.1,19.5c-4.2,6.5-12.9,8.4-19.5,4.1C6.2,27.2,4.4,18.5,8.6,12
				C12.8,5.5,21.5,3.7,28,7.9z"/>
			<radialGradient id="SVGID_22_" cx="22.8435" cy="22.692" r="29.223" gradientUnits="userSpaceOnUse">
				<stop  offset="0.1344" style="stop-color:#FFFFFF"/>
				<stop  offset="0.3412" style="stop-color:#F9FAFB"/>
				<stop  offset="0.5196" style="stop-color:#EEF0F3"/>
				<stop  offset="0.6875" style="stop-color:#DCE3E8"/>
				<stop  offset="0.8479" style="stop-color:#C4D2DB"/>
				<stop  offset="1" style="stop-color:#A8BFCB"/>
			</radialGradient>
			<path class="st21" d="M28.4,8.2c6.3,4.4,7.9,13.2,3.4,19.5c-4.4,6.3-13.2,7.9-19.5,3.4C6,26.7,4.4,18,8.9,11.6
				C13.3,5.3,22.1,3.8,28.4,8.2z"/>
			<radialGradient id="SVGID_23_" cx="22.9069" cy="23.4629" r="28.6315" gradientUnits="userSpaceOnUse">
				<stop  offset="0.1344" style="stop-color:#FFFFFF"/>
				<stop  offset="0.3412" style="stop-color:#F9FAFB"/>
				<stop  offset="0.5196" style="stop-color:#EEF0F3"/>
				<stop  offset="0.6875" style="stop-color:#DCE3E8"/>
				<stop  offset="0.8479" style="stop-color:#C4D2DB"/>
				<stop  offset="1" style="stop-color:#A8BFCB"/>
			</radialGradient>
			<path class="st22" d="M28.8,8.5c6.2,4.7,7.4,13.4,2.8,19.6c-4.7,6.2-13.4,7.4-19.6,2.8c-6.2-4.7-7.4-13.4-2.8-19.6
				C13.8,5.1,22.6,3.8,28.8,8.5z"/>
			<radialGradient id="SVGID_24_" cx="22.9732" cy="24.2369" r="28.0734" gradientUnits="userSpaceOnUse">
				<stop  offset="0.1344" style="stop-color:#FFFFFF"/>
				<stop  offset="0.3412" style="stop-color:#F9FAFB"/>
				<stop  offset="0.5196" style="stop-color:#EEF0F3"/>
				<stop  offset="0.6875" style="stop-color:#DCE3E8"/>
				<stop  offset="0.8479" style="stop-color:#C4D2DB"/>
				<stop  offset="1" style="stop-color:#A8BFCB"/>
			</radialGradient>
			<path class="st23" d="M29.2,8.8c6,4.9,6.9,13.7,2.1,19.7c-4.9,6-13.7,6.9-19.7,2.1c-6-4.9-6.9-13.7-2.1-19.7
				C14.4,4.9,23.2,3.9,29.2,8.8z"/>
			<radialGradient id="SVGID_25_" cx="23.0428" cy="25.017" r="27.553" gradientUnits="userSpaceOnUse">
				<stop  offset="0.1344" style="stop-color:#FFFFFF"/>
				<stop  offset="0.3412" style="stop-color:#F9FAFB"/>
				<stop  offset="0.5196" style="stop-color:#EEF0F3"/>
				<stop  offset="0.6875" style="stop-color:#DCE3E8"/>
				<stop  offset="0.8479" style="stop-color:#C4D2DB"/>
				<stop  offset="1" style="stop-color:#A8BFCB"/>
			</radialGradient>
			<path class="st24" d="M29.6,9.1c5.8,5.1,6.5,13.9,1.4,19.8c-5.1,5.8-13.9,6.5-19.8,1.4c-5.8-5.1-6.5-13.9-1.4-19.8
				C14.9,4.7,23.7,4,29.6,9.1z"/>
			<radialGradient id="SVGID_26_" cx="23.1158" cy="25.806" r="27.0748" gradientUnits="userSpaceOnUse">
				<stop  offset="0.1344" style="stop-color:#FFFFFF"/>
				<stop  offset="0.3412" style="stop-color:#F9FAFB"/>
				<stop  offset="0.5196" style="stop-color:#EEF0F3"/>
				<stop  offset="0.6875" style="stop-color:#DCE3E8"/>
				<stop  offset="0.8479" style="stop-color:#C4D2DB"/>
				<stop  offset="1" style="stop-color:#A8BFCB"/>
			</radialGradient>
			<path class="st25" d="M30,9.4c5.7,5.3,6,14.2,0.7,19.8c-5.3,5.7-14.2,6-19.8,0.7c-5.7-5.3-6-14.2-0.7-19.8
				C15.4,4.4,24.3,4.1,30,9.4z"/>
			<radialGradient id="SVGID_27_" cx="23.1925" cy="26.6067" r="26.6446" gradientUnits="userSpaceOnUse">
				<stop  offset="0.1344" style="stop-color:#FFFFFF"/>
				<stop  offset="0.3412" style="stop-color:#F9FAFB"/>
				<stop  offset="0.5196" style="stop-color:#EEF0F3"/>
				<stop  offset="0.6875" style="stop-color:#DCE3E8"/>
				<stop  offset="0.8479" style="stop-color:#C4D2DB"/>
				<stop  offset="1" style="stop-color:#A8BFCB"/>
			</radialGradient>
			<path class="st26" d="M30.3,9.7c5.5,5.5,5.5,14.4,0,19.9c-5.5,5.5-14.4,5.5-19.9,0c-5.5-5.5-5.5-14.4,0-19.9
				C15.9,4.2,24.8,4.2,30.3,9.7z"/>
		</g>
	</g>
	<g>
		<path class="st27" d="M19.5,12.5h-0.8l-0.6,2.1l-0.6-2.1h-0.9c0.2,0.5,0.3,1,0.5,1.5c0.3,0.8,0.4,1.3,0.5,1.7v2.2h0.8v-2.2
			L19.5,12.5z M21.7,16.6v-1.4c0-0.4-0.1-0.7-0.2-0.9c-0.2-0.3-0.5-0.4-0.8-0.4c-0.4,0-0.6,0.1-0.8,0.4c-0.2,0.2-0.2,0.5-0.2,0.9
			v1.4c0,0.4,0.1,0.7,0.2,0.9c0.2,0.3,0.5,0.4,0.8,0.4c0.4,0,0.6-0.1,0.8-0.4C21.6,17.3,21.7,17,21.7,16.6z M21,16.7
			c0,0.4-0.1,0.6-0.3,0.6c-0.2,0-0.3-0.2-0.3-0.6V15c0-0.4,0.1-0.6,0.3-0.6c0.2,0,0.3,0.2,0.3,0.6V16.7z M24.4,17.9v-4h-0.7v3.1
			c-0.2,0.2-0.3,0.3-0.5,0.3c-0.1,0-0.2-0.1-0.2-0.2c0,0,0-0.1,0-0.3v-3h-0.7v3.2c0,0.3,0,0.5,0.1,0.6c0.1,0.2,0.2,0.3,0.5,0.3
			c0.3,0,0.5-0.2,0.8-0.5v0.4H24.4z"/>
		<g>
			<path class="st27" d="M22.1,21.9c-0.1,0-0.2,0.1-0.4,0.2v2.4c0.1,0.1,0.2,0.2,0.4,0.2c0.2,0,0.3-0.2,0.3-0.5v-1.7
				C22.4,22.1,22.3,21.9,22.1,21.9z"/>
			<path class="st27" d="M24.8,21.9c-0.2,0-0.4,0.2-0.4,0.6v0.4h0.7v-0.4C25.1,22.1,25,21.9,24.8,21.9z"/>
			<path class="st27" d="M26.5,19.9c-0.1-0.6-0.7-1.1-1.3-1.2c-1.5-0.2-3-0.2-4.5-0.2c-1.5,0-3,0-4.5,0.2c-0.6,0.1-1.1,0.5-1.3,1.2
				c-0.2,0.9-0.2,1.9-0.2,2.8c0,0.9,0,1.9,0.2,2.8c0.1,0.6,0.7,1.1,1.3,1.2c1.5,0.2,3,0.2,4.5,0.2c1.5,0,3,0,4.5-0.2
				c0.6-0.1,1.1-0.5,1.3-1.2c0.2-0.9,0.2-1.9,0.2-2.8C26.8,21.8,26.8,20.8,26.5,19.9z M18.2,20.7h-0.9v4.6h-0.8v-4.6h-0.8V20h2.5
				V20.7z M20.4,25.3h-0.7v-0.4c-0.3,0.3-0.6,0.5-0.8,0.5c-0.2,0-0.4-0.1-0.5-0.3c0-0.1-0.1-0.3-0.1-0.6v-3.1h0.7v2.9
				c0,0.2,0,0.3,0,0.3c0,0.1,0.1,0.2,0.2,0.2c0.1,0,0.3-0.1,0.5-0.3v-3h0.7V25.3z M23.1,24.1c0,0.4,0,0.6-0.1,0.8
				c-0.1,0.3-0.3,0.4-0.6,0.4c-0.3,0-0.5-0.1-0.7-0.4v0.4H21V20h0.7v1.7c0.2-0.3,0.5-0.4,0.7-0.4c0.3,0,0.5,0.2,0.6,0.4
				c0,0.2,0.1,0.4,0.1,0.8V24.1z M25.9,23.5h-1.4v0.7c0,0.4,0.1,0.6,0.4,0.6c0.2,0,0.3-0.1,0.3-0.3c0,0,0-0.2,0-0.5h0.7V24
				c0,0.2,0,0.4,0,0.5c0,0.2-0.1,0.3-0.2,0.4c-0.2,0.3-0.5,0.4-0.9,0.4c-0.4,0-0.7-0.1-0.9-0.4c-0.2-0.2-0.2-0.5-0.2-0.9v-1.4
				c0-0.4,0.1-0.7,0.2-0.9c0.2-0.3,0.5-0.4,0.9-0.4c0.4,0,0.6,0.1,0.8,0.4c0.2,0.2,0.2,0.5,0.2,0.9V23.5z"/>
		</g>
	</g>
</g>
</svg>
