<svg width="100%" height="100%" viewBox="0 0 55 51" version="1.1" xmlns="http://www.w3.org/2000/svg" xml:space="preserve" fill-rule="evenodd" clip-rule="evenodd" stroke-linejoin="round" stroke-miterlimit="1.414"><path d="M24.737.18C6.967 2.21-4.177 19.19 1.482 35.617c1.011 2.95 2.904 6.312 4.594 8.186.359.404.166.074-.432-.744C-7.549 25.198 5.884.465 28.412 1.144c21.04.634 33.204 23.64 21.618 40.868-1.157 1.718-1.23 2.012-.137.532C63.509 24.114 47.743-2.439 24.737.18z" fill="#fff" fill-rule="nonzero"/><path d="M25.655 9.064c-.147.037-.89.166-1.653.294-8.38 1.35-15.013 9.326-14.857 17.889l.028 1.488.137-1.93c1.085-14.938 18.1-22.426 29.76-13.092 2.838 2.27 5.2 5.945 6.155 9.601.34 1.296.432 1.507.359.827-.726-6.633-7.01-13.193-14.094-14.718-1.24-.267-5.21-.506-5.835-.359z" fill="#fff" fill-rule="nonzero"/><path d="M26.684 13.87c-3.83 1.221-4.336 6.808-.79 8.645l.57.294-1.103.496c-2.049.937-3.28 2.49-3.51 4.438-.1.845-.422 1.286-.422.579 0-.726-1.25-2.205-2.297-2.72l-1.02-.496.717-.67c2.692-2.509-.037-6.845-3.418-5.43-2.352.983-2.775 4.125-.753 5.595l.716.514-.827.405c-1.148.55-2.407 1.892-3.05 3.234-.735 1.534-.707 1.59.515 1.139 2.076-.753 4.694-.597 8.314.496l3.032.919 2.573-.01c2.076-.009 3.014-.11 4.851-.505 2.61-.57 3.547-.615 3.96-.211 1.066 1.075-2.187 3.069-6.578 4.033-1.92.423-2.077 1.222-.478 2.481 2.205 1.755 5.053 1.709 8.443-.129.855-.468 2.141-1.166 2.849-1.543 1.295-.69 3.757-1.452 4.722-1.452.469 0 .515-.064.515-.634 0-2.83-2.123-6.257-4.54-7.332l-.77-.349.624-.578c1.59-1.498.615-3.97-1.571-3.97-2.205 0-3.16 2.454-1.544 3.97l.625.588-.588.21c-.322.111-.855.46-1.176.773l-.579.56-.138-.615c-.193-.9-2.122-2.73-3.445-3.271l-1.048-.423.965-.67c4.475-3.134.9-10.043-4.346-8.362z" fill="#fff" fill-rule="nonzero"/><path d="M48.634 33.706c-1.966.432-4.658 1.837-7.36 3.868-8.305 6.22-11.953 6.56-23.18 2.177-5.954-2.324-8.94-3.04-11.476-2.738l-1.268.157 1.746.128c2.637.193 4.732.845 9.372 2.922 12.375 5.53 16.648 5.228 25.542-1.828 4.051-3.216 5.797-4.2 8.14-4.613.68-.12 1.231-.248 1.231-.285 0-.156-1.626-.027-2.747.212z" fill="#fff" fill-rule="nonzero"/><text x="38.431" y="63.041" font-family="'Cairo-Bold','Cairo'" font-weight="700" font-size="6.508" fill="#fff" transform="matrix(1.29107 0 0 1.06643 -31.821 -16.336)">CNAS</text><g><text x="30.289" y="12.061" font-family="'ArialMT','Arial',sans-serif" font-size="4.139" fill="#fff" transform="matrix(-.3196 -1.0445 1.01199 -.35234 4.684 69.868)">ﺀ</text><text x="31.844" y="11.45" font-family="'ArialMT','Arial',sans-serif" font-size="4.139" fill="#fff" transform="matrix(-.24456 -1.06739 1.03356 -.2716 2.63 69.295)">ﺍ</text><text x="32.639" y="11.166" font-family="'ArialMT','Arial',sans-serif" font-size="4.139" fill="#fff" transform="matrix(-.15821 -1.08604 1.05095 -.17862 -.138 68.726)">ﺮ</text><text x="34.568" y="10.723" font-family="'ArialMT','Arial',sans-serif" font-size="4.139" fill="#fff" transform="matrix(-.0408 -1.09886 1.06247 -.05208 -3.878 67.635)">ﺟ</text><text x="36.708" y="10.493" font-family="'ArialMT','Arial',sans-serif" font-size="4.139" fill="#fff" transform="matrix(.09415 -1.09623 1.05893 .09346 -8.549 65.936)">ﻷ</text><text x="38.91" y="10.57" font-family="'ArialMT','Arial',sans-serif" font-size="4.139" fill="#fff" transform="matrix(.19157 -1.0827 1.04514 .19861 -12.239 64.243)">ﺍ</text><text x="40.865" y="10.825" font-family="'ArialMT','Arial',sans-serif" font-size="4.139" fill="#fff" transform="matrix(.34583 -1.04023 1.00296 .36527 -18.313 60.595)">ﻝ</text><text x="42.837" y="11.389" font-family="'ArialMT','Arial',sans-serif" font-size="4.139" fill="#fff" transform="matrix(.4264 -1.00684 .97008 .45241 -21.895 57.847)">ﺎ</text><text x="43.712" y="11.699" font-family="'ArialMT','Arial',sans-serif" font-size="4.139" fill="#fff" transform="matrix(.48995 -.97442 .93828 .52117 -24.58 55.407)">ﻤ</text><text x="45.175" y="12.36" font-family="'ArialMT','Arial',sans-serif" font-size="4.139" fill="#fff" transform="matrix(.57135 -.92406 .889 .60933 -28.177 51.53)">ﻌ</text><text x="46.556" y="13.154" font-family="'ArialMT','Arial',sans-serif" font-size="4.139" fill="#fff" transform="matrix(.6283 -.88208 .848 .67105 -30.84 48.063)">ﻠ</text><text x="47.261" y="13.617" font-family="'ArialMT','Arial',sans-serif" font-size="4.139" fill="#fff" transform="matrix(.66588 -.85088 .81757 .7118 -32.494 45.586)">ﻟ</text><text x="49.653" y="15.568" font-family="'ArialMT','Arial',sans-serif" font-size="4.139" fill="#fff" transform="matrix(.80151 -.7085 .67895 .85911 -38.013 34.324)">ﺔ</text><text x="50.699" y="16.678" font-family="'ArialMT','Arial',sans-serif" font-size="4.139" fill="#fff" transform="matrix(.84038 -.65616 .62806 .90141 -39.472 29.657)">ﻴ</text><text x="51.346" y="17.426" font-family="'ArialMT','Arial',sans-serif" font-size="4.139" fill="#fff" transform="matrix(.88293 -.59015 .56394 .94778 -40.713 24.537)">ﻋ</text><text x="52.571" y="19.166" font-family="'ArialMT','Arial',sans-serif" font-size="4.139" fill="#fff" transform="matrix(.92638 -.50973 .48589 .99523 -41.628 17.222)">ﺎ</text><text x="53.062" y="19.96" font-family="'ArialMT','Arial',sans-serif" font-size="4.139" fill="#fff" transform="matrix(.9521 -.45309 .43095 1.0234 -41.858 12.619)">ﻤ</text><text x="53.796" y="21.375" font-family="'ArialMT','Arial',sans-serif" font-size="4.139" fill="#fff" transform="matrix(.97621 -.39072 .37049 1.04985 -41.617 6.86)">ﺘ</text><text x="54.222" y="22.273" font-family="'ArialMT','Arial',sans-serif" font-size="4.139" fill="#fff" transform="matrix(1.00063 -.31265 .29484 1.07676 -41.02 .835)">ﺟ</text><text x="54.959" y="24.291" font-family="'ArialMT','Arial',sans-serif" font-size="4.139" fill="#fff" transform="matrix(1.0254 -.2003 .18606 1.1043 -38.878 -8.637)">ﻹ</text><text x="55.474" y="26.435" font-family="'ArialMT','Arial',sans-serif" font-size="4.139" fill="#fff" transform="matrix(1.03585 -.12209 .11038 1.11614 -36.07 -15.98)">ﺍ</text><text x="55.817" y="28.382" font-family="'ArialMT','Arial',sans-serif" font-size="4.139" fill="#fff" transform="matrix(1.04093 .02766 -.0344 1.12272 -30.725 -26.906)">ﺕ</text><text x="55.888" y="31.268" font-family="'ArialMT','Arial',sans-serif" font-size="4.139" fill="#fff" transform="matrix(1.03467 .11771 -.1214 1.11663 -24.562 -34.87)">ﺎ</text><text x="55.846" y="32.197" font-family="'ArialMT','Arial',sans-serif" font-size="4.139" fill="#fff" transform="matrix(1.02924 .16028 -.1625 1.1111 -21.798 -37.989)">ﻨ</text><text x="55.759" y="33.19" font-family="'ArialMT','Arial',sans-serif" font-size="4.139" fill="#fff" transform="matrix(1.02102 .20917 -.2097 1.10259 -18.475 -41.357)">ﻴ</text><text x="55.638" y="34.167" font-family="'ArialMT','Arial',sans-serif" font-size="4.139" fill="#fff" transform="matrix(1.00712 .27255 -.27087 1.08806 -14.256 -45.234)">ﻣ</text><text x="55.327" y="35.739" font-family="'ArialMT','Arial',sans-serif" font-size="4.139" fill="#fff" transform="matrix(.98869 .33823 -.33423 1.06867 -8.589 -49.343)">ﺄ</text><text x="55.097" y="36.639" font-family="'ArialMT','Arial',sans-serif" font-size="4.139" fill="#fff" transform="matrix(.9746 .38039 -.37487 1.0538 -4.856 -51.684)">ﺘ</text><text x="54.809" y="37.586" font-family="'ArialMT','Arial',sans-serif" font-size="4.139" fill="#fff" transform="matrix(.95806 .42407 -.41697 1.03627 -.749 -53.918)">ﻠ</text><text x="54.532" y="38.377" font-family="'ArialMT','Arial',sans-serif" font-size="4.139" fill="#fff" transform="matrix(.94121 .46374 -.4552 1.0184 3.05 -55.734)">ﻟ</text><text x="53.791" y="40.205" font-family="'ArialMT','Arial',sans-serif" font-size="4.139" fill="#fff" transform="matrix(.87163 .59543 -.58197 .94434 15.304 -60.398)">ﻲ</text><text x="52.604" y="42.272" font-family="'ArialMT','Arial',sans-serif" font-size="4.139" fill="#fff" transform="matrix(.8257 .66412 -.64803 .89532 24.856 -61.711)">ﻨ</text><text x="52.079" y="43.107" font-family="'ArialMT','Arial',sans-serif" font-size="4.139" fill="#fff" transform="matrix(.76995 .73487 -.71601 .8357 32.511 -62.58)">ﻃ</text><text x="50.6" y="44.951" font-family="'ArialMT','Arial',sans-serif" font-size="4.139" fill="#fff" transform="matrix(.68787 .8207 -.79837 .74783 44.673 -61.64)">ﻮ</text><text x="49.36" y="46.185" font-family="'ArialMT','Arial',sans-serif" font-size="4.139" fill="#fff" transform="matrix(.63931 .8635 -.83938 .69578 52.02 -59.779)">ﻟ</text><text x="48.73" y="46.749" font-family="'ArialMT','Arial',sans-serif" font-size="4.139" fill="#fff" transform="matrix(.59591 .89761 -.87203 .64923 57.09 -58.368)">ﺍ</text><text x="47.191" y="47.973" font-family="'ArialMT','Arial',sans-serif" font-size="4.139" fill="#fff" transform="matrix(.46175 .98247 -.95307 .50518 70.476 -53.063)">ﻕ</text><text x="45.152" y="49.155" font-family="'ArialMT','Arial',sans-serif" font-size="4.139" fill="#fff" transform="matrix(.352 1.0326 -1.00072 .38719 80.946 -45.754)">ﻭ</text><text x="43.548" y="49.859" font-family="'ArialMT','Arial',sans-serif" font-size="4.139" fill="#fff" transform="matrix(.2598 1.06326 -1.02968 .28799 88.304 -38.913)">ﺪ</text><text x="42.246" y="50.288" font-family="'ArialMT','Arial',sans-serif" font-size="4.139" fill="#fff" transform="matrix(.19958 1.0781 -1.04358 .22316 92.686 -33.53)">ﻨ</text><text x="41.302" y="50.618" font-family="'ArialMT','Arial',sans-serif" font-size="4.139" fill="#fff" transform="matrix(.06324 1.0975 -1.06133 .07628 100.029 -24.87)">ﺼ</text><text x="37.893" y="50.976" font-family="'ArialMT','Arial',sans-serif" font-size="4.139" fill="#fff" transform="matrix(-.06573 1.09832 -1.06117 -.0628 105.633 -10.25)">ﻟ</text><text x="37.052" y="50.982" font-family="'ArialMT','Arial',sans-serif" font-size="4.139" fill="#fff" transform="matrix(-.12473 1.09305 -1.05563 -.12645 107.432 -4.943)">ﺍ</text></g></svg>